<svg xmlns="http://www.w3.org/2000/svg" viewBox="0 0 406 406"><defs><style>.cls-1{fill:#1f1f1f;}.cls-2{fill:#c43030;}.cls-3{fill:#fcfcfc;}.cls-4{fill:#161616;}.cls-5{fill:#fff;}.cls-6{fill:#9b0000;}.cls-7{fill:#f9f9f9;}</style></defs><g id="Слой_6" data-name="Слой 6"><circle class="cls-1" cx="203" cy="203" r="203"/></g><g id="Слой_4" data-name="Слой 4"><path class="cls-2" d="M338.63,217l-.08.22c8.76,3.8,17.7,14.31,18.88,23.79A8.69,8.69,0,0,0,350.3,236c3,3.93,3.1,9.27,4.67,14,1.82,5.43,5.63,9.94,9.35,14.3a22.66,22.66,0,0,1-10.61-3.08,55.71,55.71,0,0,0,12.45,12.31,24.31,24.31,0,0,0,4.46,2.63l-.07.16c-.22,4.77,2.46,11.1,4.92,15.2,2.78,4.64,5.7,9.42,10.15,12.5,1.27.87,2.86,2.26,2.12,3.61-.57,1.06-2.09,1-3.27.78a45.19,45.19,0,0,1-12.72-4.69c5.36,4,6.58,11.49,6.8,18.19a38.55,38.55,0,0,1-1.23,12.63c-2,6.34-6.56,11.47-11,16.38a40.2,40.2,0,0,0-13.74-25.39c-1.49-1.26-3.32-2.48-5.24-2.13,4.68,5.94,6.41,14.13,6.17,21.69a2.62,2.62,0,0,1-.43,1.61c-.77.95-2.29.48-3.38-.08-6.94-3.57-13.83-7.85-21.6-8.6-2.54-.25-5.44,0-7.07,2a13.52,13.52,0,0,1,3.39,2.94,5.3,5.3,0,0,1,1.78,4.34,54.78,54.78,0,0,0-16.74-2.91,18.2,18.2,0,0,1,1.5,8c-4.36-1.69-8.32-4.25-12.57-6.2s-15.25-6.84-19.82-5.85c2.9-2.13,4.35-4.48,6-7l1.81-.63a20.73,20.73,0,0,0,9.1-5.83,23.87,23.87,0,0,0,5.34-20.13A29.19,29.19,0,0,0,289.37,289c-4.38-3.25-9.53-5.37-13.79-8.77-3-2.38-4.89-6.39-6.35-9.91-.81-2-1.43-4-2.31-5.95a13,13,0,0,0-3.73-5.1c-2.87-2.2-9.64-4-13.64-4s-10.07,1.29-12.94,3.49a13.09,13.09,0,0,0-3.73,5.1c-.88,1.94-1.49,4-2.31,5.95-1.46,3.52-3.36,7.53-6.35,9.91-4.26,3.4-9.41,5.52-13.79,8.77A29.28,29.28,0,0,0,199,306.2a23.93,23.93,0,0,0,5.34,20.14,20.74,20.74,0,0,0,10.39,6.19l1.82-.27c1.58,2.37,2.47,5,5,7l-1,1c-5,0-13.68,4-17.93,5.95s-8.21,4.51-12.57,6.2a18.34,18.34,0,0,1,1.5-8,54.83,54.83,0,0,0-16.74,2.91,5.3,5.3,0,0,1,1.78-4.34,13.52,13.52,0,0,1,3.39-2.94c-1.63-2-4.53-2.26-7.07-2-7.77.75-14.66,5-21.6,8.6-1.09.56-2.61,1-3.38.08a2.62,2.62,0,0,1-.43-1.61c-.24-7.56,1.49-15.75,6.18-21.69-1.92-.35-3.76.87-5.25,2.13A40.19,40.19,0,0,0,134.69,351c-4.46-4.92-9-10.05-11-16.39A38,38,0,0,1,122.45,322c.21-6.7,1.43-14.16,6.79-18.19a45.19,45.19,0,0,1-12.72,4.69c-1.18.24-2.7.28-3.27-.77-.74-1.36.85-2.75,2.12-3.62,4.45-3.08,7.37-7.86,10.15-12.5,2.46-4.09,5.14-10.43,4.92-15.2l-.07-.16a24.31,24.31,0,0,0,4.46-2.63,55.5,55.5,0,0,0,12.45-12.31,22.66,22.66,0,0,1-10.61,3.08c3.72-4.36,7.53-8.87,9.35-14.3,1.57-4.69,1.67-10,4.67-14a8.69,8.69,0,0,0-7.13,5.07c1.18-9.48,10.12-20,18.88-23.79l-.08-.22a90.38,90.38,0,0,1-12.31,3.59c4.75-5.27,8-11.69,12.33-17.35,10.64-14,26.5-23.26,39-35.63-3.45-.59-7,.22-10.37,1a10.22,10.22,0,0,0-2.6.88.59.59,0,0,1-.88-.43,22.24,22.24,0,0,0-2.16-5.77l1.06-.09c1-2,3.95-3,6.16-4,1.42-.65,3-1.4,3.6-2.82s-.32-3.56-1.86-3.34a11.8,11.8,0,0,1,12.43,1.27c.35.28.76.6,1.19.5a1.37,1.37,0,0,0,.78-.72q2.53-4,5-7.92c1.25,2.35,4.37,2.94,7,2.68,1.77-.18,3.66-.72,4.7-2.16s.61-3.95-1.11-4.39c5.2-1.32,22-.14,26,3.86l.11-.1c4-4,20.85-5.18,26-3.86-1.72.44-2.15,2.95-1.11,4.39s2.94,2,4.71,2.15c2.64.27,5.76-.32,7-2.67l5.05,7.92a1.37,1.37,0,0,0,.78.72c.43.1.84-.22,1.19-.5a11.82,11.82,0,0,1,12.43-1.28c-1.54-.21-2.51,1.93-1.86,3.35s2.18,2.17,3.6,2.81c2.21,1,5.16,2,6.16,4l.83.58a21.41,21.41,0,0,0-1.93,5.28.59.59,0,0,1-.88.43,10.22,10.22,0,0,0-2.6-.88c-3.4-.8-6.92-1.61-10.37-1,12.51,12.37,28.37,21.62,39,35.63,4.3,5.66,7.58,12.07,12.33,17.35A91.83,91.83,0,0,1,338.63,217Zm1,92.6a41.1,41.1,0,0,0-.29-22.38c-2.31-7.2-7.25-13.67-14-17.08a14.66,14.66,0,0,0-6.07-1.76,10.86,10.86,0,0,0-10.82,9.84c-.38,6.61,5.24,11.81,8.14,17.76a22.9,22.9,0,0,1,1.61,15.45c-1.1,4.41-3.66,7.92-6.37,11.46-1.45,1.9-5.19,5.43-5.12,8,.17,6.83,16.82-2.47,19.26-4,3.7-2.31,7.41-4.84,9.91-8.41A26.75,26.75,0,0,0,339.64,309.64Zm-29.28-62.83c.25-4.87-4.21-9-9-10s-9.71.1-14.44,1.28c-.74-2.84,4.26-4.46,4-7.38a14.39,14.39,0,0,0-12,1.3,25.23,25.23,0,0,0-8.65,8.8c-2.64,4.19-6.76,18.48,3.56,14.64,2.26-.84,4.06-2.55,6.13-3.79,4.13-2.46,9.15-2.91,14-2.79s9.64.72,14.41.12a2.58,2.58,0,0,0,1.34-.44A2.31,2.31,0,0,0,310.36,246.81ZM302,267.19a13.55,13.55,0,0,0,2.3-7.74,36.37,36.37,0,0,0-8-4.56,15.64,15.64,0,0,0-9.11-.81,13.19,13.19,0,0,0-8.35,6.72,15.54,15.54,0,0,0-1.15,10.75,16.86,16.86,0,0,0,13.23,3A20.22,20.22,0,0,0,302,267.19Zm-74.85-11.68c10.32,3.84,6.2-10.45,3.57-14.64a25.34,25.34,0,0,0-8.66-8.8,14.38,14.38,0,0,0-12-1.3c-.25,2.92,4.74,4.54,4,7.38-4.73-1.18-9.68-2.36-14.43-1.28s-9.22,5.17-9,10a2.31,2.31,0,0,0,.65,1.7,2.61,2.61,0,0,0,1.34.44c4.77.6,9.6,0,14.41-.12s9.83.33,14,2.79C223.06,253,224.87,254.67,227.12,255.51Zm-3.74,16.14a15.48,15.48,0,0,0-1.15-10.75,13.19,13.19,0,0,0-8.35-6.72,15.64,15.64,0,0,0-9.11.81,36.6,36.6,0,0,0-8.05,4.56,13.55,13.55,0,0,0,2.3,7.74,20.22,20.22,0,0,0,11.13,7.35A16.86,16.86,0,0,0,223.38,271.65Zm-29.11,59.42c.07-2.61-3.67-6.14-5.12-8-2.71-3.54-5.27-7-6.37-11.46a22.9,22.9,0,0,1,1.61-15.45c2.9-5.95,8.52-11.15,8.14-17.76a10.85,10.85,0,0,0-10.82-9.84,14.66,14.66,0,0,0-6.07,1.76c-6.75,3.41-11.69,9.88-14,17.08a41.1,41.1,0,0,0-.29,22.38,26.75,26.75,0,0,0,3.75,8.92c2.5,3.57,6.21,6.1,9.91,8.42C177.45,328.6,194.1,337.9,194.27,331.07Z" transform="translate(-47 -47)"/><path class="cls-3" d="M390.56,244.83a28,28,0,0,1-27.4-7,92.9,92.9,0,0,0,17.62,39.65.17.17,0,0,1-.17.28c-1.64-.28-6.78-.6-7.67-.85a17.1,17.1,0,0,1-2.32-.83,24.31,24.31,0,0,1-4.46-2.63,55.71,55.71,0,0,1-12.45-12.31,22.66,22.66,0,0,0,10.61,3.08c-3.72-4.36-7.53-8.87-9.35-14.3-1.57-4.69-1.67-10-4.67-14a8.69,8.69,0,0,1,7.13,5.07c-1.18-9.48-10.12-20-18.88-23.79l.08-.22a91.83,91.83,0,0,0,12.31,3.59c-4.75-5.28-8-11.69-12.33-17.35-10.64-14-26.5-23.26-39-35.63,3.45-.59,7,.22,10.37,1a10.22,10.22,0,0,1,2.6.88.59.59,0,0,0,.88-.43,21.41,21.41,0,0,1,1.93-5.28c1.51-3.08,3.76-6.5,6.19-8.35,12.88-9.83,29.2-13.74,45-17.42a11.2,11.2,0,0,1,4.06-.43c2.64.36,4.72,2.58,5.68,5.06a19,19,0,0,1,1,6.55q.18,7.33.12,14.66c-.11,11.78.36,24.14-3.71,35.34a85.91,85.91,0,0,1-6.05,12.43,2.1,2.1,0,0,0-.14,1.73,12,12,0,0,0,5.28,5.91,53.5,53.5,0,0,0,8.49,3.62c.47.18,1,.46,1.05,1s-.66,1-1.25,1.1a14.5,14.5,0,0,1-7.37-.11A32.82,32.82,0,0,0,390.56,244.83Zm-25.92-90.57c.89-2.29,1.47-5.21-.28-6.92a45,45,0,0,1-8.52,6.11c-2.28,1.16-4.74,1.91-7.1,2.9a39.54,39.54,0,0,0-10.19,6.24c-3.4,2.88-6.43,6.49-7.72,10.84-2.11,7.12.31,11.48,4.21,17.14,5,7.32,11.18,13.62,17.48,19.85a27.44,27.44,0,0,0,2.38,2.19,1.77,1.77,0,0,0,1,.48c1.07,0,1.3-1.49,1.18-2.55q-.39-3.27-.57-6.57a7.43,7.43,0,0,1,.33-3.35,14.24,14.24,0,0,1,2.1-2.88,8.73,8.73,0,0,0,1-8.65,3.46,3.46,0,0,1-2,3,3,3,0,0,1-3.42-.81,4.52,4.52,0,0,1-.62-3.48,13.68,13.68,0,0,1,10.2-11.17c-.78-2.21-3.35-3.43-5.69-3.25a11.06,11.06,0,0,0-6.21,3.08c-.26-2.88,1.08-5.69,2.82-8s3.89-4.29,5.63-6.61A31.46,31.46,0,0,0,364.64,154.26Z" transform="translate(-47 -47)"/><path class="cls-4" d="M364.36,147.34c1.75,1.71,1.17,4.63.28,6.92a31.46,31.46,0,0,1-4,7.55c-1.74,2.32-3.89,4.3-5.63,6.61s-3.08,5.13-2.82,8a11.06,11.06,0,0,1,6.21-3.08c2.34-.18,4.91,1,5.69,3.25a13.68,13.68,0,0,0-10.2,11.17,4.52,4.52,0,0,0,.62,3.48,3,3,0,0,0,3.42.81,3.46,3.46,0,0,0,2-3,8.73,8.73,0,0,1-1,8.65,14.24,14.24,0,0,0-2.1,2.88,7.43,7.43,0,0,0-.33,3.35q.18,3.3.57,6.57c.12,1.06-.11,2.57-1.18,2.55a1.77,1.77,0,0,1-1-.48,27.44,27.44,0,0,1-2.38-2.19c-6.3-6.23-12.45-12.53-17.48-19.85-3.9-5.66-6.32-10-4.21-17.14,1.29-4.35,4.32-8,7.72-10.84a39.54,39.54,0,0,1,10.19-6.24c2.36-1,4.82-1.74,7.1-2.9A45,45,0,0,0,364.36,147.34Z" transform="translate(-47 -47)"/><path class="cls-5" d="M339.35,287.26a41.1,41.1,0,0,1,.29,22.38,26.75,26.75,0,0,1-3.75,8.92c-2.5,3.57-6.21,6.1-9.91,8.41-2.44,1.53-19.09,10.83-19.26,4-.07-2.61,3.67-6.14,5.12-8,2.71-3.54,5.27-7.05,6.37-11.46A22.9,22.9,0,0,0,316.6,296c-2.9-5.95-8.52-11.15-8.14-17.76a10.86,10.86,0,0,1,10.82-9.84,14.66,14.66,0,0,1,6.07,1.76C332.1,273.59,337,280.06,339.35,287.26Z" transform="translate(-47 -47)"/><path class="cls-5" d="M301.4,236.77c4.75,1.07,9.21,5.17,9,10a2.31,2.31,0,0,1-.65,1.7,2.58,2.58,0,0,1-1.34.44c-4.77.6-9.6,0-14.41-.12s-9.83.33-14,2.79c-2.07,1.24-3.87,2.95-6.13,3.79-10.32,3.84-6.2-10.45-3.56-14.64A25.23,25.23,0,0,1,279,232a14.39,14.39,0,0,1,12-1.3c.26,2.92-4.74,4.54-4,7.38C291.69,236.87,296.64,235.69,301.4,236.77Z" transform="translate(-47 -47)"/><path d="M304.27,259.45a13.55,13.55,0,0,1-2.3,7.74,20.22,20.22,0,0,1-11.13,7.35,16.86,16.86,0,0,1-13.23-3,15.54,15.54,0,0,1,1.15-10.75,13.19,13.19,0,0,1,8.35-6.72,15.64,15.64,0,0,1,9.11.81A36.37,36.37,0,0,1,304.27,259.45ZM294,262a4.92,4.92,0,0,0-3.79-4.62,6,6,0,0,0-5.61,1.86h0l-.17.18a3.79,3.79,0,0,0-1,1.6,4.16,4.16,0,0,0,.86,4.05,5.29,5.29,0,0,0,2.49,1.46,6.31,6.31,0,0,0,4.78-.51A4.92,4.92,0,0,0,294,262Z" transform="translate(-47 -47)"/><path class="cls-6" d="M284.64,259.27a6,6,0,0,1,5.61-1.86,4.63,4.63,0,0,1,1.32,8.65,6.31,6.31,0,0,1-4.78.51,5.29,5.29,0,0,1-2.49-1.46,4.16,4.16,0,0,1-.86-4.05,3.79,3.79,0,0,1,1-1.6l.17-.18Z" transform="translate(-47 -47)"/><path class="cls-5" d="M278,339.63c-8.49,6.58-21.1,10.93-28.4,11s-19.19-4.55-27.17-11.34a30.05,30.05,0,0,1-5.94-6.63l.17-.73a16.7,16.7,0,0,0,8.68,0,37.53,37.53,0,0,0,9.85-4.7l.22.39c3.09,4.28,9.56,7,14.19,7s11.12-2.68,14.19-7l.15-.27a40.5,40.5,0,0,0,10.58,5,17.06,17.06,0,0,0,9.9-.41l.18.63A27.53,27.53,0,0,1,278,339.63Z" transform="translate(-47 -47)"/><path class="cls-5" d="M249.55,319.26c-4.85,1.82-10,5.49-15.23,8.61a41.23,41.23,0,0,1-10.42,4.71,18.61,18.61,0,0,1-9.17-.05,20.74,20.74,0,0,1-10.39-6.19A23.93,23.93,0,0,1,199,306.2a29.28,29.28,0,0,1,11.43-17.72c4.38-3.25,9.53-5.37,13.79-8.77,3-2.38,4.89-6.39,6.35-9.91.82-2,1.43-4,2.31-5.95a13.09,13.09,0,0,1,3.73-5.1c2.87-2.2,8.94-3.49,12.94-3.49s10.77,1.76,13.64,4a13,13,0,0,1,3.73,5.1c.88,1.94,1.5,4,2.31,5.95,1.46,3.52,3.37,7.53,6.35,9.91,4.26,3.4,9.41,5.52,13.79,8.77a29.19,29.19,0,0,1,11.43,17.72,23.87,23.87,0,0,1-5.34,20.13,20.73,20.73,0,0,1-9.1,5.83,19,19,0,0,1-10.46.41A44.3,44.3,0,0,1,264.71,328C259.71,325,254.73,321.56,249.55,319.26Zm0-7c1.38,0,7,1.18,10-1a7.81,7.81,0,0,0,2-2.29c.5-.73.94-1.51,1.38-2.28a80.49,80.49,0,0,0,4.17-8c.69-1.58,1.27-3.46.44-5a4.14,4.14,0,0,0-2.63-1.85c-1.06-.27-11.36-.63-15.36-.63v0c-3.8,0-11.94,0-14.9.8a4.09,4.09,0,0,0-2.63,1.85c-.83,1.51-.25,3.39.44,5a81.61,81.61,0,0,0,4.17,8c.44.77.88,1.54,1.38,2.27a10.64,10.64,0,0,0,2.54,2.15C243.54,313.44,248.17,312.29,249.55,312.26Z" transform="translate(-47 -47)"/><path d="M249.55,291.26c4,0,14.3.36,15.36.63a4.14,4.14,0,0,1,2.63,1.85c.83,1.52.25,3.4-.44,5a80.49,80.49,0,0,1-4.17,8c-.44.77-.88,1.55-1.38,2.28a7.81,7.81,0,0,1-2,2.29c-3,2.18-8.62,1-10,1s-6,1.18-9-1a10.64,10.64,0,0,1-2.54-2.15c-.5-.73-.94-1.5-1.38-2.27a81.61,81.61,0,0,1-4.17-8c-.69-1.59-1.27-3.47-.44-5a4.09,4.09,0,0,1,2.63-1.85c3-.76,11.1-.82,14.9-.8Z" transform="translate(-47 -47)"/><path class="cls-3" d="M230.69,240.87c2.63,4.19,6.75,18.48-3.57,14.64-2.25-.84-4.06-2.55-6.12-3.79-4.14-2.46-9.16-2.91-14-2.79s-9.64.72-14.41.12a2.61,2.61,0,0,1-1.34-.44,2.31,2.31,0,0,1-.65-1.7c-.25-4.87,4.21-9,9-10s9.7.1,14.43,1.28c.74-2.84-4.25-4.46-4-7.38a14.38,14.38,0,0,1,12,1.3A25.34,25.34,0,0,1,230.69,240.87Z" transform="translate(-47 -47)"/><path d="M222.23,260.9a15.48,15.48,0,0,1,1.15,10.75,16.86,16.86,0,0,1-13.23,3A20.22,20.22,0,0,1,199,267.29a13.55,13.55,0,0,1-2.3-7.74,36.6,36.6,0,0,1,8.05-4.56,15.64,15.64,0,0,1,9.11-.81A13.19,13.19,0,0,1,222.23,260.9Zm-5.54,4.32a4.18,4.18,0,0,0,.86-4.06,3.79,3.79,0,0,0-1-1.6,1,1,0,0,0-.17-.18h0a6,6,0,0,0-5.61-1.86,4.63,4.63,0,0,0-1.32,8.65,6.31,6.31,0,0,0,4.78.51A5.36,5.36,0,0,0,216.69,265.22Z" transform="translate(-47 -47)"/><path class="cls-7" d="M216.35,259.37h0a1,1,0,0,1,.17.18,3.79,3.79,0,0,1,1,1.6,4.18,4.18,0,0,1-.86,4.06,5.36,5.36,0,0,1-2.49,1.45,6.31,6.31,0,0,1-4.78-.51,4.63,4.63,0,0,1,1.32-8.65A6,6,0,0,1,216.35,259.37Z" transform="translate(-47 -47)"/><path class="cls-5" d="M189.15,323c1.45,1.9,5.19,5.43,5.12,8-.17,6.83-16.82-2.47-19.26-4-3.7-2.32-7.41-4.85-9.91-8.42a26.75,26.75,0,0,1-3.75-8.92,41.1,41.1,0,0,1,.29-22.38c2.31-7.2,7.25-13.67,14-17.08a14.66,14.66,0,0,1,6.07-1.76,10.85,10.85,0,0,1,10.82,9.84c.38,6.61-5.24,11.81-8.14,17.76a22.9,22.9,0,0,0-1.61,15.45C183.88,316,186.44,319.49,189.15,323Z" transform="translate(-47 -47)"/><path class="cls-6" d="M170.16,173.53c2.12,7.12-.31,11.48-4.21,17.14-5,7.32-11.18,13.62-17.47,19.85a29.11,29.11,0,0,1-2.39,2.19,1.77,1.77,0,0,1-1,.48c-1.07,0-1.3-1.49-1.17-2.55q.38-3.27.57-6.57a7.57,7.57,0,0,0-.34-3.35,14.14,14.14,0,0,0-2.1-2.88,8.73,8.73,0,0,1-1-8.65,3.46,3.46,0,0,0,2,3,3,3,0,0,0,3.42-.81,4.57,4.57,0,0,0,.63-3.48,13.71,13.71,0,0,0-10.21-11.17c.78-2.21,3.35-3.43,5.69-3.25a11.06,11.06,0,0,1,6.21,3.08c.27-2.88-1.08-5.69-2.82-8s-3.89-4.29-5.62-6.61a31.14,31.14,0,0,1-4-7.55c-.89-2.29-1.47-5.21.29-6.92a44.93,44.93,0,0,0,8.51,6.11c2.29,1.16,4.74,1.91,7.1,2.9a39.2,39.2,0,0,1,10.19,6.24C165.85,165.57,168.88,169.18,170.16,173.53Z" transform="translate(-47 -47)"/><path class="cls-6" d="M128.05,277c-.89.25-6,.57-7.67.85a.17.17,0,0,1-.17-.28A92.9,92.9,0,0,0,137.83,238a28,28,0,0,1-27.4,7A32.82,32.82,0,0,0,127.25,225a14.5,14.5,0,0,1-7.37.11c-.59-.14-1.3-.5-1.25-1.1s.58-.78,1.05-1a53.11,53.11,0,0,0,8.49-3.62,12,12,0,0,0,5.28-5.91,2.1,2.1,0,0,0-.14-1.73,85.91,85.91,0,0,1-6-12.43c-4.07-11.2-3.6-23.56-3.71-35.34,0-4.89,0-9.77.12-14.66a19.22,19.22,0,0,1,1-6.54c1-2.49,3-4.71,5.68-5.07a11.2,11.2,0,0,1,4.06.43c15.79,3.68,32.11,7.59,45,17.42,2.3,1.75,4.43,4.91,5.95,7.86a22.24,22.24,0,0,1,2.16,5.77.59.59,0,0,0,.88.43,10.22,10.22,0,0,1,2.6-.88c3.41-.8,6.92-1.61,10.37-1-12.51,12.37-28.37,21.62-39,35.63-4.3,5.66-7.58,12.08-12.33,17.35a90.38,90.38,0,0,0,12.31-3.59l.08.22c-8.76,3.8-17.7,14.31-18.88,23.79a8.69,8.69,0,0,1,7.13-5.07c-3,3.93-3.1,9.27-4.67,14-1.82,5.43-5.63,9.94-9.35,14.3a22.66,22.66,0,0,0,10.61-3.08,55.5,55.5,0,0,1-12.45,12.31,24.31,24.31,0,0,1-4.46,2.63A15.85,15.85,0,0,1,128.05,277ZM166,190.67c3.9-5.66,6.33-10,4.21-17.14-1.28-4.35-4.31-8-7.72-10.84a39.2,39.2,0,0,0-10.19-6.24c-2.36-1-4.81-1.74-7.1-2.9a44.93,44.93,0,0,1-8.51-6.11c-1.76,1.71-1.18,4.63-.29,6.92a31.14,31.14,0,0,0,4,7.55c1.73,2.32,3.88,4.3,5.62,6.61s3.09,5.13,2.82,8a11.06,11.06,0,0,0-6.21-3.08c-2.34-.18-4.91,1-5.69,3.25a13.71,13.71,0,0,1,10.21,11.17,4.57,4.57,0,0,1-.63,3.48,3,3,0,0,1-3.42.81,3.46,3.46,0,0,1-2-3,8.73,8.73,0,0,0,1,8.65,14.14,14.14,0,0,1,2.1,2.88,7.57,7.57,0,0,1,.34,3.35q-.19,3.3-.57,6.57c-.13,1.06.1,2.57,1.17,2.55a1.77,1.77,0,0,0,1-.48,29.11,29.11,0,0,0,2.39-2.19C154.77,204.29,160.92,198,166,190.67Z" transform="translate(-47 -47)"/><path d="M249.55,319.26c5.18,2.3,10.16,5.76,15.16,8.73l-.16.27c-3.24,4.32-10.11,7-15,7s-11.73-2.71-15-7l-.23-.39C239.59,324.75,244.7,321.08,249.55,319.26Z" transform="translate(-47 -47)"/><path class="cls-2" d="M186.44,164.36a1,1,0,0,1-.44-.1,1,1,0,0,1-.45-1.34c1-2,3.39-3,5.51-3.93.39-.17.77-.33,1.13-.5,1.41-.64,2.62-1.26,3.11-2.32a1.73,1.73,0,0,0-.22-1.62.64.64,0,0,0-.59-.32,1,1,0,0,1-1.1-.68,1,1,0,0,1,.5-1.2,12.89,12.89,0,0,1,13.51,1.38,3.54,3.54,0,0,0,.35.26l.14-.22q2.55-4,5.06-7.93a1,1,0,0,1,1.73.06c1,1.93,3.79,2.38,6,2.16,1.95-.2,3.29-.79,4-1.75a2.27,2.27,0,0,0,.24-2,1.2,1.2,0,0,0-.78-.82,1,1,0,0,1-.75-1,1,1,0,0,1,.75-1c5.58-1.41,22.73-.14,27,4.13a1,1,0,0,1-1.41,1.41c-3.31-3.31-16.73-4.58-23.11-3.92a4.89,4.89,0,0,1,.2.46,4.3,4.3,0,0,1-.5,3.87c-1.05,1.44-2.87,2.31-5.41,2.57-3,.29-5.52-.42-7-1.93-1.43,2.24-2.85,4.48-4.28,6.71a2.29,2.29,0,0,1-1.41,1.16,2.38,2.38,0,0,1-2-.7,10.9,10.9,0,0,0-9.43-1.89,3.68,3.68,0,0,1,.39,3.6c-.83,1.82-2.71,2.68-4.09,3.31-.37.18-.77.34-1.17.52-1.8.77-3.84,1.64-4.51,3A1,1,0,0,1,186.44,164.36Z" transform="translate(-47 -47)"/><path class="cls-2" d="M310.94,353.31a1.13,1.13,0,0,1-.36-.06,71.1,71.1,0,0,1-7.5-3.62c-1.67-.89-3.39-1.81-5.12-2.61l-1.1-.5c-4.28-2-15.42-7.1-19.31-6.26-.6.13,1-.37,1-1s.39.07.89,0c4.2-.86,11.63,2.36,18.27,5.43l1.08.5c1.79.82,3.54,1.76,5.23,2.66,1.92,1,3.9,2.08,5.92,3a17.52,17.52,0,0,0-1.41-6.08,1,1,0,0,1,.08-.95,1.09,1.09,0,0,1,.85-.45,55.75,55.75,0,0,1,15.63,2.51,5,5,0,0,0-1.38-2.22c-.3-.29-.58-.58-.84-.86a8.31,8.31,0,0,0-2.3-1.9,1,1,0,0,1-.53-.69,1,1,0,0,1,.2-.84c1.58-1.91,4.33-2.73,7.94-2.37,6.76.65,12.85,3.88,18.73,7l3.23,1.69c.85.44,1.85.72,2.15.34a2.05,2.05,0,0,0,.21-1c.26-8.23-1.91-15.9-6-21a1,1,0,0,1-.15-1,1,1,0,0,1,.76-.63c2.38-.44,4.49,1,6.06,2.35A41.3,41.3,0,0,1,367,348.63c3.76-4.19,7.67-8.89,9.39-14.44a37.39,37.39,0,0,0,1.18-12.31c-.18-5.54-1-13.39-6.4-17.42a1,1,0,0,1,1.09-1.67,43.92,43.92,0,0,0,12.44,4.58c.88.18,1.93.21,2.18-.27s-.4-1.35-1.8-2.31c-4.73-3.27-7.76-8.34-10.44-12.81s-5.29-10.75-5.06-15.76a1,1,0,1,1,2,.09c-.21,4.57,2.45,10.75,4.78,14.64,2.58,4.3,5.5,9.17,9.86,12.19,3.08,2.11,3,3.84,2.43,4.91-.39.73-1.48,1.87-4.34,1.28a45.86,45.86,0,0,1-8.36-2.55c2.9,4.59,3.49,10.53,3.63,15a39.21,39.21,0,0,1-1.27,13c-2.07,6.67-6.94,12-11.23,16.76a1,1,0,0,1-1.05.28,1,1,0,0,1-.69-.83,39.19,39.19,0,0,0-13.39-24.75,9.93,9.93,0,0,0-2.46-1.63c4.68,7.2,5.18,15.76,5,20.45a3.52,3.52,0,0,1-.65,2.22c-.92,1.14-2.61,1.2-4.61.17-1.09-.55-2.17-1.13-3.25-1.71-5.72-3-11.63-6.17-18-6.78a8.65,8.65,0,0,0-5.33.87,14.65,14.65,0,0,1,1.66,1.56c.25.26.5.53.78.81a6.27,6.27,0,0,1,2.08,5.18,1,1,0,0,1-.47.72,1,1,0,0,1-.85.1,53.41,53.41,0,0,0-14.94-2.81,19,19,0,0,1,1,7,1,1,0,0,1-.45.8A1,1,0,0,1,310.94,353.31Z" transform="translate(-47 -47)"/><path class="cls-2" d="M190.05,353.41a1,1,0,0,1-.54-.16,1,1,0,0,1-.45-.8,19.31,19.31,0,0,1,1-7,53.41,53.41,0,0,0-14.94,2.81,1,1,0,0,1-.85-.1,1,1,0,0,1-.47-.72,6.3,6.3,0,0,1,2.08-5.19c.28-.27.54-.54.79-.8a14.53,14.53,0,0,1,1.65-1.56,8.65,8.65,0,0,0-5.33-.87c-6.36.61-12.27,3.75-18,6.78-1.08.58-2.16,1.16-3.25,1.71-2.75,1.42-4.07.5-4.62-.18a3.46,3.46,0,0,1-.64-2.2c-.15-4.7.35-13.26,5-20.45a9.81,9.81,0,0,0-2.46,1.62,39.19,39.19,0,0,0-13.39,24.76,1,1,0,0,1-.69.83,1,1,0,0,1-1.05-.28c-4.29-4.74-9.15-10.1-11.22-16.77a39,39,0,0,1-1.27-13c.14-4.51.71-10.45,3.62-15a46,46,0,0,1-8.35,2.55c-2.88.59-4-.54-4.35-1.27-.59-1.08-.65-2.81,2.43-4.92,4.37-3,7.28-7.89,9.86-12.19,2.33-3.89,5-10.05,4.78-14.64a1,1,0,1,1,2-.09c.24,5-2.58,11.64-5.06,15.76-2.68,4.47-5.71,9.54-10.44,12.81-1.4,1-2.07,1.82-1.81,2.32s1.3.45,2.2.26a44,44,0,0,0,12.43-4.58,1,1,0,0,1,1.09,1.67c-5.37,4-6.22,11.88-6.4,17.43a37.7,37.7,0,0,0,1.19,12.3c1.72,5.54,5.63,10.26,9.38,14.45a41.3,41.3,0,0,1,13.77-23.93c1.44-1.22,3.64-2.8,6.07-2.35a1,1,0,0,1,.76.63,1,1,0,0,1-.15,1c-5.55,7-6.12,16.2-6,21a2.05,2.05,0,0,0,.21,1c.3.38,1.3.1,2.15-.34l3.23-1.69c5.88-3.13,12-6.36,18.73-7,3.61-.36,6.36.46,7.94,2.37a1,1,0,0,1,.2.84,1,1,0,0,1-.53.69,8.09,8.09,0,0,0-2.29,1.89c-.27.29-.55.58-.85.87a5,5,0,0,0-1.38,2.22,55.63,55.63,0,0,1,15.63-2.51,1.1,1.1,0,0,1,.85.45,1,1,0,0,1,.08.95,17.36,17.36,0,0,0-1.41,6.08c2-.88,4-1.93,5.92-3,1.69-.9,3.44-1.84,5.23-2.66l.25-.11c4.53-2.07,13-5.93,18.09-5.93.56,0,2-.55,2,0s.56,1,0,1c-4.68,0-15.18,4.88-19.26,6.75l-.25.11c-1.73.8-3.45,1.72-5.12,2.61a72.06,72.06,0,0,1-7.5,3.62A1.15,1.15,0,0,1,190.05,353.41Z" transform="translate(-47 -47)"/><path class="cls-5" d="M270.81,257.07a4.11,4.11,0,0,1-3.38-1.5c-3-3.66.29-12.56,2-15.33h0a26.16,26.16,0,0,1,9-9.14,15.4,15.4,0,0,1,12.85-1.36,1,1,0,0,1,.64.85c.17,1.88-1.18,3.22-2.37,4.41a8.77,8.77,0,0,0-1.48,1.74c4.24-1,8.91-2,13.52-.94,5,1.13,10,5.57,9.73,11.06a3.21,3.21,0,0,1-1,2.42,3.61,3.61,0,0,1-1.86.67,58.91,58.91,0,0,1-10.37.06c-1.39-.07-2.79-.14-4.19-.18-3.7-.09-9.11.09-13.42,2.65-.7.42-1.37.9-2.08,1.4a18.2,18.2,0,0,1-4.22,2.47A9.89,9.89,0,0,1,270.81,257.07Zm15.77-26.17a14.62,14.62,0,0,0-7.12,1.94,24.15,24.15,0,0,0-8.3,8.47h0c-1.9,3-4.13,10.59-2.17,13,.76.95,2.29,1,4.54.17a16.71,16.71,0,0,0,3.75-2.23c.71-.5,1.44-1,2.21-1.48,4.76-2.84,10.55-3,14.5-2.94,1.41,0,2.83.11,4.25.19a57.69,57.69,0,0,0,10-.06,2,2,0,0,0,.84-.22c.08-.07.24-.31.28-1,.22-4.44-4-8.07-8.19-9-4.64-1.06-9.6.18-14,1.27a1,1,0,0,1-1.21-.71c-.53-2,.91-3.46,2.18-4.72a6.71,6.71,0,0,0,1.72-2.22A11.44,11.44,0,0,0,286.58,230.9Zm-16.27,9.87h0Z" transform="translate(-47 -47)"/><path d="M287.73,275.88A18.4,18.4,0,0,1,277,272.36a1,1,0,0,1-.38-.57,16.59,16.59,0,0,1,1.24-11.45,14.19,14.19,0,0,1,9-7.23,16.58,16.58,0,0,1,9.7.85,37.7,37.7,0,0,1,8.27,4.68,1,1,0,0,1,.42.75,14.4,14.4,0,0,1-2.51,8.42,21.12,21.12,0,0,1-11.69,7.71A15.26,15.26,0,0,1,287.73,275.88ZM278.5,271a15.79,15.79,0,0,0,12.12,2.61,19.16,19.16,0,0,0,10.57-7,12.75,12.75,0,0,0,2.1-6.6,34.67,34.67,0,0,0-7.42-4.15,14.52,14.52,0,0,0-8.52-.77,12.16,12.16,0,0,0-7.7,6.21A14.57,14.57,0,0,0,278.5,271Z" transform="translate(-47 -47)"/><path class="cls-5" d="M284.64,259.27h0l-.17.18a3.79,3.79,0,0,0-1,1.6,4.16,4.16,0,0,0,.86,4.05,5.29,5.29,0,0,0,2.49,1.46,6.31,6.31,0,0,0,4.78-.51,4.63,4.63,0,0,0-1.32-8.65,6,6,0,0,0-5.61,1.86" transform="translate(-47 -47)"/><path d="M288.61,267.82a7.83,7.83,0,0,1-2.08-.28,6.25,6.25,0,0,1-3-1.76,5.13,5.13,0,0,1-1.06-5,4.75,4.75,0,0,1,1.24-2l.18-.18a7,7,0,0,1,6.56-2.15,5.89,5.89,0,0,1,4.57,5.61,6,6,0,0,1-3,4.88A7,7,0,0,1,288.61,267.82ZM285.36,260l0,0-.11.11a.34.34,0,0,1-.08.09,2.8,2.8,0,0,0-.75,1.18,3.17,3.17,0,0,0,.64,3.07,4.35,4.35,0,0,0,2,1.17,5.3,5.3,0,0,0,4-.41,3.94,3.94,0,0,0,2-3.18,3.9,3.9,0,0,0-3-3.63,5,5,0,0,0-4.65,1.57Z" transform="translate(-47 -47)"/><path class="cls-5" d="M309.7,334.43a4.87,4.87,0,0,1-2.31-.48,3.23,3.23,0,0,1-1.67-2.95c-.06-2.41,2.25-5.08,4.11-7.22.47-.54.9-1,1.22-1.45,2.78-3.64,5.17-7,6.19-11.1a22,22,0,0,0-1.53-14.77h0a51.65,51.65,0,0,0-3.24-5.39c-2.6-3.94-5.28-8-5-12.86a11.81,11.81,0,0,1,11.85-10.79,15.51,15.51,0,0,1,6.49,1.87A29.88,29.88,0,0,1,340.31,287a41.94,41.94,0,0,1,.3,22.93,27.09,27.09,0,0,1-3.9,9.25c-2.66,3.8-6.66,6.47-10.2,8.68C326.39,327.9,315.67,334.43,309.7,334.43Zm7.8-38.84a23.93,23.93,0,0,1,1.68,16.13c-1.12,4.49-3.62,8-6.54,11.82-.34.44-.79,1-1.3,1.55-1.46,1.68-3.66,4.22-3.62,5.86,0,.82.34,1.09.62,1.24,2.85,1.53,13.26-3.64,17.11-6.06,3.38-2.11,7.18-4.65,9.63-8.14a25.67,25.67,0,0,0,3.6-8.59,40,40,0,0,0-.28-21.83,27.78,27.78,0,0,0-13.5-16.49,13.47,13.47,0,0,0-5.65-1.66,9.91,9.91,0,0,0-9.79,8.9c-.24,4.19,2.15,7.81,4.68,11.65a50,50,0,0,1,3.36,5.62Z" transform="translate(-47 -47)"/><path class="cls-4" d="M355.93,214.09h0a2.75,2.75,0,0,1-1.62-.69,28.49,28.49,0,0,1-2.46-2.27c-6.1-6-12.48-12.54-17.6-20-4-5.75-6.59-10.41-4.34-18,1.18-4,3.89-7.81,8-11.32h0a40.34,40.34,0,0,1,10.45-6.4c.88-.37,1.77-.7,2.66-1a40.87,40.87,0,0,0,4.37-1.83,44.29,44.29,0,0,0,8.33-6,1,1,0,0,1,1.34,0c1.72,1.68,1.9,4.44.52,8a32.42,32.42,0,0,1-4.15,7.78c-.91,1.21-1.92,2.32-2.9,3.4s-1.9,2.1-2.74,3.22a13.22,13.22,0,0,0-2.51,5.26,10.25,10.25,0,0,1,5-1.93c2.6-.19,5.72,1.08,6.72,3.91a1,1,0,0,1-.07.81,1,1,0,0,1-.65.5,12.71,12.71,0,0,0-9.43,10.33,3.53,3.53,0,0,0,.41,2.72,2,2,0,0,0,2.24.52,2.48,2.48,0,0,0,1.41-2.11,1,1,0,0,1,1.91-.36,9.7,9.7,0,0,1-1.09,9.67c-.23.3-.48.6-.73.89a7,7,0,0,0-1.24,1.77,6.67,6.67,0,0,0-.26,2.9c.12,2.17.31,4.36.57,6.52a4.16,4.16,0,0,1-.71,3A1.94,1.94,0,0,1,355.93,214.09ZM339.2,163.36c-3.84,3.25-6.33,6.74-7.41,10.36-2,6.75.32,10.83,4.08,16.29,5,7.31,11.33,13.74,17.36,19.7a25.91,25.91,0,0,0,2.29,2.12c.3.23.39.26.42.26a2.65,2.65,0,0,0,.16-1.43c-.26-2.19-.45-4.43-.57-6.63a8.27,8.27,0,0,1,.4-3.79,8.82,8.82,0,0,1,1.57-2.3c.23-.26.45-.53.66-.8a7.76,7.76,0,0,0,1.47-5.07,4.23,4.23,0,0,1-1.33.92,3.93,3.93,0,0,1-4.59-1.12,5.32,5.32,0,0,1-.82-4.24A14.63,14.63,0,0,1,362.6,176a5,5,0,0,0-4.14-1.63,10,10,0,0,0-5.62,2.83,1,1,0,0,1-1.66-.66c-.25-2.77.76-5.69,3-8.7.89-1.18,1.89-2.28,2.85-3.35s1.93-2.13,2.78-3.26a30.29,30.29,0,0,0,3.88-7.31c.63-1.61,1.15-3.68.48-5.1a41.49,41.49,0,0,1-7.9,5.55,45.9,45.9,0,0,1-4.56,1.91c-.87.33-1.74.66-2.6,1a38.1,38.1,0,0,0-9.93,6.08Z" transform="translate(-47 -47)"/><path class="cls-2" d="M314.56,164.26a1,1,0,0,1-.9-.55c-.67-1.33-2.69-2.21-4.48-3-.41-.18-.82-.35-1.2-.53-1.64-.74-3.31-1.6-4.09-3.3a3.65,3.65,0,0,1,.4-3.6,10.92,10.92,0,0,0-9.44,1.89,2.39,2.39,0,0,1-2,.7,2.32,2.32,0,0,1-1.41-1.17l-4.27-6.7c-1.53,1.52-4,2.23-7,1.92-2.54-.25-4.37-1.11-5.42-2.56a4.3,4.3,0,0,1-.5-3.87,4.89,4.89,0,0,1,.2-.46c-6.38-.66-19.8.61-23.11,3.92a1,1,0,0,1-1.41-1.41c4.5-4.5,22-5.39,27-4.13a1,1,0,0,1,.75,1,1,1,0,0,1-.75,1,1.24,1.24,0,0,0-.79.82,2.27,2.27,0,0,0,.25,2c.69,1,2,1.55,4,1.74,2.25.23,5-.22,6-2.15a1,1,0,0,1,.85-.53,1,1,0,0,1,.88.47l5.05,7.92.15.23a2.65,2.65,0,0,0,.35-.26,12.76,12.76,0,0,1,13.51-1.39,1,1,0,0,1,.5,1.19,1,1,0,0,1-1.09.69.65.65,0,0,0-.6.33,1.73,1.73,0,0,0-.22,1.62c.5,1.07,1.75,1.7,3.11,2.31.37.18.76.34,1.16.52,2.11.9,4.49,1.93,5.48,3.92a1,1,0,0,1-.45,1.34A1,1,0,0,1,314.56,164.26Z" transform="translate(-47 -47)"/><path class="cls-5" d="M128.05,277c-.89.25-6,.57-7.67.85a.17.17,0,0,1-.17-.28A92.9,92.9,0,0,0,137.83,238a28,28,0,0,1-27.4,7A32.82,32.82,0,0,0,127.25,225a14.5,14.5,0,0,1-7.37.11c-.59-.14-1.3-.5-1.25-1.1s.58-.78,1.05-1a53.11,53.11,0,0,0,8.49-3.62,12,12,0,0,0,5.28-5.91,2.1,2.1,0,0,0-.14-1.73,85.91,85.91,0,0,1-6-12.43c-4.07-11.2-3.6-23.56-3.71-35.34,0-4.89,0-9.77.12-14.66a19.22,19.22,0,0,1,1-6.54c1-2.49,3-4.71,5.68-5.07a11.2,11.2,0,0,1,4.06.43c15.79,3.68,32.11,7.59,45,17.42,2.3,1.75,4.43,4.91,5.95,7.86a22.24,22.24,0,0,1,2.16,5.77.59.59,0,0,0,.88.43,10.22,10.22,0,0,1,2.6-.88c3.41-.8,6.92-1.61,10.37-1-12.51,12.37-28.37,21.62-39,35.63-4.3,5.66-7.58,12.08-12.33,17.35a90.38,90.38,0,0,0,12.31-3.59l.08.22c-8.76,3.8-17.7,14.31-18.88,23.79a8.69,8.69,0,0,1,7.13-5.07c-3,3.93-3.1,9.27-4.67,14-1.82,5.43-5.63,9.94-9.35,14.3a22.66,22.66,0,0,0,10.61-3.08,55.5,55.5,0,0,1-12.45,12.31,24.31,24.31,0,0,1-4.46,2.63A15.85,15.85,0,0,1,128.05,277Z" transform="translate(-47 -47)"/><path class="cls-5" d="M120.34,278.89a1.18,1.18,0,0,1-.92-1.9,92,92,0,0,0,16.84-36.27,29.14,29.14,0,0,1-26.11,5.17A1,1,0,0,1,110,244a32,32,0,0,0,15.76-17.7,15.41,15.41,0,0,1-6.12-.27c-1.31-.31-2.09-1.13-2-2.15.06-.8.63-1.41,1.69-1.81.63-.25,1.28-.48,1.92-.72a37.13,37.13,0,0,0,6.41-2.82,11.13,11.13,0,0,0,4.85-5.4,1,1,0,0,0-.07-.89,86.35,86.35,0,0,1-6.11-12.59c-3.67-10.09-3.71-21-3.75-31.64,0-1.35,0-2.69,0-4,0-4.61,0-9.42.12-14.69a20.14,20.14,0,0,1,1.08-6.88c.95-2.45,3.15-5.24,6.48-5.7a12,12,0,0,1,4.42.45c15.06,3.51,32.12,7.49,45.38,17.6,2.88,2.19,5.14,6.07,6.23,8.2a25,25,0,0,1,2.16,5.53,12.57,12.57,0,0,1,2.29-.71c3.4-.8,7.16-1.68,10.84-1a1,1,0,0,1,.79.68,1,1,0,0,1-.25,1,207.66,207.66,0,0,1-15.88,13.71c-8.19,6.6-16.66,13.42-23,21.82-1.72,2.27-3.31,4.71-4.85,7.08-1.75,2.68-3.54,5.43-5.58,8a90.57,90.57,0,0,0,9.26-2.87l.14-.06a1,1,0,0,1,1.29,1.14,1,1,0,0,1-.6,1c-7.43,3.23-14.53,11.19-17.24,18.77a9.52,9.52,0,0,1,5-2,1,1,0,0,1,.87,1.6c-1.86,2.44-2.53,5.49-3.24,8.72a46.15,46.15,0,0,1-1.28,5c-1.63,4.86-4.82,9-7.95,12.77a21.75,21.75,0,0,0,7.76-2.73,1,1,0,0,1,1.31,1.45,56.26,56.26,0,0,1-12.67,12.54,25.69,25.69,0,0,1-4.65,2.73,16.69,16.69,0,0,1-2.45.88,33.83,33.83,0,0,1-4,.47c-1.48.14-3,.28-3.74.4Zm-.12-2h0ZM137.84,237a1,1,0,0,1,1,1.18,93.83,93.83,0,0,1-16.65,38.53l1.93-.18c1.39-.13,3.3-.3,3.68-.41a13.91,13.91,0,0,0,2.18-.78,23.91,23.91,0,0,0,4.3-2.53,54.71,54.71,0,0,0,9.61-8.8,23.32,23.32,0,0,1-7.16,1.38,1,1,0,0,1-.94-.56,1,1,0,0,1,.14-1.09c3.46-4.05,7.38-8.65,9.17-14,.5-1.52.86-3.16,1.21-4.75a30.64,30.64,0,0,1,2.28-7.36,7.71,7.71,0,0,0-4.09,3.93,1,1,0,0,1-1.91-.52c.9-7.19,6.21-15.33,12.94-20.61-1.75.48-3.5.92-5.24,1.29a1,1,0,0,1-1-1.65A79.7,79.7,0,0,0,156.65,210c1.56-2.39,3.17-4.87,4.94-7.19,6.52-8.59,15.09-15.49,23.37-22.17,4.77-3.84,9.69-7.8,14.17-12.06a32.92,32.92,0,0,0-7.88,1.2,9.07,9.07,0,0,0-2.34.78,1.59,1.59,0,0,1-2.35-1.14,21.54,21.54,0,0,0-2.07-5.48,23,23,0,0,0-5.66-7.52c-12.92-9.85-29.76-13.78-44.62-17.24a10.47,10.47,0,0,0-3.7-.42,6.67,6.67,0,0,0-4.88,4.44,18.53,18.53,0,0,0-1,6.21c-.11,5.25-.15,10-.11,14.63,0,1.33,0,2.68,0,4,0,10.43.08,21.21,3.63,31a83.32,83.32,0,0,0,6,12.29,3.08,3.08,0,0,1,.21,2.54,12.87,12.87,0,0,1-5.71,6.44,39.23,39.23,0,0,1-6.75,3c-.63.23-1.27.46-1.9.71l-.18.07a1.34,1.34,0,0,0,.26.08A13.4,13.4,0,0,0,127,224a1,1,0,0,1,1.23,1.25,34,34,0,0,1-15,19.3,27.07,27.07,0,0,0,23.94-7.33A1,1,0,0,1,137.84,237Z" transform="translate(-47 -47)"/><path class="cls-5" d="M230.19,257.17a9.89,9.89,0,0,1-3.41-.72,18.51,18.51,0,0,1-4.23-2.48c-.7-.5-1.37-1-2.06-1.39-4.32-2.57-9.73-2.74-13.43-2.65-1.4,0-2.8.11-4.2.18a57.86,57.86,0,0,1-10.36-.06,3.53,3.53,0,0,1-1.84-.66,3.19,3.19,0,0,1-1-2.43c-.29-5.49,4.73-9.93,9.75-11.06,4.58-1.05,9.26-.1,13.5.94a8.5,8.5,0,0,0-1.48-1.74c-1.19-1.19-2.53-2.53-2.37-4.41a1,1,0,0,1,.64-.85,15.39,15.39,0,0,1,12.85,1.36,26.27,26.27,0,0,1,9,9.14h0c1.74,2.77,5,11.68,2,15.34A4.1,4.1,0,0,1,230.19,257.17Zm-21.75-9.25c3.83,0,8.86.44,13.08,2.94.76.47,1.49,1,2.19,1.48a16.67,16.67,0,0,0,3.76,2.24c2.25.83,3.78.78,4.54-.17,2-2.4-.26-10-2.16-13a24.34,24.34,0,0,0-8.31-8.47,13.57,13.57,0,0,0-10.43-1.47,6.55,6.55,0,0,0,1.71,2.21c1.27,1.27,2.71,2.71,2.18,4.73a1,1,0,0,1-1.21.71c-4.37-1.09-9.33-2.33-14-1.27-4.21,1-8.42,4.57-8.2,9,0,.67.2.91.3,1a2,2,0,0,0,.82.21,57.68,57.68,0,0,0,10,.06c1.42-.08,2.83-.15,4.25-.19Z" transform="translate(-47 -47)"/><path d="M213.27,276a14.68,14.68,0,0,1-3.34-.37,21.12,21.12,0,0,1-11.69-7.71,14.4,14.4,0,0,1-2.51-8.42,1,1,0,0,1,.42-.75,37.63,37.63,0,0,1,8.27-4.68,16.58,16.58,0,0,1,9.7-.85,14.19,14.19,0,0,1,9,7.23,16.61,16.61,0,0,1,1.24,11.45,1,1,0,0,1-.38.57A18.41,18.41,0,0,1,213.27,276Zm-15.56-15.91a12.75,12.75,0,0,0,2.1,6.6,19.16,19.16,0,0,0,10.57,7,15.79,15.79,0,0,0,12.12-2.61,14.56,14.56,0,0,0-1.15-9.7,12.22,12.22,0,0,0-7.7-6.21,14.61,14.61,0,0,0-8.52.78A34.86,34.86,0,0,0,197.71,260.08Z" transform="translate(-47 -47)"/><path d="M212.39,267.92a6.94,6.94,0,0,1-3.46-.89,5.63,5.63,0,0,1,1.59-10.49,7,7,0,0,1,6.53,2.12,1.67,1.67,0,0,1,.23.23,4.84,4.84,0,0,1,1.23,2,5.19,5.19,0,0,1-1.07,5,6.32,6.32,0,0,1-3,1.73A7.53,7.53,0,0,1,212.39,267.92Zm-.48-9.54a4.17,4.17,0,0,0-.94.11,3.63,3.63,0,0,0-1,6.81,5.29,5.29,0,0,0,4,.41,4.39,4.39,0,0,0,2-1.16,3.21,3.21,0,0,0,.65-3.07,2.89,2.89,0,0,0-.76-1.19l-.11-.12-.12-.12A5.19,5.19,0,0,0,211.91,258.38Z" transform="translate(-47 -47)"/><path class="cls-5" d="M191.32,334.53c-5.94,0-16.71-6.52-16.83-6.6-3.71-2.32-7.56-4.91-10.2-8.69a27.09,27.09,0,0,1-3.9-9.25,41.94,41.94,0,0,1,.3-22.93,29.88,29.88,0,0,1,14.5-17.67,15.51,15.51,0,0,1,6.49-1.87,11.79,11.79,0,0,1,11.85,10.79c.28,4.84-2.4,8.92-5,12.87a50.84,50.84,0,0,0-3.24,5.38h0a22,22,0,0,0-1.53,14.77c1,4.12,3.41,7.46,6.19,11.09.32.42.75.92,1.22,1.46,1.86,2.15,4.17,4.81,4.1,7.22a3.19,3.19,0,0,1-1.66,2.95A4.88,4.88,0,0,1,191.32,334.53Zm-9.27-65h-.3a13.59,13.59,0,0,0-5.65,1.65,27.83,27.83,0,0,0-13.5,16.5,40,40,0,0,0-.28,21.83,25.67,25.67,0,0,0,3.6,8.59c2.44,3.48,6.09,5.93,9.63,8.15,3.86,2.41,14.29,7.57,17.11,6.05.28-.15.6-.42.62-1.24,0-1.64-2.16-4.17-3.62-5.86-.51-.58-1-1.11-1.3-1.55-2.92-3.81-5.42-7.33-6.55-11.82a24,24,0,0,1,1.69-16.13h0a49,49,0,0,1,3.36-5.61c2.53-3.85,4.92-7.47,4.68-11.66A9.9,9.9,0,0,0,182.05,269.52Zm2.34,26.6h0Z" transform="translate(-47 -47)"/><path class="cls-4" d="M162.44,162.69a39.2,39.2,0,0,0-10.19-6.24c-2.36-1-4.81-1.74-7.1-2.9a44.93,44.93,0,0,1-8.51-6.11c-1.76,1.71-1.18,4.63-.29,6.92a31.14,31.14,0,0,0,4,7.55c1.73,2.32,3.88,4.3,5.62,6.61s3.09,5.13,2.82,8a11.06,11.06,0,0,0-6.21-3.08c-2.34-.18-4.91,1-5.69,3.25a13.71,13.71,0,0,1,10.21,11.17,4.57,4.57,0,0,1-.63,3.48,3,3,0,0,1-3.42.81,3.46,3.46,0,0,1-2-3,8.73,8.73,0,0,0,1,8.65,14.14,14.14,0,0,1,2.1,2.88,7.57,7.57,0,0,1,.34,3.35q-.19,3.3-.57,6.57c-.13,1.06.1,2.57,1.17,2.55a1.77,1.77,0,0,0,1-.48,29.11,29.11,0,0,0,2.39-2.19c6.29-6.23,12.44-12.53,17.47-19.85,3.9-5.66,6.33-10,4.21-17.14C168.88,169.18,165.85,165.57,162.44,162.69Z" transform="translate(-47 -47)"/><path class="cls-4" d="M145.07,214.19a1.9,1.9,0,0,1-1.45-.64,4.15,4.15,0,0,1-.7-3c.25-2.14.44-4.33.57-6.51a6.57,6.57,0,0,0-.27-2.9,7,7,0,0,0-1.21-1.74c-.26-.3-.53-.61-.77-.93a9.7,9.7,0,0,1-1.08-9.66,1,1,0,0,1,1.1-.57,1,1,0,0,1,.81.93,2.46,2.46,0,0,0,1.4,2.1,2,2,0,0,0,2.25-.51,3.52,3.52,0,0,0,.42-2.72,12.75,12.75,0,0,0-9.44-10.33,1,1,0,0,1-.65-.5,1,1,0,0,1-.07-.81c1-2.83,4.13-4.11,6.71-3.91a10.24,10.24,0,0,1,5,1.94,12.78,12.78,0,0,0-2.53-5.28c-.82-1.1-1.78-2.16-2.71-3.18s-2-2.21-2.91-3.43a32,32,0,0,1-4.16-7.79c-1.38-3.55-1.2-6.32.53-8a1,1,0,0,1,1.34,0,44.42,44.42,0,0,0,8.31,6,42.84,42.84,0,0,0,4.38,1.83c.89.34,1.78.67,2.66,1a40.17,40.17,0,0,1,10.45,6.4h0c4.15,3.51,6.86,7.32,8,11.32,2.26,7.57-.37,12.23-4.34,18-5.11,7.44-11.24,13.7-17.59,20a30.09,30.09,0,0,1-2.48,2.27,2.62,2.62,0,0,1-1.6.69Zm-3.7-22a7.74,7.74,0,0,0,1.47,5.07c.22.29.45.56.68.83a8.26,8.26,0,0,1,1.55,2.28,8.39,8.39,0,0,1,.41,3.78c-.13,2.21-.32,4.44-.57,6.63a2.2,2.2,0,0,0,.2,1.46s.07-.06.36-.29a27.24,27.24,0,0,0,2.31-2.12c6.29-6.22,12.34-12.41,17.35-19.7,3.77-5.47,6.08-9.55,4.08-16.29-1.07-3.63-3.56-7.11-7.41-10.36h0a37.77,37.77,0,0,0-9.93-6.08c-.86-.36-1.73-.69-2.59-1a47.25,47.25,0,0,1-4.58-1.91,41.85,41.85,0,0,1-7.88-5.55c-.68,1.42-.16,3.49.47,5.1a30.1,30.1,0,0,0,3.89,7.31c.86,1.14,1.84,2.23,2.79,3.29s1.95,2.15,2.83,3.32c2.27,3,3.28,6,3,8.71a1,1,0,0,1-.63.83,1,1,0,0,1-1-.18,10,10,0,0,0-5.63-2.83,5,5,0,0,0-4.13,1.63,14.7,14.7,0,0,1,9.73,11.66,5.4,5.4,0,0,1-.84,4.24,3.94,3.94,0,0,1-4.6,1.1A4,4,0,0,1,141.37,192.17Z" transform="translate(-47 -47)"/><path d="M254.15,313.6a33.94,33.94,0,0,1-3.6-.24c-.44-.05-.79-.09-1-.1a1,1,0,0,1-1-1,1,1,0,0,1,1-1c.26,0,.67.05,1.19.11,2,.21,6,.65,8.2-.91a6.13,6.13,0,0,0,1.54-1.72l.22-.33c.45-.66.87-1.39,1.27-2.1l.07-.11a83.84,83.84,0,0,0,4.12-7.87c.83-1.92,1-3.18.48-4.11a3.18,3.18,0,0,0-2-1.36c-1-.23-11-.6-15.11-.6a1,1,0,1,1,0-2c3.45,0,14.3.33,15.61.66a5.07,5.07,0,0,1,3.26,2.34c1.08,2,.29,4.29-.4,5.86a79.88,79.88,0,0,1-4.22,8.07l-.06.11c-.42.74-.86,1.51-1.36,2.24l-.21.31a7.86,7.86,0,0,1-2,2.22A10.31,10.31,0,0,1,254.15,313.6Z" transform="translate(-47 -47)"/><path d="M245.5,313.59a9.29,9.29,0,0,1-5.53-1.52l-.56-.4a8.55,8.55,0,0,1-2.22-2c-.52-.76-1-1.55-1.41-2.32a82.7,82.7,0,0,1-4.23-8.09c-.75-1.71-1.46-3.93-.4-5.86a5,5,0,0,1,3.26-2.34c3.14-.8,11.63-.84,15.15-.83l2,0a1,1,0,0,1,0,2h0l-2,0c-2.68,0-11.65,0-14.65.77a3.08,3.08,0,0,0-2,1.37c-.64,1.17-.08,2.8.48,4.1a82.87,82.87,0,0,0,4.12,7.87c.45.78.87,1.51,1.34,2.2a7.21,7.21,0,0,0,1.73,1.49l.58.42c2.1,1.53,5.29,1.15,7.19.92.5-.06.91-.11,1.19-.12a1,1,0,0,1,1,1,1,1,0,0,1-1,1c-.24,0-.58.05-1,.1A24.66,24.66,0,0,1,245.5,313.59Z" transform="translate(-47 -47)"/><path d="M249.51,337.26c-5,0-12.22-2.75-15.75-7.39a1,1,0,0,1,1.59-1.21c3.12,4.09,9.76,6.6,14.16,6.6h0c4.56,0,11.12-2.49,14.21-6.6a1,1,0,1,1,1.59,1.2c-3.58,4.78-10.81,7.38-15.79,7.4Z" transform="translate(-47 -47)"/><path class="cls-5" d="M249.49,351.6c-8,0-19.88-5-27.64-11.55a31,31,0,0,1-6.14-6.85,1,1,0,0,1,.27-1.39.92.92,0,0,1,1.31.28,28.43,28.43,0,0,0,5.75,6.4c7.46,6.36,18.8,11.12,26.44,11.12h.12c6.76-.05,19.33-4.18,27.85-10.79a26.44,26.44,0,0,0,6.37-6.72.92.92,0,0,1,1.31-.29,1,1,0,0,1,.27,1.38,28.48,28.48,0,0,1-6.83,7.24c-8.95,6.93-21.75,11.13-28.95,11.17Z" transform="translate(-47 -47)"/><path class="cls-5" d="M380.65,278.79l-.21,0c-.72-.12-2.24-.26-3.72-.4a36.89,36.89,0,0,1-4.05-.47,19,19,0,0,1-2.45-.88,25.48,25.48,0,0,1-4.63-2.73,56.31,56.31,0,0,1-12.68-12.54,1,1,0,0,1,1.31-1.45A21.56,21.56,0,0,0,362,263c-3.13-3.73-6.32-7.91-8-12.77a46.15,46.15,0,0,1-1.28-4.95c-.71-3.23-1.38-6.28-3.24-8.72a1,1,0,0,1-.08-1.08,1,1,0,0,1,.95-.52,9.52,9.52,0,0,1,5,2c-2.71-7.58-9.81-15.54-17.24-18.77a1,1,0,0,1,.61-1.89l.08-.23a.93.93,0,0,1,.19.07,92.24,92.24,0,0,0,9.2,2.84c-2-2.57-3.81-5.32-5.56-8-1.54-2.36-3.14-4.81-4.86-7.08-6.38-8.4-14.85-15.22-23-21.82a207.66,207.66,0,0,1-15.88-13.71,1,1,0,0,1-.25-1,1,1,0,0,1,.79-.68c3.69-.63,7.45.25,10.76,1a12.64,12.64,0,0,1,2.37.74,25.09,25.09,0,0,1,1.92-5c.88-1.8,3.29-6.27,6.48-8.7,13.25-10.11,30.31-14.09,45.37-17.6a12.29,12.29,0,0,1,4.42-.45c3.33.46,5.53,3.24,6.48,5.69a20,20,0,0,1,1.08,6.89c.12,4.88.16,9.82.12,14.69,0,1.34,0,2.68,0,4,0,10.6-.08,21.56-3.75,31.66a85.15,85.15,0,0,1-6.11,12.57,1.07,1.07,0,0,0-.07.91,11.15,11.15,0,0,0,4.85,5.39,38.15,38.15,0,0,0,6.37,2.81l2,.73c1.05.4,1.62,1,1.68,1.81.09,1-.69,1.84-2,2.16a15.47,15.47,0,0,1-6.1.26A32,32,0,0,0,391,243.94a1,1,0,0,1-.15,1.85,29.14,29.14,0,0,1-26.11-5.17,92,92,0,0,0,16.84,36.27,1.18,1.18,0,0,1-.93,1.9Zm.12-2h0Zm-23.64-12.94a54.84,54.84,0,0,0,9.62,8.8,24.56,24.56,0,0,0,4.27,2.53,16.44,16.44,0,0,0,2.19.78c.39.11,2.3.28,3.69.41l1.93.18A93.83,93.83,0,0,1,362.18,238a1,1,0,0,1,.52-1.06,1,1,0,0,1,1.18.18,27.07,27.07,0,0,0,23.94,7.33,34,34,0,0,1-15-19.3,1,1,0,0,1,1.22-1.25,13.41,13.41,0,0,0,6.86.1l.27-.08-.18-.07-1.94-.73a39.1,39.1,0,0,1-6.71-3,12.89,12.89,0,0,1-5.71-6.43,3.13,3.13,0,0,1,.21-2.56,82.74,82.74,0,0,0,6-12.28c3.55-9.76,3.59-20.55,3.63-31,0-1.35,0-2.7,0-4,0-4.85,0-9.77-.12-14.62a18.05,18.05,0,0,0-.95-6.21,6.65,6.65,0,0,0-4.88-4.44,10.5,10.5,0,0,0-3.7.42c-14.86,3.46-31.7,7.39-44.61,17.24-2,1.5-4.18,4.49-5.9,8a21.16,21.16,0,0,0-1.84,5,1.58,1.58,0,0,1-2.34,1.15,9.31,9.31,0,0,0-2.27-.76,33.41,33.41,0,0,0-8-1.22c4.48,4.26,9.4,8.22,14.17,12.06,8.28,6.67,16.85,13.58,23.37,22.17,1.77,2.33,3.38,4.81,4.95,7.2A80.35,80.35,0,0,0,351.69,220a1,1,0,0,1-1,1.64c-1.76-.38-3.51-.82-5.25-1.3,6.73,5.29,12,13.43,12.95,20.62a1,1,0,0,1-1.91.52,7.71,7.71,0,0,0-4.09-3.93,31.09,31.09,0,0,1,2.28,7.36,46.51,46.51,0,0,0,1.21,4.75c1.79,5.32,5.71,9.91,9.17,14a1,1,0,0,1,.13,1.09,1,1,0,0,1-.93.56A23.37,23.37,0,0,1,357.13,263.86ZM312.47,169h0Z" transform="translate(-47 -47)"/><path class="cls-5" d="M280.33,334.59a18.67,18.67,0,0,1-4.67-.58,45.31,45.31,0,0,1-11.45-5.15c-1.42-.84-2.82-1.72-4.24-2.6a90.9,90.9,0,0,0-10.82-6.08,1,1,0,0,1,.81-1.83A93.71,93.71,0,0,1,261,324.56c1.4.87,2.8,1.74,4.2,2.57a43.83,43.83,0,0,0,10.92,4.95,18,18,0,0,0,9.91-.4,19.53,19.53,0,0,0,8.66-5.55,22.93,22.93,0,0,0,5.1-19.27,28.22,28.22,0,0,0-11-17.1,64.9,64.9,0,0,0-6.38-4A59.11,59.11,0,0,1,275,281c-3.13-2.5-5.12-6.62-6.65-10.31-.35-.85-.66-1.7-1-2.55-.41-1.12-.83-2.28-1.33-3.37a11.9,11.9,0,0,0-3.42-4.72c-2.72-2.08-9.35-3.76-13-3.76a1,1,0,0,1,0-2c4.17,0,11.14,1.79,14.25,4.17a13.81,13.81,0,0,1,4,5.48c.52,1.16,1,2.35,1.38,3.51.3.83.6,1.66.94,2.47,1.43,3.46,3.27,7.3,6,9.51A55.29,55.29,0,0,0,283.4,284a68,68,0,0,1,6.57,4.13,30.25,30.25,0,0,1,11.82,18.34,25,25,0,0,1-5.58,21,21.65,21.65,0,0,1-9.54,6.12A20.87,20.87,0,0,1,280.33,334.59Z" transform="translate(-47 -47)"/><path class="cls-5" d="M219.48,334.13a20.25,20.25,0,0,1-5-.63A21.71,21.71,0,0,1,203.6,327,25,25,0,0,1,198,306a30.34,30.34,0,0,1,11.82-18.34,66.9,66.9,0,0,1,6.58-4.13,57,57,0,0,0,7.18-4.62c2.77-2.2,4.61-6,6.05-9.51.35-.84.66-1.7,1-2.55.42-1.13.84-2.3,1.35-3.43a14,14,0,0,1,4-5.48c3-2.31,9.26-3.7,13.54-3.7a1,1,0,0,1,0,2c-3.87,0-9.68,1.26-12.33,3.29a11.88,11.88,0,0,0-3.42,4.72c-.49,1.06-.9,2.19-1.3,3.28-.32.88-.64,1.77-1,2.64-1.54,3.7-3.53,7.82-6.65,10.31a60.25,60.25,0,0,1-7.44,4.79,63.07,63.07,0,0,0-6.38,4,28.26,28.26,0,0,0-11,17.1,23,23,0,0,0,5.1,19.28,19.72,19.72,0,0,0,9.88,5.89,17.76,17.76,0,0,0,8.69.06A41.08,41.08,0,0,0,233.82,327c1.45-.86,2.9-1.77,4.33-2.66a65.8,65.8,0,0,1,11-6,1,1,0,1,1,.71,1.87,64.52,64.52,0,0,0-10.7,5.84c-1.44.91-2.9,1.82-4.38,2.69a42.54,42.54,0,0,1-10.68,4.82A18.67,18.67,0,0,1,219.48,334.13Z" transform="translate(-47 -47)"/><path d="M249.47,323.26h0c-.55,0-1-.66-1-1.45l.16-8.77a1.26,1.26,0,0,1,1-1.38c.55,0,1,.67,1,1.45l-.16,8.77C250.46,322.65,250,323.26,249.47,323.26Z" transform="translate(-47 -47)"/></g></svg>