<svg id="Слой_3" data-name="Слой 3" xmlns="http://www.w3.org/2000/svg" viewBox="0 0 564.86 176"><defs><style>.cls-1{fill:#c43030;}.cls-2{fill:#1f1f1f;}.cls-3{fill:#fcfcfc;}.cls-4{fill:#161616;}.cls-5{fill:#fff;}.cls-6{fill:#9b0000;}.cls-7{fill:#f9f9f9;}</style></defs><text x="-2.05" y="-144"/><path class="cls-1" d="M231.58,191.19h3.26a23.69,23.69,0,0,1,6.37.78L240,200.52l-4-2a25,25,0,0,0-10.25-1.87h-1.24q-6.06,0-6.06,1.7a25.23,25.23,0,0,0-.78,7v4.35l.16,1.09a20.74,20.74,0,0,1,11.19-3.25h.77a30,30,0,0,1,8.24.94l-2.34,8.07q-5.94-4.5-12.12-4.51h-.31a13.27,13.27,0,0,0-5.28,1.08,61.33,61.33,0,0,0,4.18,15.07l2,4.82-9.79,4a66.44,66.44,0,0,1-1.86-14.91v-4.66q0-11,4.21-18.8l.16-.46h-.16l-2.8.92v-.15q3-3.72,5-4.5c.36-.73.62-1.09.78-1.09l.15.62A25.52,25.52,0,0,1,231.58,191.19Z" transform="translate(-2.05 -144)"/><path class="cls-1" d="M258.4,208.18q1.25,3.39,1.24,10.72v.47q0,8.5-5.6,17.71h-.31l.16-8.55q0-11.19-2.47-18.33Zm-1.69-15.07a10.8,10.8,0,0,1,1.24,4.66v.16a8.44,8.44,0,0,1-3.89,7h-.16q0-1.83-2.32-8.86Z" transform="translate(-2.05 -144)"/><path class="cls-1" d="M288.47,204.64l.15.15-1.87,7.92h-.16c-2-1.86-3.95-2.8-5.9-2.8-1.76.29-2.64.54-2.64.78a28.94,28.94,0,0,1,1.39,8.39q0,9-5.61,18h-.31a56.28,56.28,0,0,0,.79-7.76,38.58,38.58,0,0,0-5.73-20.52c.13-.25,2.15-1.6,6.06-4h.15a15.86,15.86,0,0,1,2.8,5h.15q2.14-5.12,9.64-5.11Z" transform="translate(-2.05 -144)"/><path class="cls-1" d="M311,204.34l-2.17,1.87h.15l2.49-.47h1.09c3.65,0,6,1.25,7,3.74a11.37,11.37,0,0,1,1.4,4.51v.15c0,3.11-2.49,5.85-7.47,8.23a45.14,45.14,0,0,1-7.46,2.32q4.13,5.13,9.79,5.14h3.1l1.56-.15v.15l-6.84,7a25,25,0,0,1-8.55-3.27,15.74,15.74,0,0,1-6.82-8.09,6.58,6.58,0,0,1-.31-2.48v-.47q0-10.53,8.24-16.15Q309.6,204.38,311,204.34Zm-7.46,11.81a14.48,14.48,0,0,0,1.85,7.61q7.94-4.72,7.94-10.25v-.93c-.34-3.52-1.94-5.28-4.82-5.29h-.77Q303.49,211.52,303.49,216.15Z" transform="translate(-2.05 -144)"/><path class="cls-1" d="M337.14,191.47h.31a50.86,50.86,0,0,0-1.87,12.74v2.95a49.31,49.31,0,0,0,7.59,26.58q0,.3-9.79,3.41a65.16,65.16,0,0,1-2.62-17.56v-3.73A52.53,52.53,0,0,1,337.14,191.47ZM357,204.54l.15.16v.15q0,12.78-9.18,16.93a18.61,18.61,0,0,1-5.75,1.39l-5.58-9.64H337a13,13,0,0,0,5.9,2h1.86q5.91,0,11.35-9.16C356.5,205.16,356.81,204.54,357,204.54Zm-7.76-13.06c3.29.84,5.56,2.13,6.83,3.89a20.87,20.87,0,0,1,2.33,7.62h-.32c-1.37-3.32-3.07-5-5.12-5h-1.4q-3.6,0-10.88,7.91-4-7.6-4-8.54Q343.36,191.47,349.26,191.48Z" transform="translate(-2.05 -144)"/><path class="cls-1" d="M385.79,205h.31q.07,9.21,5.26,28.59l-6.84,2.95a16.38,16.38,0,0,1-1.23-5.44l-6.54,6.05a15.64,15.64,0,0,1-6.67-6.68,12.92,12.92,0,0,1-1.24-4.82v-.47q0-9.47,5.3-14.13,5.63-3.57,8.86-3.56v.31a8.9,8.9,0,0,0-5.14,3.88,10.92,10.92,0,0,0-2.8,7.76V222a10.4,10.4,0,0,0,3.88,8.54l1.08.32H381a3.71,3.71,0,0,0,2.17-.93L383,228v-1.4A83.07,83.07,0,0,1,385.79,205Z" transform="translate(-2.05 -144)"/><path class="cls-1" d="M400.59,207.69h.15a42.88,42.88,0,0,1,4.81,6.68q2.07-3.72,7.62-5.74h.16l2.32,2.8v.15h-.46q9.46,6.3,9.46,16.48v2.17c-.21,4.25-.53,6.37-.94,6.37a59.85,59.85,0,0,1-6.83-.62,89.94,89.94,0,0,0,.63-11.5q0-8-3.72-12.59-3.15.51-7.77,3.72a34.93,34.93,0,0,1,3.71,15.7v3.42c0,1.65-.16,2.48-.47,2.48q-7.61-.32-7.61-.63a59.57,59.57,0,0,0,.94-9.78v-4.66A65,65,0,0,0,400.59,207.69Z" transform="translate(-2.05 -144)"/><path class="cls-1" d="M449.92,193.55q2.49,1.9,6.05,12.44a41.47,41.47,0,0,1,1.55,10.41v2.48a29.23,29.23,0,0,1-5.91,17.24H453v.31h-.77a1.88,1.88,0,0,0-1.87,1.4H450l.31-1.24h-2.79q-8.4,0-12.58-7.77a14.83,14.83,0,0,1-1.24-5.6V221c0-4,1.93-8,5.76-12.12l2.18-1.39a39.18,39.18,0,0,1,8.07,3.42v-.15a49.06,49.06,0,0,0-5.58-10.73l-.78-1.09v-.15Zm-9.19,29.36v.62q0,5.47,4.65,10.26,3.11,2.33,5.13,2.33a51.54,51.54,0,0,0,1.41-10.1v-3.1a43,43,0,0,0-1.55-10.26h-1.24q-5.4,0-7.77,5.74A14.66,14.66,0,0,0,440.73,222.91Z" transform="translate(-2.05 -144)"/><path class="cls-1" d="M483.82,205.12h.31q.08,9.19,5.26,28.59l-6.84,2.94a16.38,16.38,0,0,1-1.24-5.44l-6.53,6.06a15.65,15.65,0,0,1-6.67-6.69,12.87,12.87,0,0,1-1.24-4.82v-.46q0-9.48,5.29-14.13,5.64-3.57,8.86-3.57v.31a8.91,8.91,0,0,0-5.13,3.88,10.93,10.93,0,0,0-2.8,7.77V222a10.42,10.42,0,0,0,3.88,8.55l1.09.31H479a3.73,3.73,0,0,0,2.18-.93l-.16-1.86v-1.4A83,83,0,0,1,483.82,205.12Z" transform="translate(-2.05 -144)"/><path class="cls-2" d="M338.22,241.49l.11.1v.11l-.64,1.92h.11a6.66,6.66,0,0,1,3.73-1q4.34,0,8.76,4.27,4.06,5.23,4.06,8.66v.1q0,.27-5.34,1.5v-.11a29.8,29.8,0,0,0-2.35-6.94q-1.85-3.7-7.48-5.56l-1.6-.21h-.1a29.14,29.14,0,0,0-1,7.59v1.7q0,7.32,4.17,15.92L334.27,273a38.47,38.47,0,0,1-1.39-9.83v-2.24a38,38,0,0,1,5.24-19.44ZM353.71,257h.11c.21,0,.32.75.32,2.25q0,9.86-10.26,13.56l-3.2.75-.11-.11,1-7.69h1a11.16,11.16,0,0,0,9.71-5.12A7.57,7.57,0,0,0,353.71,257Z" transform="translate(-2.05 -144)"/><path class="cls-2" d="M370,251l-1.49,1.29h.1l1.71-.32H371q3.76,0,4.81,2.56a7.79,7.79,0,0,1,1,3.1v.1q0,3.21-5.13,5.66a31.11,31.11,0,0,1-5.13,1.61,8.44,8.44,0,0,0,6.73,3.52h2.14l1.07-.11v.11l-4.7,4.81a17.12,17.12,0,0,1-5.88-2.25,10.8,10.8,0,0,1-4.7-5.55,4.63,4.63,0,0,1-.21-1.71v-.32a12.66,12.66,0,0,1,5.66-11.11A9,9,0,0,1,370,251Zm-5.13,8.12a9.92,9.92,0,0,0,1.29,5.23q5.44-3.25,5.44-7v-.64q-.35-3.63-3.31-3.63h-.53A8.66,8.66,0,0,0,364.84,259.11Z" transform="translate(-2.05 -144)"/><path class="cls-2" d="M388.34,244.37h.11A34.47,34.47,0,0,1,391.76,259v1.07q0,8.1-3.53,13.25h-.1a31.33,31.33,0,0,0,.32-4.28v-.21a46.76,46.76,0,0,0-5-21.36l-.22-.75Z" transform="translate(-2.05 -144)"/><path class="cls-2" d="M403,253.66a23.14,23.14,0,0,1,.85,7.37v.32A23.53,23.53,0,0,1,400,273.53h-.22l.11-5.87a39,39,0,0,0-1.71-12.61Zm-1.17-10.36a7.48,7.48,0,0,1,.85,3.21v.1a5.78,5.78,0,0,1-2.67,4.81h-.11a27.94,27.94,0,0,0-1.6-6.09Z" transform="translate(-2.05 -144)"/><path class="cls-2" d="M414.91,252.81h.1q1.82,3.94,1.82,12a45,45,0,0,1-.43,5.66h.11A12.92,12.92,0,0,0,421.42,260v-.32a27.77,27.77,0,0,0-.64-5.88c0-.18,1.71-.46,5.13-.85v.1l.32,3.21v2a13,13,0,0,1-7.16,12.17l-2.88,1a3.52,3.52,0,0,1-.64,1.93h-.11v-.11q0-2.4-3.31-13.35a56.75,56.75,0,0,0-2.56-5.24A35.58,35.58,0,0,1,414.91,252.81Z" transform="translate(-2.05 -144)"/><path class="cls-2" d="M441.53,251l-1.5,1.29h.11l1.71-.32h.75q3.76,0,4.8,2.56a7.84,7.84,0,0,1,1,3.1v.1q0,3.21-5.13,5.66a31.11,31.11,0,0,1-5.13,1.61,8.44,8.44,0,0,0,6.73,3.52H447l1.06-.11v.11l-4.69,4.81a17.12,17.12,0,0,1-5.88-2.25,10.8,10.8,0,0,1-4.7-5.55,4.63,4.63,0,0,1-.21-1.71v-.32a12.64,12.64,0,0,1,5.66-11.11A9,9,0,0,1,441.53,251Zm-5.13,8.12a10,10,0,0,0,1.28,5.23q5.46-3.25,5.45-7v-.64q-.35-3.63-3.31-3.63h-.53A8.62,8.62,0,0,0,436.4,259.11Z" transform="translate(-2.05 -144)"/><path class="cls-2" d="M468,251.21l.11.1-1.28,5.45h-.11a6,6,0,0,0-4.06-1.92c-1.21.2-1.81.37-1.81.53a20.13,20.13,0,0,1,1,5.77A23.38,23.38,0,0,1,458,273.53h-.21a37.68,37.68,0,0,0,.53-5.34,26.38,26.38,0,0,0-3.95-14.1,34.51,34.51,0,0,1,4.17-2.78h.1a10.75,10.75,0,0,1,1.93,3.42h.1q1.47-3.53,6.63-3.52Z" transform="translate(-2.05 -144)"/><path class="cls-2" d="M476.77,275.83l.11.1-.11.11V278a3.33,3.33,0,0,0,1.82,3.31v.32a7.47,7.47,0,0,1-2.67.75h-.85c-1.22,0-1.93-1.1-2.14-3.31v-.53A25.57,25.57,0,0,1,476.77,275.83Zm14-23.18h.1l.11,4.81v.85a32.36,32.36,0,0,1-5.45,17.94q-4.35,5.37-7.37,6.31,4.33-4.51,5.34-8l.43-1.38-1.6.1h-.43q-4.56,0-6-6.94a27.22,27.22,0,0,1-.43-4.81v-1q.13-6.41.54-6.41l5.12-.42.11.1v.11a63.43,63.43,0,0,0-1,8.33v1.5l-.11.1.11.11V265q0,6.22,3.31,7.26l.53.11a38.4,38.4,0,0,0,1.5-9.93V258l-.32-3.74A48.14,48.14,0,0,1,490.77,252.65Z" transform="translate(-2.05 -144)"/><ellipse class="cls-2" cx="88.52" cy="88" rx="88.52" ry="88"/><path class="cls-1" d="M129.22,217.71l0,.1c3.82,1.65,7.72,6.2,8.23,10.31a3.79,3.79,0,0,0-3.11-2.2c1.31,1.71,1.36,4,2,6.06a19.37,19.37,0,0,0,4.08,6.19,9.89,9.89,0,0,1-4.63-1.33,24.35,24.35,0,0,0,5.43,5.34,11.15,11.15,0,0,0,1.94,1.14l0,.07c-.09,2.06,1.08,4.81,2.15,6.58a16.37,16.37,0,0,0,4.43,5.42c.55.38,1.24,1,.92,1.57s-.91.44-1.43.34a20,20,0,0,1-5.54-2c2.33,1.75,2.87,5,3,7.89a16.49,16.49,0,0,1-.53,5.47c-.86,2.75-2.86,5-4.81,7.1a17.4,17.4,0,0,0-6-11,3,3,0,0,0-2.29-.93,14.55,14.55,0,0,1,2.69,9.41,1.1,1.1,0,0,1-.18.69c-.34.42-1,.21-1.48,0-3-1.55-6-3.4-9.42-3.73a3.51,3.51,0,0,0-3.08.87,6.2,6.2,0,0,1,1.48,1.28,2.29,2.29,0,0,1,.78,1.88,24.17,24.17,0,0,0-7.3-1.26,7.86,7.86,0,0,1,.65,3.45c-1.9-.73-3.63-1.84-5.48-2.68s-6.65-3-8.64-2.54a10.24,10.24,0,0,0,2.61-3l.79-.27a9,9,0,0,0,4-2.53,10.28,10.28,0,0,0,2.33-8.72,12.66,12.66,0,0,0-5-7.68c-1.91-1.41-4.15-2.33-6-3.81A10.75,10.75,0,0,1,99,240.79c-.35-.86-.62-1.74-1-2.58A5.48,5.48,0,0,0,96.33,236a12.27,12.27,0,0,0-6-1.72,11.07,11.07,0,0,0-5.64,1.51A5.73,5.73,0,0,0,83.11,238c-.38.84-.65,1.72-1,2.57a10.59,10.59,0,0,1-2.76,4.3c-1.86,1.47-4.11,2.39-6,3.8a12.72,12.72,0,0,0-5,7.68,10.29,10.29,0,0,0,2.33,8.73,9,9,0,0,0,4.53,2.69l.79-.12a11.32,11.32,0,0,0,2.18,3l-.44.43c-2.18,0-6,1.74-7.81,2.58s-3.58,2-5.49,2.69a7.91,7.91,0,0,1,.66-3.46,24.17,24.17,0,0,0-7.3,1.26,2.29,2.29,0,0,1,.78-1.88A5.73,5.73,0,0,1,60,271.05a3.47,3.47,0,0,0-3.08-.87c-3.39.32-6.39,2.18-9.42,3.72-.47.25-1.14.45-1.47,0a1.12,1.12,0,0,1-.19-.7,14.52,14.52,0,0,1,2.7-9.4,3,3,0,0,0-2.29.92,17.41,17.41,0,0,0-6,11c-1.94-2.13-3.94-4.35-4.8-7.1a16.55,16.55,0,0,1-.53-5.48c.09-2.9.62-6.14,3-7.88a19.58,19.58,0,0,1-5.55,2c-.51.1-1.18.12-1.42-.33s.37-1.2.92-1.57A16.83,16.83,0,0,0,36.3,250c1.07-1.78,2.24-4.52,2.14-6.59l0-.07a10.62,10.62,0,0,0,2-1.14,23.89,23.89,0,0,0,5.42-5.34,9.9,9.9,0,0,1-4.62,1.34,19.75,19.75,0,0,0,4.08-6.2c.68-2,.72-4.35,2-6.05a3.79,3.79,0,0,0-3.11,2.2c.52-4.11,4.42-8.67,8.24-10.32l0-.09A39.74,39.74,0,0,1,47,219.31c2.07-2.28,3.5-5.06,5.38-7.52,4.64-6.07,11.55-10.08,17-15.44a11.4,11.4,0,0,0-4.52.44,4.6,4.6,0,0,0-1.14.38.25.25,0,0,1-.38-.19,9.78,9.78,0,0,0-.94-2.5l.46,0c.44-.86,1.72-1.28,2.69-1.71a2.9,2.9,0,0,0,1.57-1.23c.28-.61-.14-1.54-.81-1.44a5.15,5.15,0,0,1,5.42.55c.15.12.33.26.51.21a.55.55,0,0,0,.34-.31l2.21-3.43c.54,1,1.9,1.27,3.06,1.16a2.81,2.81,0,0,0,2.05-.94,1.25,1.25,0,0,0-.49-1.9c2.27-.57,9.61-.06,11.36,1.67l0,0c1.74-1.73,9.09-2.24,11.35-1.67a1.24,1.24,0,0,0-.48,1.9,2.79,2.79,0,0,0,2,.93A3,3,0,0,0,106.8,187l2.2,3.44c.08.13.18.28.34.31a.65.65,0,0,0,.52-.22,5.19,5.19,0,0,1,5.42-.55c-.67-.09-1.1.84-.81,1.45a2.89,2.89,0,0,0,1.57,1.22c1,.44,2.25.85,2.68,1.72l.37.25a9.39,9.39,0,0,0-.85,2.29.26.26,0,0,1-.38.19,3.94,3.94,0,0,0-1.13-.38,11.61,11.61,0,0,0-4.52-.45c5.45,5.37,12.37,9.38,17,15.45,1.87,2.45,3.3,5.23,5.37,7.52A38.77,38.77,0,0,1,129.22,217.71Zm.45,40.15a17.79,17.79,0,0,0-.13-9.71,12.56,12.56,0,0,0-6.11-7.4,6.33,6.33,0,0,0-2.64-.76,4.72,4.72,0,0,0-4.72,4.26c-.17,2.87,2.28,5.12,3.55,7.7a9.88,9.88,0,0,1,.7,6.7,13.8,13.8,0,0,1-2.78,5c-.63.82-2.26,2.35-2.23,3.48.07,3,7.33-1.07,8.4-1.73a14.25,14.25,0,0,0,4.32-3.65A11.69,11.69,0,0,0,129.67,257.86ZM116.9,230.62c.11-2.11-1.84-3.89-3.91-4.35a13.82,13.82,0,0,0-6.3.55c-.32-1.23,1.86-1.93,1.75-3.2a6.32,6.32,0,0,0-5.24.57A11,11,0,0,0,99.43,228c-1.15,1.82-2.94,8,1.56,6.35a17.63,17.63,0,0,0,2.67-1.65,11.42,11.42,0,0,1,6.09-1.21,42.48,42.48,0,0,0,6.28.06,1.14,1.14,0,0,0,.58-.19A1,1,0,0,0,116.9,230.62Zm-3.66,8.83a5.86,5.86,0,0,0,1-3.35,15.76,15.76,0,0,0-3.51-2,6.84,6.84,0,0,0-4-.35,5.75,5.75,0,0,0-3.64,2.91,6.65,6.65,0,0,0-.5,4.66,7.39,7.39,0,0,0,5.77,1.3A8.86,8.86,0,0,0,113.24,239.45ZM80.6,234.39c4.5,1.66,2.7-4.53,1.56-6.35a11,11,0,0,0-3.78-3.81,6.26,6.26,0,0,0-5.23-.56c-.11,1.26,2.06,2,1.74,3.19a13.78,13.78,0,0,0-6.29-.55c-2.08.46-4,2.24-3.91,4.35a1,1,0,0,0,.28.74,1.18,1.18,0,0,0,.59.19,42.49,42.49,0,0,0,6.28-.05,11.32,11.32,0,0,1,6.09,1.21A17.56,17.56,0,0,0,80.6,234.39Zm-1.63,7a6.69,6.69,0,0,0-.5-4.66,5.79,5.79,0,0,0-3.64-2.92,7,7,0,0,0-4,.35,16.65,16.65,0,0,0-3.51,2,5.82,5.82,0,0,0,1,3.36,8.77,8.77,0,0,0,4.85,3.18A7.36,7.36,0,0,0,79,241.39ZM66.28,267.15c0-1.14-1.61-2.67-2.24-3.49a13.72,13.72,0,0,1-2.78-5A9.94,9.94,0,0,1,62,252c1.26-2.57,3.71-4.83,3.55-7.69A4.73,4.73,0,0,0,60.8,240a6.52,6.52,0,0,0-2.65.76,12.56,12.56,0,0,0-6.1,7.41,17.66,17.66,0,0,0-.13,9.7,11.42,11.42,0,0,0,1.64,3.87,14.41,14.41,0,0,0,4.32,3.65C58.94,266.07,66.2,270.11,66.28,267.15Z" transform="translate(-2.05 -144)"/><path class="cls-3" d="M151.87,229.76a12.25,12.25,0,0,1-12-3,40.25,40.25,0,0,0,7.68,17.19.07.07,0,0,1-.07.12c-.71-.12-3-.26-3.34-.36a8.68,8.68,0,0,1-1-.36,11.15,11.15,0,0,1-1.94-1.14,24.35,24.35,0,0,1-5.43-5.34,9.89,9.89,0,0,0,4.63,1.33,19.37,19.37,0,0,1-4.08-6.19c-.68-2-.73-4.35-2-6.06a3.79,3.79,0,0,1,3.11,2.2c-.51-4.11-4.41-8.66-8.23-10.31l0-.1a38.77,38.77,0,0,0,5.37,1.56c-2.07-2.29-3.5-5.07-5.37-7.52-4.64-6.07-11.56-10.08-17-15.45a11.61,11.61,0,0,1,4.52.45,3.94,3.94,0,0,1,1.13.38.26.26,0,0,0,.38-.19,9.39,9.39,0,0,1,.85-2.29,10.64,10.64,0,0,1,2.7-3.62c5.61-4.26,12.73-5.95,19.61-7.55a5.07,5.07,0,0,1,1.77-.19,3.33,3.33,0,0,1,2.48,2.2,8.45,8.45,0,0,1,.45,2.84c.05,2.12.07,4.23.05,6.35-.05,5.11.16,10.47-1.62,15.32a36.83,36.83,0,0,1-2.64,5.39.9.9,0,0,0-.06.75,5.19,5.19,0,0,0,2.3,2.56,22.94,22.94,0,0,0,3.71,1.57c.2.08.44.2.45.42s-.28.41-.54.47a6.39,6.39,0,0,1-3.22,0A14.28,14.28,0,0,0,151.87,229.76Zm-11.3-39.26c.38-1,.64-2.26-.13-3a19.29,19.29,0,0,1-3.71,2.65c-1,.5-2.07.83-3.1,1.25a17.29,17.29,0,0,0-4.44,2.71,10.23,10.23,0,0,0-3.37,4.7c-.92,3.09.14,5,1.84,7.43a60.35,60.35,0,0,0,7.62,8.6,11.71,11.71,0,0,0,1,.95.7.7,0,0,0,.44.21c.47,0,.57-.64.51-1.1q-.17-1.43-.24-2.85a3.22,3.22,0,0,1,.14-1.45,5.84,5.84,0,0,1,.92-1.25,3.8,3.8,0,0,0,.42-3.75,1.49,1.49,0,0,1-.88,1.28,1.29,1.29,0,0,1-1.49-.35,2,2,0,0,1-.27-1.5,6,6,0,0,1,4.45-4.85,2.43,2.43,0,0,0-2.48-1.41,4.88,4.88,0,0,0-2.71,1.34,5.17,5.17,0,0,1,1.23-3.47c.76-1,1.69-1.86,2.45-2.87A13.4,13.4,0,0,0,140.57,190.5Z" transform="translate(-2.05 -144)"/><path class="cls-4" d="M140.44,187.5c.77.74.51,2,.13,3a13.4,13.4,0,0,1-1.76,3.27c-.76,1-1.69,1.87-2.45,2.87a5.17,5.17,0,0,0-1.23,3.47,4.88,4.88,0,0,1,2.71-1.34,2.43,2.43,0,0,1,2.48,1.41,6,6,0,0,0-4.45,4.85,2,2,0,0,0,.27,1.5,1.29,1.29,0,0,0,1.49.35,1.49,1.49,0,0,0,.88-1.28,3.8,3.8,0,0,1-.42,3.75,5.84,5.84,0,0,0-.92,1.25,3.22,3.22,0,0,0-.14,1.45q.08,1.42.24,2.85c.06.46,0,1.11-.51,1.1a.7.7,0,0,1-.44-.21,11.71,11.71,0,0,1-1-.95,60.35,60.35,0,0,1-7.62-8.6c-1.7-2.45-2.76-4.34-1.84-7.43a10.23,10.23,0,0,1,3.37-4.7,17.29,17.29,0,0,1,4.44-2.71c1-.42,2.1-.75,3.1-1.25A19.29,19.29,0,0,0,140.44,187.5Z" transform="translate(-2.05 -144)"/><path class="cls-5" d="M129.54,248.15a17.79,17.79,0,0,1,.13,9.71,11.69,11.69,0,0,1-1.64,3.86,14.25,14.25,0,0,1-4.32,3.65c-1.07.66-8.33,4.69-8.4,1.73,0-1.13,1.6-2.66,2.23-3.48a13.8,13.8,0,0,0,2.78-5,9.88,9.88,0,0,0-.7-6.7c-1.27-2.58-3.72-4.83-3.55-7.7a4.72,4.72,0,0,1,4.72-4.26,6.33,6.33,0,0,1,2.64.76A12.56,12.56,0,0,1,129.54,248.15Z" transform="translate(-2.05 -144)"/><path class="cls-5" d="M113,226.27c2.07.46,4,2.24,3.91,4.35a1,1,0,0,1-.29.74,1.14,1.14,0,0,1-.58.19,42.48,42.48,0,0,1-6.28-.06,11.42,11.42,0,0,0-6.09,1.21,17.63,17.63,0,0,1-2.67,1.65c-4.5,1.66-2.71-4.53-1.56-6.35a11,11,0,0,1,3.77-3.81,6.32,6.32,0,0,1,5.24-.57c.11,1.27-2.07,2-1.75,3.2A13.82,13.82,0,0,1,113,226.27Z" transform="translate(-2.05 -144)"/><path d="M114.24,236.1a5.86,5.86,0,0,1-1,3.35,8.86,8.86,0,0,1-4.85,3.19,7.39,7.39,0,0,1-5.77-1.3,6.65,6.65,0,0,1,.5-4.66,5.75,5.75,0,0,1,3.64-2.91,6.84,6.84,0,0,1,4,.35A15.76,15.76,0,0,1,114.24,236.1Zm-4.46,1.12a2.15,2.15,0,0,0-1.65-2,2.66,2.66,0,0,0-2.45.81h0a.6.6,0,0,1-.08.08,1.7,1.7,0,0,0-.44.7,1.8,1.8,0,0,0,.37,1.75,2.31,2.31,0,0,0,1.09.63,2.69,2.69,0,0,0,2.08-.22A2.12,2.12,0,0,0,109.78,237.22Z" transform="translate(-2.05 -144)"/><path class="cls-6" d="M105.68,236a2.66,2.66,0,0,1,2.45-.81,2.15,2.15,0,0,1,1.65,2A2.12,2.12,0,0,1,108.7,239a2.69,2.69,0,0,1-2.08.22,2.31,2.31,0,0,1-1.09-.63,1.8,1.8,0,0,1-.37-1.75,1.7,1.7,0,0,1,.44-.7.6.6,0,0,0,.08-.08Z" transform="translate(-2.05 -144)"/><path class="cls-5" d="M102.79,270.85c-3.7,2.85-9.2,4.74-12.39,4.76s-8.37-2-11.84-4.91A12.81,12.81,0,0,1,76,267.83l.07-.32a7.34,7.34,0,0,0,3.78,0,16.34,16.34,0,0,0,4.3-2l.1.17a7.83,7.83,0,0,0,12.37,0l.07-.11a18.21,18.21,0,0,0,4.61,2.18,7.49,7.49,0,0,0,4.32-.18l.08.28A12,12,0,0,1,102.79,270.85Z" transform="translate(-2.05 -144)"/><path class="cls-5" d="M90.38,262a47.85,47.85,0,0,0-6.64,3.73,18.25,18.25,0,0,1-4.54,2,8.2,8.2,0,0,1-4,0,9,9,0,0,1-4.53-2.69,10.29,10.29,0,0,1-2.33-8.73,12.72,12.72,0,0,1,5-7.68c1.91-1.41,4.16-2.33,6-3.8a10.59,10.59,0,0,0,2.76-4.3c.36-.85.63-1.73,1-2.57a5.73,5.73,0,0,1,1.63-2.22,11.07,11.07,0,0,1,5.64-1.51,12.27,12.27,0,0,1,6,1.72A5.48,5.48,0,0,1,98,238.21c.39.84.66,1.72,1,2.58a10.75,10.75,0,0,0,2.77,4.29c1.86,1.48,4.1,2.4,6,3.81a12.66,12.66,0,0,1,5,7.68,10.28,10.28,0,0,1-2.33,8.72,9,9,0,0,1-4,2.53,8.32,8.32,0,0,1-4.56.18A19.35,19.35,0,0,1,97,265.81,64.45,64.45,0,0,0,90.38,262Zm0-3c.6,0,3.06.51,4.36-.43a3.51,3.51,0,0,0,.87-1c.22-.32.41-.66.6-1A35.66,35.66,0,0,0,98,253.12a2.51,2.51,0,0,0,.2-2.16,1.87,1.87,0,0,0-1.15-.8c-.46-.12-5-.27-6.7-.27h0a39.3,39.3,0,0,0-6.5.35,1.75,1.75,0,0,0-1.14.8,2.48,2.48,0,0,0,.19,2.16,35.5,35.5,0,0,0,1.82,3.45c.19.34.38.67.6,1a4.69,4.69,0,0,0,1.11.93C87.76,259.5,89.78,259,90.38,259Z" transform="translate(-2.05 -144)"/><path d="M90.38,249.89c1.74,0,6.24.15,6.7.27a1.87,1.87,0,0,1,1.15.8,2.51,2.51,0,0,1-.2,2.16,35.66,35.66,0,0,1-1.82,3.46c-.19.33-.38.67-.6,1a3.51,3.51,0,0,1-.87,1c-1.3.94-3.76.44-4.36.43s-2.62.51-3.92-.43a4.69,4.69,0,0,1-1.11-.93c-.22-.32-.41-.65-.6-1a35.5,35.5,0,0,1-1.82-3.45,2.48,2.48,0,0,1-.19-2.16,1.75,1.75,0,0,1,1.14-.8,39.3,39.3,0,0,1,6.5-.35Z" transform="translate(-2.05 -144)"/><path class="cls-3" d="M82.16,228c1.14,1.82,2.94,8-1.56,6.35a17.56,17.56,0,0,1-2.67-1.64,11.32,11.32,0,0,0-6.09-1.21,42.49,42.49,0,0,1-6.28.05,1.18,1.18,0,0,1-.59-.19,1,1,0,0,1-.28-.74c-.11-2.11,1.83-3.89,3.91-4.35a13.78,13.78,0,0,1,6.29.55c.32-1.23-1.85-1.93-1.74-3.19a6.26,6.26,0,0,1,5.23.56A11,11,0,0,1,82.16,228Z" transform="translate(-2.05 -144)"/><path d="M78.47,236.73a6.69,6.69,0,0,1,.5,4.66,7.36,7.36,0,0,1-5.77,1.29,8.77,8.77,0,0,1-4.85-3.18,5.82,5.82,0,0,1-1-3.36,16.65,16.65,0,0,1,3.51-2,7,7,0,0,1,4-.35A5.79,5.79,0,0,1,78.47,236.73Zm-2.42,1.87a1.81,1.81,0,0,0,.38-1.76,1.63,1.63,0,0,0-.45-.69.29.29,0,0,0-.07-.08h0a2.64,2.64,0,0,0-2.44-.8,2,2,0,0,0-.58,3.75,2.81,2.81,0,0,0,2.09.22A2.31,2.31,0,0,0,76.05,238.6Z" transform="translate(-2.05 -144)"/><path class="cls-7" d="M75.9,236.06h0a.29.29,0,0,1,.07.08,1.63,1.63,0,0,1,.45.69,1.81,1.81,0,0,1-.38,1.76,2.31,2.31,0,0,1-1.08.63,2.81,2.81,0,0,1-2.09-.22,2,2,0,0,1,.58-3.75A2.64,2.64,0,0,1,75.9,236.06Z" transform="translate(-2.05 -144)"/><path class="cls-5" d="M64,263.66c.63.82,2.27,2.35,2.24,3.49-.08,3-7.34-1.08-8.4-1.73a14.41,14.41,0,0,1-4.32-3.65,11.42,11.42,0,0,1-1.64-3.87,17.66,17.66,0,0,1,.13-9.7,12.56,12.56,0,0,1,6.1-7.41A6.52,6.52,0,0,1,60.8,240a4.73,4.73,0,0,1,4.72,4.27c.16,2.86-2.29,5.12-3.55,7.69a9.94,9.94,0,0,0-.71,6.7A13.72,13.72,0,0,0,64,263.66Z" transform="translate(-2.05 -144)"/><path class="cls-6" d="M55.76,198.85c.93,3.09-.13,5-1.83,7.43a61.13,61.13,0,0,1-7.62,8.61,13.3,13.3,0,0,1-1,1,.8.8,0,0,1-.44.2c-.47,0-.57-.64-.51-1.1.1-.95.19-1.9.24-2.85a3.22,3.22,0,0,0-.14-1.45,6.49,6.49,0,0,0-.92-1.25,3.75,3.75,0,0,1-.42-3.75,1.5,1.5,0,0,0,.87,1.29,1.3,1.3,0,0,0,1.49-.35,1.94,1.94,0,0,0,.28-1.51,6,6,0,0,0-4.45-4.84,2.42,2.42,0,0,1,2.48-1.41,4.87,4.87,0,0,1,2.71,1.33,5.19,5.19,0,0,0-1.23-3.47c-.76-1-1.7-1.86-2.45-2.87A13.4,13.4,0,0,1,41,190.54c-.39-1-.64-2.26.12-3a19.68,19.68,0,0,0,3.72,2.65c1,.5,2.06.83,3.09,1.26a17.14,17.14,0,0,1,4.45,2.7A10.19,10.19,0,0,1,55.76,198.85Z" transform="translate(-2.05 -144)"/><path class="cls-6" d="M37.4,243.72c-.39.11-2.63.25-3.35.37A.07.07,0,0,1,34,244a40.06,40.06,0,0,0,7.68-17.19,12.22,12.22,0,0,1-11.94,3,14.23,14.23,0,0,0,7.33-8.64,6.35,6.35,0,0,1-3.21.05c-.26-.06-.57-.22-.55-.48s.25-.34.46-.42a23.72,23.72,0,0,0,3.7-1.56,5.17,5.17,0,0,0,2.3-2.57.9.9,0,0,0-.06-.75,37.75,37.75,0,0,1-2.64-5.38c-1.77-4.86-1.57-10.22-1.61-15.32q0-3.18.05-6.36a8.38,8.38,0,0,1,.44-2.83,3.32,3.32,0,0,1,2.48-2.2,4.84,4.84,0,0,1,1.77.18c6.89,1.6,14,3.29,19.62,7.56a10.28,10.28,0,0,1,2.6,3.4,9.78,9.78,0,0,1,.94,2.5.25.25,0,0,0,.38.19,4.6,4.6,0,0,1,1.14-.38,11.4,11.4,0,0,1,4.52-.44c-5.46,5.36-12.37,9.37-17,15.44-1.88,2.46-3.31,5.24-5.38,7.52a39.74,39.74,0,0,0,5.37-1.55l0,.09c-3.82,1.65-7.72,6.21-8.24,10.32a3.79,3.79,0,0,1,3.11-2.2c-1.31,1.7-1.35,4-2,6.05a19.75,19.75,0,0,1-4.08,6.2,9.9,9.9,0,0,0,4.62-1.34,23.89,23.89,0,0,1-5.42,5.34,10.62,10.62,0,0,1-2,1.14A7.51,7.51,0,0,1,37.4,243.72Zm16.53-37.44c1.7-2.45,2.76-4.34,1.83-7.43a10.19,10.19,0,0,0-3.36-4.7,17.14,17.14,0,0,0-4.45-2.7c-1-.43-2.1-.76-3.09-1.26a19.68,19.68,0,0,1-3.72-2.65c-.76.74-.51,2-.12,3a13.4,13.4,0,0,0,1.76,3.27c.75,1,1.69,1.87,2.45,2.87a5.19,5.19,0,0,1,1.23,3.47,4.87,4.87,0,0,0-2.71-1.33,2.42,2.42,0,0,0-2.48,1.41,6,6,0,0,1,4.45,4.84,1.94,1.94,0,0,1-.28,1.51,1.3,1.3,0,0,1-1.49.35,1.5,1.5,0,0,1-.87-1.29,3.75,3.75,0,0,0,.42,3.75,6.49,6.49,0,0,1,.92,1.25,3.22,3.22,0,0,1,.14,1.45c-.05.95-.14,1.9-.24,2.85-.06.46,0,1.11.51,1.1a.8.8,0,0,0,.44-.2,13.3,13.3,0,0,0,1-1A61.13,61.13,0,0,0,53.93,206.28Z" transform="translate(-2.05 -144)"/><path d="M90.38,262A64.45,64.45,0,0,1,97,265.81l-.07.12a8.57,8.57,0,0,1-13.08,0l-.1-.17A47.85,47.85,0,0,1,90.38,262Z" transform="translate(-2.05 -144)"/><path class="cls-1" d="M62.86,194.88a.41.41,0,0,1-.19,0,.43.43,0,0,1-.2-.58,4.43,4.43,0,0,1,2.4-1.7l.5-.22a2.52,2.52,0,0,0,1.35-1,.77.77,0,0,0-.09-.7.27.27,0,0,0-.26-.13.43.43,0,0,1-.48-.3.45.45,0,0,1,.22-.52,5.63,5.63,0,0,1,5.89.6l.15.11.06-.09,2.21-3.44a.41.41,0,0,1,.38-.2.42.42,0,0,1,.37.22c.45.84,1.66,1,2.64.94a2.33,2.33,0,0,0,1.73-.76,1,1,0,0,0,.11-.88.54.54,0,0,0-.34-.35.43.43,0,0,1,0-.84c2.43-.61,9.91-.06,11.77,1.79a.43.43,0,0,1,0,.61.44.44,0,0,1-.62,0c-1.44-1.43-7.29-2-10.08-1.7l.09.2a1.85,1.85,0,0,1-.22,1.68,3.16,3.16,0,0,1-2.36,1.11,3.81,3.81,0,0,1-3.07-.83c-.62,1-1.24,1.94-1.87,2.91a1,1,0,0,1-.61.5,1.09,1.09,0,0,1-.89-.3,4.76,4.76,0,0,0-4.11-.83,1.57,1.57,0,0,1,.17,1.56,3.24,3.24,0,0,1-1.78,1.44l-.51.22c-.79.34-1.68.72-2,1.3A.44.44,0,0,1,62.86,194.88Z" transform="translate(-2.05 -144)"/><path class="cls-1" d="M117.15,276.79a.45.45,0,0,1-.16,0,31.78,31.78,0,0,1-3.27-1.57c-.73-.39-1.48-.79-2.23-1.13l-.48-.22c-1.87-.86-6.73-3.07-8.42-2.71-.26.05.44-.16.44-.43s.17,0,.38,0c1.84-.37,5.07,1,8,2.35l.47.22c.78.36,1.54.76,2.28,1.15s1.7.9,2.58,1.28a7.48,7.48,0,0,0-.61-2.63.43.43,0,0,1,0-.41.51.51,0,0,1,.37-.2,24.61,24.61,0,0,1,6.82,1.09,2.21,2.21,0,0,0-.6-1l-.37-.37a3.57,3.57,0,0,0-1-.83.45.45,0,0,1-.24-.3.43.43,0,0,1,.1-.36,3.81,3.81,0,0,1,3.46-1c2.94.28,5.6,1.68,8.16,3l1.41.73c.37.19.81.31.94.15a.9.9,0,0,0,.09-.44,14.14,14.14,0,0,0-2.6-9.12.42.42,0,0,1-.06-.42.44.44,0,0,1,.33-.27,3.31,3.31,0,0,1,2.64,1,17.83,17.83,0,0,1,6,10.37,17.72,17.72,0,0,0,4.1-6.27,16.39,16.39,0,0,0,.52-5.33c-.08-2.4-.46-5.8-2.79-7.55a.43.43,0,0,1-.11-.58.44.44,0,0,1,.58-.15,19.1,19.1,0,0,0,5.42,2c.39.08.84.09,1-.12s-.18-.58-.79-1a16.93,16.93,0,0,1-4.55-5.55c-1.14-1.88-2.31-4.66-2.21-6.83a.44.44,0,1,1,.87,0c-.09,2,1.06,4.65,2.08,6.34,1.13,1.86,2.4,4,4.3,5.29,1.34.91,1.32,1.66,1.06,2.13-.17.31-.64.81-1.89.55a19.45,19.45,0,0,1-3.65-1.11,13.18,13.18,0,0,1,1.59,6.52,17.18,17.18,0,0,1-.56,5.62c-.9,2.89-3,5.22-4.9,7.27a.44.44,0,0,1-.45.12.43.43,0,0,1-.3-.36A17,17,0,0,0,135,265.05a4.92,4.92,0,0,0-1.08-.71,15.68,15.68,0,0,1,2.2,8.87,1.47,1.47,0,0,1-.29,1c-.4.49-1.13.52-2,.08l-1.41-.75c-2.5-1.31-5.07-2.67-7.85-2.94a3.82,3.82,0,0,0-2.32.38,5.87,5.87,0,0,1,.72.68l.34.35a2.71,2.71,0,0,1,.91,2.25.46.46,0,0,1-.2.31.44.44,0,0,1-.37,0,23.85,23.85,0,0,0-6.52-1.22,8.39,8.39,0,0,1,.45,3,.46.46,0,0,1-.2.35A.51.51,0,0,1,117.15,276.79Z" transform="translate(-2.05 -144)"/><path class="cls-1" d="M64.43,276.83a.39.39,0,0,1-.23-.07.43.43,0,0,1-.2-.35,8.18,8.18,0,0,1,.45-3,23.78,23.78,0,0,0-6.52,1.22.44.44,0,0,1-.37,0,.41.41,0,0,1-.2-.31,2.7,2.7,0,0,1,.9-2.25l.35-.35a5.67,5.67,0,0,1,.71-.67,3.73,3.73,0,0,0-2.32-.38c-2.77.26-5.35,1.62-7.84,2.94l-1.42.74c-1.2.61-1.78.21-2-.08a1.58,1.58,0,0,1-.29-.95,15.74,15.74,0,0,1,2.2-8.87,4.61,4.61,0,0,0-1.07.7,17,17,0,0,0-5.84,10.74.46.46,0,0,1-.3.36.44.44,0,0,1-.46-.13c-1.87-2.05-4-4.37-4.89-7.26a17,17,0,0,1-.56-5.62,13,13,0,0,1,1.58-6.52,19.86,19.86,0,0,1-3.64,1.1c-1.25.26-1.73-.23-1.9-.55s-.28-1.22,1.06-2.13a16.28,16.28,0,0,0,4.3-5.28c1-1.69,2.18-4.36,2.09-6.35a.42.42,0,0,1,.41-.45.43.43,0,0,1,.46.41c.1,2.18-1.13,5-2.21,6.83s-2.49,4.14-4.55,5.55c-.61.42-.91.79-.79,1s.57.19,1,.11a19.14,19.14,0,0,0,5.43-2,.43.43,0,0,1,.47.72c-2.34,1.75-2.71,5.15-2.79,7.56a16.4,16.4,0,0,0,.52,5.33A17.66,17.66,0,0,0,40,274.8a17.88,17.88,0,0,1,6-10.37,3.4,3.4,0,0,1,2.65-1,.44.44,0,0,1,.27.7c-2.42,3-2.67,7-2.6,9.12a.69.69,0,0,0,.09.43c.13.17.56,0,.93-.14l1.41-.74c2.57-1.35,5.22-2.75,8.17-3a3.82,3.82,0,0,1,3.46,1,.45.45,0,0,1,.09.37.4.4,0,0,1-.23.29,3.44,3.44,0,0,0-1,.83l-.37.37a2.18,2.18,0,0,0-.6,1,24.22,24.22,0,0,1,6.81-1.08.45.45,0,0,1,.37.19.43.43,0,0,1,0,.41,7.72,7.72,0,0,0-.62,2.64c.89-.38,1.75-.84,2.58-1.28s1.51-.8,2.28-1.16l.11-.05c2-.89,5.66-2.56,7.89-2.56.25,0,.88-.24.88,0s.24.43,0,.43c-2,0-6.62,2.11-8.4,2.92l-.11.05c-.76.35-1.51.75-2.24,1.13a29,29,0,0,1-3.27,1.57A.41.41,0,0,1,64.43,276.83Z" transform="translate(-2.05 -144)"/><path class="cls-5" d="M99.65,235.06a1.79,1.79,0,0,1-1.47-.64c-1.3-1.59.12-5.45.88-6.65h0a11.44,11.44,0,0,1,3.93-4,6.71,6.71,0,0,1,5.6-.59.42.42,0,0,1,.28.36,2.52,2.52,0,0,1-1,1.92,3.87,3.87,0,0,0-.65.75,13,13,0,0,1,5.9-.41c2.18.49,4.37,2.42,4.24,4.8a1.37,1.37,0,0,1-.44,1.05,1.63,1.63,0,0,1-.81.29,26.26,26.26,0,0,1-4.52,0c-.61,0-1.22-.07-1.82-.08a11.09,11.09,0,0,0-5.86,1.15c-.3.18-.59.38-.9.6a8,8,0,0,1-1.84,1.07A4.31,4.31,0,0,1,99.65,235.06Zm6.88-11.34a6.46,6.46,0,0,0-3.11.84,10.59,10.59,0,0,0-3.62,3.67h0c-.83,1.31-1.8,4.59-1,5.64.34.41,1,.43,2,.07a7.24,7.24,0,0,0,1.64-1c.31-.22.63-.45,1-.65a12,12,0,0,1,6.33-1.27l1.85.08a24.53,24.53,0,0,0,4.37,0,.81.81,0,0,0,.36-.1s.11-.13.12-.42c.1-1.93-1.73-3.5-3.57-3.91-2-.46-4.18.08-6.09.55a.44.44,0,0,1-.53-.31c-.23-.87.4-1.5,1-2.05a2.74,2.74,0,0,0,.75-1A5.27,5.27,0,0,0,106.53,223.72ZM99.43,228h0Z" transform="translate(-2.05 -144)"/><path d="M107,243.22a8,8,0,0,1-4.67-1.53.41.41,0,0,1-.17-.24,7.18,7.18,0,0,1,.54-5,6.18,6.18,0,0,1,3.92-3.13,7.2,7.2,0,0,1,4.23.37,16.38,16.38,0,0,1,3.61,2,.45.45,0,0,1,.19.33,6.19,6.19,0,0,1-1.1,3.65,9.23,9.23,0,0,1-5.1,3.34A6.26,6.26,0,0,1,107,243.22Zm-4-2.13a7,7,0,0,0,5.29,1.13,8.38,8.38,0,0,0,4.6-3,5.46,5.46,0,0,0,.92-2.86,14.57,14.57,0,0,0-3.23-1.8,6.41,6.41,0,0,0-3.72-.34,5.32,5.32,0,0,0-3.36,2.69A6.31,6.31,0,0,0,103,241.09Z" transform="translate(-2.05 -144)"/><path class="cls-5" d="M105.68,236h0a.6.6,0,0,1-.08.08,1.7,1.7,0,0,0-.44.7,1.8,1.8,0,0,0,.37,1.75,2.31,2.31,0,0,0,1.09.63,2.69,2.69,0,0,0,2.08-.22,2.12,2.12,0,0,0,1.08-1.74,2.15,2.15,0,0,0-1.65-2,2.66,2.66,0,0,0-2.45.81" transform="translate(-2.05 -144)"/><path d="M107.41,239.73a3.18,3.18,0,0,1-.91-.13,2.68,2.68,0,0,1-1.29-.76,2.23,2.23,0,0,1-.47-2.18,2.19,2.19,0,0,1,.55-.86l.08-.08a3.09,3.09,0,0,1,2.86-.93,2.56,2.56,0,0,1,2,2.43,2.6,2.6,0,0,1-1.3,2.12A3.11,3.11,0,0,1,107.41,239.73ZM106,236.32h0l0,0,0,0a1.32,1.32,0,0,0-.33.51,1.4,1.4,0,0,0,.28,1.33,1.94,1.94,0,0,0,.89.51,2.33,2.33,0,0,0,1.75-.18,1.69,1.69,0,0,0,.85-1.38,1.67,1.67,0,0,0-1.31-1.57,2.17,2.17,0,0,0-2,.68Z" transform="translate(-2.05 -144)"/><path class="cls-5" d="M116.61,268.6a2.1,2.1,0,0,1-1-.21,1.39,1.39,0,0,1-.73-1.28c0-1,1-2.2,1.79-3.13.21-.23.4-.45.54-.63a13.3,13.3,0,0,0,2.7-4.81,9.49,9.49,0,0,0-.67-6.4h0a21.55,21.55,0,0,0-1.41-2.33c-1.14-1.71-2.31-3.48-2.19-5.58a5.15,5.15,0,0,1,5.17-4.68,6.88,6.88,0,0,1,2.83.81A12.94,12.94,0,0,1,130,248a18.07,18.07,0,0,1,.14,9.94,12,12,0,0,1-1.7,4,14.82,14.82,0,0,1-4.45,3.77S119.21,268.6,116.61,268.6Zm3.4-16.84a10.35,10.35,0,0,1,.73,7,14,14,0,0,1-2.85,5.13c-.15.19-.35.42-.57.67-.63.73-1.59,1.83-1.57,2.54,0,.36.14.47.26.54,1.25.66,5.79-1.58,7.47-2.63a13.83,13.83,0,0,0,4.19-3.53,10.93,10.93,0,0,0,1.57-3.72,17.2,17.2,0,0,0-.12-9.46,12.06,12.06,0,0,0-5.88-7.15,5.84,5.84,0,0,0-2.47-.72,4.31,4.31,0,0,0-4.27,3.86c-.1,1.81.94,3.38,2,5.05a21.5,21.5,0,0,1,1.47,2.43Z" transform="translate(-2.05 -144)"/><path class="cls-4" d="M136.77,216.43h0a1.12,1.12,0,0,1-.7-.3,12.11,12.11,0,0,1-1.08-1,61.15,61.15,0,0,1-7.67-8.67c-1.73-2.49-2.88-4.51-1.89-7.79a10.39,10.39,0,0,1,3.5-4.91h0a17.65,17.65,0,0,1,4.56-2.78l1.16-.45a18.93,18.93,0,0,0,1.9-.79,19.79,19.79,0,0,0,3.63-2.59.43.43,0,0,1,.59,0c.75.73.83,1.93.22,3.47a13.86,13.86,0,0,1-1.81,3.37,18,18,0,0,1-1.26,1.47c-.41.45-.83.92-1.19,1.4a5.71,5.71,0,0,0-1.1,2.28,4.57,4.57,0,0,1,2.19-.84,2.86,2.86,0,0,1,2.93,1.7.43.43,0,0,1,0,.35.44.44,0,0,1-.28.22,5.51,5.51,0,0,0-4.12,4.47,1.59,1.59,0,0,0,.18,1.18.87.87,0,0,0,1,.23,1.08,1.08,0,0,0,.61-.92.44.44,0,0,1,.36-.4.44.44,0,0,1,.48.25,4.19,4.19,0,0,1-.48,4.19l-.32.39a2.1,2.1,0,0,0-.65,2c0,.94.14,1.89.25,2.82a1.81,1.81,0,0,1-.31,1.32A.85.85,0,0,1,136.77,216.43Zm-7.3-22a9.7,9.7,0,0,0-3.23,4.49c-.87,2.93.14,4.7,1.78,7.06a61,61,0,0,0,7.57,8.55,11.62,11.62,0,0,0,1,.91.67.67,0,0,0,.18.12,1.17,1.17,0,0,0,.07-.63c-.11-.94-.2-1.91-.25-2.87a3.52,3.52,0,0,1,.18-1.64,3.75,3.75,0,0,1,.68-1l.29-.34a3.32,3.32,0,0,0,.64-2.2,1.74,1.74,0,0,1-.58.39,1.72,1.72,0,0,1-2-.48,2.29,2.29,0,0,1-.36-1.84,6.36,6.36,0,0,1,4.23-5.05,2.15,2.15,0,0,0-1.8-.7,4.36,4.36,0,0,0-2.45,1.22.44.44,0,0,1-.45.08.45.45,0,0,1-.28-.36,5.54,5.54,0,0,1,1.32-3.77,17.75,17.75,0,0,1,1.25-1.46,17.87,17.87,0,0,0,1.2-1.41,12.9,12.9,0,0,0,1.7-3.17,3.08,3.08,0,0,0,.21-2.21,18.09,18.09,0,0,1-3.44,2.4,20.22,20.22,0,0,1-2,.84l-1.13.43a16.76,16.76,0,0,0-4.33,2.64Z" transform="translate(-2.05 -144)"/><path class="cls-1" d="M118.72,194.83a.43.43,0,0,1-.39-.24c-.29-.57-1.17-1-2-1.29l-.52-.23a3.2,3.2,0,0,1-1.79-1.43,1.6,1.6,0,0,1,.18-1.56,4.81,4.81,0,0,0-4.12.82,1,1,0,0,1-.89.3,1,1,0,0,1-.61-.51l-1.86-2.9a3.75,3.75,0,0,1-3.07.83,3.13,3.13,0,0,1-2.37-1.11,1.85,1.85,0,0,1-.21-1.68,1.54,1.54,0,0,1,.08-.19c-2.78-.29-8.63.26-10.08,1.7a.43.43,0,0,1-.61,0,.44.44,0,0,1,0-.62c2-1.95,9.6-2.33,11.77-1.78a.43.43,0,0,1,0,.84.49.49,0,0,0-.34.35,1,1,0,0,0,.1.88,2.33,2.33,0,0,0,1.74.75c1,.1,2.19-.09,2.63-.93a.48.48,0,0,1,.37-.23.45.45,0,0,1,.39.2l2.2,3.44.07.1.15-.11a5.57,5.57,0,0,1,5.89-.61.44.44,0,0,1-.26.82.27.27,0,0,0-.26.14.75.75,0,0,0-.1.7,2.55,2.55,0,0,0,1.36,1l.51.23a4.43,4.43,0,0,1,2.38,1.7.43.43,0,0,1-.19.58A.45.45,0,0,1,118.72,194.83Z" transform="translate(-2.05 -144)"/><path class="cls-5" d="M37.4,243.72c-.39.11-2.63.25-3.35.37A.07.07,0,0,1,34,244a40.06,40.06,0,0,0,7.68-17.19,12.22,12.22,0,0,1-11.94,3,14.23,14.23,0,0,0,7.33-8.64,6.35,6.35,0,0,1-3.21.05c-.26-.06-.57-.22-.55-.48s.25-.34.46-.42a23.72,23.72,0,0,0,3.7-1.56,5.17,5.17,0,0,0,2.3-2.57.9.9,0,0,0-.06-.75,37.75,37.75,0,0,1-2.64-5.38c-1.77-4.86-1.57-10.22-1.61-15.32q0-3.18.05-6.36a8.38,8.38,0,0,1,.44-2.83,3.32,3.32,0,0,1,2.48-2.2,4.84,4.84,0,0,1,1.77.18c6.89,1.6,14,3.29,19.62,7.56a10.28,10.28,0,0,1,2.6,3.4,9.78,9.78,0,0,1,.94,2.5.25.25,0,0,0,.38.19,4.6,4.6,0,0,1,1.14-.38,11.4,11.4,0,0,1,4.52-.44c-5.46,5.36-12.37,9.37-17,15.44-1.88,2.46-3.31,5.24-5.38,7.52a39.74,39.74,0,0,0,5.37-1.55l0,.09c-3.82,1.65-7.72,6.21-8.24,10.32a3.79,3.79,0,0,1,3.11-2.2c-1.31,1.7-1.35,4-2,6.05a19.75,19.75,0,0,1-4.08,6.2,9.9,9.9,0,0,0,4.62-1.34,23.89,23.89,0,0,1-5.42,5.34,10.62,10.62,0,0,1-2,1.14A7.51,7.51,0,0,1,37.4,243.72Z" transform="translate(-2.05 -144)"/><path class="cls-5" d="M34.07,245.09a1.14,1.14,0,0,1-1-.52,1.07,1.07,0,0,1,.07-1.22,39.11,39.11,0,0,0,6.89-14.06,13.34,13.34,0,0,1-10.65,1.47,1,1,0,0,1-.71-.88,1,1,0,0,1,.56-1,13.28,13.28,0,0,0,6.25-6.51,7.37,7.37,0,0,1-1.93-.21,1.51,1.51,0,0,1-1.31-1.53,1.49,1.49,0,0,1,1.1-1.27l.85-.31a16.55,16.55,0,0,0,2.7-1.18,4.29,4.29,0,0,0,1.87-2,34.42,34.42,0,0,1-2.69-5.45c-1.64-4.47-1.66-9.27-1.67-13.91v-1.75c0-2,0-4.08.05-6.38a9.16,9.16,0,0,1,.51-3.18,4.27,4.27,0,0,1,3.28-2.82,5.77,5.77,0,0,1,2.13.2c6.62,1.53,14.12,3.27,20,7.73A11.73,11.73,0,0,1,63.29,194,13.4,13.4,0,0,1,64.1,196l.49-.13a12.77,12.77,0,0,1,5-.46,1,1,0,0,1,.78.69,1,1,0,0,1-.25,1,89.44,89.44,0,0,1-7,6c-3.54,2.84-7.21,5.77-10,9.36-.73,1-1.42,2-2.09,3q-.7,1.09-1.47,2.19c.81-.24,1.6-.5,2.4-.79l.1,0a1,1,0,0,1,1.25.64,1.15,1.15,0,0,1,0,.41,1,1,0,0,1-.61.93,14.54,14.54,0,0,0-6.59,6.39,4.68,4.68,0,0,1,1-.19,1,1,0,0,1,.87,1.61,9,9,0,0,0-1.31,3.55,19.94,19.94,0,0,1-.57,2.21,15.25,15.25,0,0,1-2.51,4.41,8.64,8.64,0,0,0,1.61-.73,1,1,0,0,1,1.31,1.46A25,25,0,0,1,40.94,243a11.74,11.74,0,0,1-2.13,1.25,8.13,8.13,0,0,1-1.15.4,12.08,12.08,0,0,1-1.86.23c-.62.05-1.26.11-1.58.16Zm-.17-2h0Zm7.76-17.32a1,1,0,0,1,.47.11,1,1,0,0,1,.52,1.07A41.1,41.1,0,0,1,36,242.88c.48,0,1-.1,1.13-.13a5.44,5.44,0,0,0,.86-.3,9.66,9.66,0,0,0,1.78-1,22.84,22.84,0,0,0,2.77-2.32,10.27,10.27,0,0,1-1.36.14,1,1,0,0,1-.79-1.65,18.78,18.78,0,0,0,3.89-5.87,18.23,18.23,0,0,0,.51-2c.08-.35.16-.71.25-1.07a1,1,0,0,1-1.88-.59,14.61,14.61,0,0,1,4.16-7.78l-.13,0a1,1,0,0,1-1.07-.48,1,1,0,0,1,.12-1.17,34,34,0,0,0,3.15-4.3c.68-1.05,1.39-2.13,2.17-3.16,2.89-3.78,6.65-6.79,10.29-9.7,1.64-1.32,3.33-2.66,4.92-4.08-.57.1-1.13.23-1.7.36a4,4,0,0,0-.88.29,1.31,1.31,0,0,1-1.16,0,1.3,1.3,0,0,1-.69-.93,8.41,8.41,0,0,0-.84-2.21,9.58,9.58,0,0,0-2.31-3.07C53.66,187.67,46.38,186,40,184.5a4.21,4.21,0,0,0-1.41-.17,2.35,2.35,0,0,0-1.68,1.57,7.41,7.41,0,0,0-.38,2.49c-.05,2.28-.07,4.35-.05,6.33v1.75c0,4.47,0,9.09,1.54,13.23a37.13,37.13,0,0,0,2.57,5.24,1.94,1.94,0,0,1,.14,1.58A6.13,6.13,0,0,1,38,219.6a9.77,9.77,0,0,1-1.11.58,1,1,0,0,1,.9.28,1,1,0,0,1,.25,1,15.35,15.35,0,0,1-5.51,7.83,11.22,11.22,0,0,0,8.45-3.2A1,1,0,0,1,41.66,225.78Z" transform="translate(-2.05 -144)"/><path class="cls-5" d="M81.94,235.11a4.51,4.51,0,0,1-1.49-.31,8.47,8.47,0,0,1-1.85-1.08c-.3-.22-.59-.42-.89-.6A11.22,11.22,0,0,0,71.85,232l-1.83.08a25.29,25.29,0,0,1-4.52,0,1.61,1.61,0,0,1-.8-.28,1.4,1.4,0,0,1-.45-1.06c-.12-2.38,2.07-4.3,4.25-4.79a12.82,12.82,0,0,1,5.89.41,3.77,3.77,0,0,0-.64-.76,2.51,2.51,0,0,1-1-1.91.45.45,0,0,1,.28-.37,6.77,6.77,0,0,1,5.61.59,11.52,11.52,0,0,1,3.93,4h0c.75,1.2,2.17,5.07.88,6.65A1.82,1.82,0,0,1,81.94,235.11Zm-9.49-4a11.34,11.34,0,0,1,5.7,1.27c.34.2.65.43,1,.65a7.46,7.46,0,0,0,1.64,1c1,.37,1.65.34,2-.07.85-1-.11-4.32-.94-5.64a10.55,10.55,0,0,0-3.62-3.66,6,6,0,0,0-4.56-.64,3,3,0,0,0,.75,1c.56.55,1.18,1.17,1,2a.44.44,0,0,1-.52.32,13.49,13.49,0,0,0-6.09-.56c-1.84.41-3.68,2-3.58,3.91a.65.65,0,0,0,.13.43,1,1,0,0,0,.36.09,24.42,24.42,0,0,0,4.36,0l1.86-.08Z" transform="translate(-2.05 -144)"/><path d="M74.56,243.26a7,7,0,0,1-1.46-.15,9.25,9.25,0,0,1-5.1-3.35,6.22,6.22,0,0,1-1.09-3.64.41.41,0,0,1,.18-.33,16.44,16.44,0,0,1,3.61-2,7.3,7.3,0,0,1,4.23-.37,6.17,6.17,0,0,1,3.92,3.14,7.11,7.11,0,0,1,.54,5,.37.37,0,0,1-.16.24A8,8,0,0,1,74.56,243.26Zm-6.79-6.89a5.52,5.52,0,0,0,.92,2.86,8.35,8.35,0,0,0,4.61,3,6.88,6.88,0,0,0,5.28-1.13,6.29,6.29,0,0,0-.5-4.2,5.31,5.31,0,0,0-3.36-2.7,6.46,6.46,0,0,0-3.71.34A15.21,15.21,0,0,0,67.77,236.37Z" transform="translate(-2.05 -144)"/><path d="M74.17,239.77a3,3,0,0,1-1.51-.39,2.57,2.57,0,0,1-1.29-2.11,2.54,2.54,0,0,1,2-2.43,3.08,3.08,0,0,1,2.85.91l.09.1a2,2,0,0,1,.54.86,2.21,2.21,0,0,1-.47,2.18,2.76,2.76,0,0,1-1.28.75A3.25,3.25,0,0,1,74.17,239.77ZM74,235.63a1.92,1.92,0,0,0-.41.05,1.68,1.68,0,0,0-1.31,1.57,1.7,1.7,0,0,0,.86,1.38,2.33,2.33,0,0,0,1.75.18,2,2,0,0,0,.88-.5A1.38,1.38,0,0,0,76,237a1.11,1.11,0,0,0-.33-.52l-.05-.05s0,0,0,0A2.26,2.26,0,0,0,74,235.63Z" transform="translate(-2.05 -144)"/><path class="cls-5" d="M65,268.64c-2.59,0-7.29-2.82-7.34-2.86A14.46,14.46,0,0,1,53.2,262a11.48,11.48,0,0,1-1.7-4,18.07,18.07,0,0,1,.13-9.94A12.93,12.93,0,0,1,58,240.41a6.73,6.73,0,0,1,2.83-.81A5.12,5.12,0,0,1,66,244.27c.12,2.1-1,3.87-2.18,5.58a22.57,22.57,0,0,0-1.41,2.33h0a9.52,9.52,0,0,0-.67,6.41,13.47,13.47,0,0,0,2.7,4.81c.14.18.32.39.53.63.81.93,1.82,2.08,1.79,3.13a1.38,1.38,0,0,1-.72,1.27A2.08,2.08,0,0,1,65,268.64Zm-4-28.18h-.13a5.94,5.94,0,0,0-2.46.72,12.07,12.07,0,0,0-5.89,7.15,17.2,17.2,0,0,0-.12,9.46,11.08,11.08,0,0,0,1.57,3.73,14,14,0,0,0,4.2,3.53c1.68,1,6.23,3.28,7.46,2.62.12-.06.26-.18.27-.54,0-.7-.94-1.8-1.58-2.53-.22-.26-.42-.49-.56-.68a13.87,13.87,0,0,1-2.86-5.12,10.44,10.44,0,0,1,.73-7h0A23.08,23.08,0,0,1,63,249.37c1.1-1.66,2.15-3.24,2-5.05A4.31,4.31,0,0,0,60.94,240.46ZM62,252Z" transform="translate(-2.05 -144)"/><path class="cls-4" d="M52.4,194.15a17.14,17.14,0,0,0-4.45-2.7c-1-.43-2.1-.76-3.09-1.26a19.68,19.68,0,0,1-3.72-2.65c-.76.74-.51,2-.12,3a13.4,13.4,0,0,0,1.76,3.27c.75,1,1.69,1.87,2.45,2.87a5.19,5.19,0,0,1,1.23,3.47,4.87,4.87,0,0,0-2.71-1.33,2.42,2.42,0,0,0-2.48,1.41,6,6,0,0,1,4.45,4.84,1.94,1.94,0,0,1-.28,1.51,1.3,1.3,0,0,1-1.49.35,1.5,1.5,0,0,1-.87-1.29,3.75,3.75,0,0,0,.42,3.75,6.49,6.49,0,0,1,.92,1.25,3.22,3.22,0,0,1,.14,1.45c-.05.95-.14,1.9-.24,2.85-.06.46,0,1.11.51,1.1a.8.8,0,0,0,.44-.2,13.3,13.3,0,0,0,1-1,61.13,61.13,0,0,0,7.62-8.61c1.7-2.45,2.76-4.34,1.83-7.43A10.19,10.19,0,0,0,52.4,194.15Z" transform="translate(-2.05 -144)"/><path class="cls-4" d="M44.82,216.48a.83.83,0,0,1-.63-.28,1.8,1.8,0,0,1-.31-1.31c.11-.93.19-1.88.25-2.82a3,3,0,0,0-.12-1.26,2.83,2.83,0,0,0-.53-.76l-.33-.4a4.18,4.18,0,0,1-.47-4.19.43.43,0,0,1,.83.16,1.08,1.08,0,0,0,.61.91.86.86,0,0,0,1-.22,1.54,1.54,0,0,0,.19-1.18,5.54,5.54,0,0,0-4.12-4.48.46.46,0,0,1-.29-.22.42.42,0,0,1,0-.35,2.83,2.83,0,0,1,2.92-1.69,4.4,4.4,0,0,1,2.2.84,5.51,5.51,0,0,0-1.1-2.29,17.31,17.31,0,0,0-1.19-1.38,18.33,18.33,0,0,1-1.26-1.49,13.51,13.51,0,0,1-1.82-3.37c-.6-1.54-.52-2.74.23-3.47a.45.45,0,0,1,.59,0,19.13,19.13,0,0,0,3.62,2.59,18.22,18.22,0,0,0,1.91.8c.39.14.78.29,1.16.45a17.34,17.34,0,0,1,4.56,2.77h0a10.39,10.39,0,0,1,3.5,4.91c1,3.28-.17,5.3-1.9,7.8a60.17,60.17,0,0,1-7.67,8.67,12.7,12.7,0,0,1-1.07,1,1.22,1.22,0,0,1-.7.3Zm-1.62-9.55a3.38,3.38,0,0,0,.65,2.2l.29.36a3.43,3.43,0,0,1,.68,1,3.73,3.73,0,0,1,.18,1.64c-.06,1-.14,1.93-.25,2.88a1,1,0,0,0,.08.63l.16-.12a12.68,12.68,0,0,0,1-.92A60.71,60.71,0,0,0,53.57,206c1.64-2.37,2.65-4.14,1.77-7.06a9.53,9.53,0,0,0-3.23-4.5h0a16.4,16.4,0,0,0-4.33-2.63c-.37-.16-.75-.3-1.13-.44a20,20,0,0,1-2-.83,18.14,18.14,0,0,1-3.44-2.41,3.08,3.08,0,0,0,.2,2.21,13.05,13.05,0,0,0,1.7,3.17c.38.5.81,1,1.22,1.43s.85.93,1.23,1.44a5.47,5.47,0,0,1,1.32,3.77.44.44,0,0,1-.27.37.43.43,0,0,1-.45-.08,4.4,4.4,0,0,0-2.46-1.23,2.18,2.18,0,0,0-1.8.71,6.35,6.35,0,0,1,4.24,5,2.33,2.33,0,0,1-.36,1.84,1.75,1.75,0,0,1-2,.48A1.77,1.77,0,0,1,43.2,206.93Z" transform="translate(-2.05 -144)"/><path d="M92.39,259.57a13,13,0,0,1-1.57-.11l-.45,0a.44.44,0,0,1-.43-.44.44.44,0,0,1,.45-.42l.52,0c.86.09,2.64.28,3.57-.39a2.62,2.62,0,0,0,.68-.75l.09-.14c.2-.29.38-.6.56-.91l0-.05A34,34,0,0,0,97.63,253c.37-.83.43-1.38.21-1.78a1.39,1.39,0,0,0-.87-.59c-.42-.1-4.79-.26-6.59-.26a.44.44,0,0,1-.44-.43.44.44,0,0,1,.44-.44c1.5,0,6.24.15,6.81.29a2.25,2.25,0,0,1,1.42,1,2.94,2.94,0,0,1-.18,2.55,34.47,34.47,0,0,1-1.84,3.49l0,0c-.19.32-.38.65-.6,1l-.09.14a3.58,3.58,0,0,1-.88,1A4.55,4.55,0,0,1,92.39,259.57Z" transform="translate(-2.05 -144)"/><path d="M88.61,259.57a4.1,4.1,0,0,1-2.41-.66l-.24-.18a3.52,3.52,0,0,1-1-.86c-.23-.33-.43-.67-.62-1a36.36,36.36,0,0,1-1.84-3.5,2.87,2.87,0,0,1-.18-2.54,2.23,2.23,0,0,1,1.43-1,39.55,39.55,0,0,1,6.6-.36h.88a.44.44,0,0,1,.43.44.44.44,0,0,1-.44.43h-.87a41.15,41.15,0,0,0-6.39.34,1.32,1.32,0,0,0-.87.59,2.13,2.13,0,0,0,.21,1.77,37.05,37.05,0,0,0,1.79,3.42c.2.34.38.65.59.95a3.15,3.15,0,0,0,.75.65l.25.18a4.63,4.63,0,0,0,3.14.4,4.39,4.39,0,0,1,.52-.05.44.44,0,0,1,.45.42.44.44,0,0,1-.43.44l-.43.05A11.73,11.73,0,0,1,88.61,259.57Z" transform="translate(-2.05 -144)"/><path d="M90.36,269.83a9.57,9.57,0,0,1-6.87-3.21.42.42,0,0,1,.09-.6.43.43,0,0,1,.61.08A8.71,8.71,0,0,0,90.36,269h0a8.6,8.6,0,0,0,6.19-2.86.44.44,0,0,1,.61-.09.43.43,0,0,1,.09.61,9.45,9.45,0,0,1-6.89,3.21Z" transform="translate(-2.05 -144)"/><path class="cls-5" d="M90.35,276.05c-3.5,0-8.67-2.15-12-5a13.46,13.46,0,0,1-2.68-3,.45.45,0,0,1,.12-.6.39.39,0,0,1,.57.12,12.45,12.45,0,0,0,2.51,2.77c3.25,2.76,8.2,4.82,11.53,4.82h.05c2.95,0,8.43-1.81,12.14-4.67a11.57,11.57,0,0,0,2.78-2.92.4.4,0,0,1,.57-.13.44.44,0,0,1,.12.6,12.24,12.24,0,0,1-3,3.14c-3.9,3-9.48,4.82-12.62,4.85Z" transform="translate(-2.05 -144)"/><path class="cls-5" d="M147.55,244.48h-.1c-.31-.05-1-.11-1.62-.17a14.85,14.85,0,0,1-1.76-.21,7.61,7.61,0,0,1-1.07-.38,10.65,10.65,0,0,1-2-1.18,24.79,24.79,0,0,1-5.53-5.43.44.44,0,0,1,0-.55.43.43,0,0,1,.54-.08,9.71,9.71,0,0,0,3.39,1.18,17.54,17.54,0,0,1-3.47-5.54,20.42,20.42,0,0,1-.56-2.14,9.29,9.29,0,0,0-1.41-3.78.43.43,0,0,1,0-.47.44.44,0,0,1,.42-.23,4.21,4.21,0,0,1,2.19.85,15.15,15.15,0,0,0-7.52-8.13.43.43,0,0,1-.23-.57.42.42,0,0,1,.5-.25l0-.1.08,0a40.31,40.31,0,0,0,4,1.23c-.88-1.11-1.66-2.31-2.42-3.47s-1.37-2.08-2.12-3.07c-2.78-3.64-6.48-6.6-10.05-9.46a88.2,88.2,0,0,1-6.92-5.94.43.43,0,0,1,.23-.73,12.05,12.05,0,0,1,4.7.44,6.21,6.21,0,0,1,1,.32,10.78,10.78,0,0,1,.83-2.18,11.54,11.54,0,0,1,2.83-3.77c5.78-4.39,13.22-6.11,19.78-7.63a5.31,5.31,0,0,1,1.93-.2,3.79,3.79,0,0,1,2.83,2.47,8.58,8.58,0,0,1,.47,3c.05,2.11.07,4.25.05,6.37,0,.57,0,1.16,0,1.74,0,4.59,0,9.34-1.63,13.72a38,38,0,0,1-2.67,5.45.55.55,0,0,0,0,.4,4.87,4.87,0,0,0,2.12,2.33,16.85,16.85,0,0,0,2.78,1.22l.85.32c.46.17.71.44.74.78s-.3.8-.88.94a6.86,6.86,0,0,1-2.67.11,13.89,13.89,0,0,0,6.88,7.67.43.43,0,0,1,.24.43.44.44,0,0,1-.3.38,12.77,12.77,0,0,1-11.39-2.25A39.72,39.72,0,0,0,148,243.66a.51.51,0,0,1-.4.82Zm0-.86ZM137.29,238a23.77,23.77,0,0,0,4.19,3.81,11,11,0,0,0,1.87,1.1,7.22,7.22,0,0,0,1,.34c.17.05,1,.12,1.61.18l.84.07a40.57,40.57,0,0,1-7.26-16.7.44.44,0,0,1,.23-.46.42.42,0,0,1,.51.08,11.86,11.86,0,0,0,10.44,3.18,14.73,14.73,0,0,1-6.55-8.37.42.42,0,0,1,.1-.43.46.46,0,0,1,.43-.11,5.83,5.83,0,0,0,3,0l.12,0-.08,0-.85-.32a16.76,16.76,0,0,1-2.92-1.29,5.58,5.58,0,0,1-2.49-2.78,1.34,1.34,0,0,1,.09-1.11,35.8,35.8,0,0,0,2.61-5.33c1.55-4.23,1.57-8.9,1.58-13.42,0-.59,0-1.17,0-1.75,0-2.1,0-4.24-.05-6.34a7.58,7.58,0,0,0-.42-2.69,2.89,2.89,0,0,0-2.12-1.93,4.75,4.75,0,0,0-1.62.18c-6.48,1.5-13.82,3.21-19.45,7.48a10.19,10.19,0,0,0-2.57,3.46,8.59,8.59,0,0,0-.8,2.17.71.71,0,0,1-1,.5,3.6,3.6,0,0,0-1-.33,14.45,14.45,0,0,0-3.47-.53c2,1.84,4.1,3.56,6.18,5.23,3.61,2.89,7.35,5.88,10.19,9.61.77,1,1.48,2.08,2.16,3.12a35,35,0,0,0,3.2,4.37.45.45,0,0,1,.05.51.44.44,0,0,1-.47.2c-.77-.16-1.53-.35-2.29-.56,2.94,2.29,5.26,5.82,5.65,8.94a.44.44,0,0,1-.84.23,3.31,3.31,0,0,0-1.78-1.71,13.26,13.26,0,0,1,1,3.19,20.05,20.05,0,0,0,.53,2.06,19.39,19.39,0,0,0,4,6,.45.45,0,0,1,.06.47.43.43,0,0,1-.41.25A10.4,10.4,0,0,1,137.29,238Zm-19.48-41.14h0Z" transform="translate(-2.05 -144)"/><path class="cls-5" d="M103.8,268.67a8.2,8.2,0,0,1-2-.25,19.74,19.74,0,0,1-5-2.24c-.62-.36-1.23-.74-1.85-1.12a40.06,40.06,0,0,0-4.72-2.64.43.43,0,0,1-.22-.57.44.44,0,0,1,.58-.22,41.55,41.55,0,0,1,4.82,2.69c.62.38,1.22.76,1.83,1.12a19.52,19.52,0,0,0,4.77,2.14,7.88,7.88,0,0,0,4.32-.17,8.54,8.54,0,0,0,3.78-2.41,9.89,9.89,0,0,0,2.22-8.35,12.26,12.26,0,0,0-4.82-7.42,29.34,29.34,0,0,0-2.78-1.73,24.37,24.37,0,0,1-3.24-2.08,11,11,0,0,1-2.9-4.47c-.15-.36-.29-.73-.42-1.1s-.37-1-.58-1.46a5.16,5.16,0,0,0-1.5-2,12,12,0,0,0-5.68-1.62.44.44,0,0,1-.44-.44.44.44,0,0,1,.44-.43,12.68,12.68,0,0,1,6.21,1.8A6,6,0,0,1,98.35,238c.23.5.42,1,.61,1.52s.26.72.41,1.07a10.29,10.29,0,0,0,2.63,4.13,25.67,25.67,0,0,0,3.14,2,27.78,27.78,0,0,1,2.86,1.79,13.12,13.12,0,0,1,5.16,8,10.77,10.77,0,0,1-2.44,9.09,9.34,9.34,0,0,1-4.16,2.65A8.8,8.8,0,0,1,103.8,268.67Z" transform="translate(-2.05 -144)"/><path class="cls-5" d="M77.27,268.47a9,9,0,0,1-2.18-.27,9.51,9.51,0,0,1-4.75-2.81,10.83,10.83,0,0,1-2.43-9.11,13.18,13.18,0,0,1,5.15-7.95,28.92,28.92,0,0,1,2.87-1.78,23.8,23.8,0,0,0,3.13-2,10.31,10.31,0,0,0,2.64-4.12c.15-.37.29-.74.43-1.11s.36-1,.58-1.48a6.11,6.11,0,0,1,1.76-2.38,11.46,11.46,0,0,1,5.91-1.6.44.44,0,0,1,.44.43.44.44,0,0,1-.44.44A10.64,10.64,0,0,0,85,236.14a5.13,5.13,0,0,0-1.49,2c-.21.47-.39.95-.56,1.43l-.44,1.14a11.07,11.07,0,0,1-2.9,4.47,25.52,25.52,0,0,1-3.25,2.08A27.44,27.44,0,0,0,73.58,249a12.22,12.22,0,0,0-4.81,7.41A9.9,9.9,0,0,0,71,264.8a8.67,8.67,0,0,0,4.31,2.56,7.72,7.72,0,0,0,3.79,0,17.84,17.84,0,0,0,4.43-2c.63-.37,1.26-.76,1.89-1.15a28.08,28.08,0,0,1,4.82-2.61.44.44,0,0,1,.56.25.43.43,0,0,1-.26.56A29.35,29.35,0,0,0,85.87,265c-.63.4-1.27.79-1.91,1.17a18.87,18.87,0,0,1-4.66,2.09A8.06,8.06,0,0,1,77.27,268.47Z" transform="translate(-2.05 -144)"/><path d="M90.35,263.76h0c-.24,0-.43-.29-.42-.63l.06-3.8c0-.34.21-.59.45-.6s.43.29.43.63l-.07,3.8C90.78,263.49,90.58,263.76,90.35,263.76Z" transform="translate(-2.05 -144)"/></svg>