<svg xmlns="http://www.w3.org/2000/svg" viewBox="0 0 462.57 356"><defs><style>.cls-1{fill:#c43030;}.cls-2{fill:#fcfcfc;}.cls-3{fill:#161616;}.cls-4{fill:#fff;}.cls-5{fill:#9b0000;}.cls-6{fill:#f9f9f9;}.cls-7{fill:none;stroke:#fff;stroke-linecap:round;stroke-linejoin:round;stroke-width:2px;}</style></defs><g id="Слой_4" data-name="Слой 4"><path class="cls-1" d="M394.88,199.1l-.13.36c14.38,6.24,29.06,23.5,31,39.06A14.27,14.27,0,0,0,414,230.2c4.93,6.45,5.09,15.22,7.67,22.92,3,8.91,9.24,16.32,15.35,23.48a37.24,37.24,0,0,1-17.42-5.06,91.78,91.78,0,0,0,20.44,20.21,40.13,40.13,0,0,0,7.33,4.32l-.12.26c-.36,7.83,4,18.23,8.08,25,4.56,7.61,9.36,15.46,16.66,20.52,2.09,1.43,4.7,3.71,3.48,5.93-.93,1.74-3.43,1.67-5.36,1.28a74.6,74.6,0,0,1-20.89-7.7c8.8,6.61,10.81,18.86,11.17,29.86.21,7,.05,14.07-2,20.74-3.24,10.41-10.77,18.83-18.1,26.89a66,66,0,0,0-22.56-41.68c-2.44-2.07-5.45-4.08-8.6-3.5,7.69,9.75,10.53,23.2,10.13,35.61a4.27,4.27,0,0,1-.7,2.64c-1.27,1.56-3.76.79-5.55-.13-11.4-5.86-22.71-12.89-35.47-14.12-4.17-.41-8.93.07-11.61,3.3,2.38,1.19,3.67,3,5.57,4.83a8.69,8.69,0,0,1,2.92,7.13A89.81,89.81,0,0,0,347,408.11a29.86,29.86,0,0,1,2.46,13.08c-7.16-2.77-13.66-7-20.64-10.18s-25-11.23-32.54-9.6c4.76-3.5,7.14-7.36,9.85-11.49l3-1A33.92,33.92,0,0,0,324,379.31c7.9-8.78,11-21.44,8.77-33.05S323.5,324.21,314,317.17c-7.2-5.34-15.65-8.82-22.65-14.4-4.89-3.91-8-10.49-10.42-16.27-1.33-3.24-2.35-6.59-3.79-9.77a21.34,21.34,0,0,0-6.13-8.38c-4.71-3.61-15.83-6.5-22.39-6.5s-16.54,2.12-21.25,5.73a21.51,21.51,0,0,0-6.12,8.38c-1.45,3.18-2.45,6.53-3.79,9.76C215.07,291.5,212,298.09,207,302c-7,5.59-15.45,9.07-22.64,14.4-9.48,7.05-16.58,17.49-18.77,29.1s.87,24.28,8.77,33.06a34.07,34.07,0,0,0,17.06,10.17l3-.45c2.59,3.9,4.05,8.15,8.21,11.5L201,401.41c-8.21,0-22.46,6.58-29.43,9.77s-13.48,7.4-20.64,10.18a30,30,0,0,1,2.46-13.09,90.17,90.17,0,0,0-27.48,4.78,8.71,8.71,0,0,1,2.92-7.13c1.9-1.85,3.18-3.64,5.56-4.82-2.67-3.24-7.43-3.71-11.6-3.3C110,399,98.73,406.06,87.33,411.92c-1.79.92-4.28,1.7-5.55.13a4.3,4.3,0,0,1-.7-2.65c-.4-12.41,2.44-25.85,10.14-35.61-3.15-.57-6.17,1.43-8.62,3.5A66,66,0,0,0,60,419c-7.32-8.07-14.84-16.5-18.07-26.91-2.09-6.66-2.25-13.76-2-20.73.34-11,2.35-23.25,11.15-29.87a74,74,0,0,1-20.89,7.7c-1.94.4-4.43.46-5.37-1.26-1.21-2.24,1.4-4.52,3.48-5.95,7.31-5.05,12.1-12.9,16.67-20.52,4-6.71,8.44-17.12,8.08-25l-.12-.26a39.18,39.18,0,0,0,7.32-4.32A91,91,0,0,0,80.72,271.7a37.19,37.19,0,0,1-17.42,5.06c6.1-7.16,12.36-14.56,15.35-23.48,2.57-7.7,2.74-16.47,7.66-22.92a14.28,14.28,0,0,0-11.7,8.33c1.94-15.57,16.61-32.83,31-39.06l-.14-.37a148.53,148.53,0,0,1-20.21,5.9c7.8-8.65,13.19-19.19,20.25-28.49,17.47-23,43.51-38.19,64.05-58.5-5.67-1-11.43.36-17,1.68a16.76,16.76,0,0,0-4.27,1.44,1,1,0,0,1-1.44-.7,36.66,36.66,0,0,0-3.55-9.48L145,111c1.64-3.29,6.49-4.85,10.11-6.51,2.34-1.06,4.85-2.29,5.91-4.63S160.51,94,158,94.35a19.37,19.37,0,0,1,20.41,2.09c.57.45,1.25,1,2,.82a2.29,2.29,0,0,0,1.28-1.19q4.17-6.5,8.29-13c2.06,3.86,7.18,4.83,11.53,4.4,2.91-.29,6-1.18,7.72-3.55s1-6.48-1.83-7.2c8.54-2.17,36.19-.23,42.76,6.33l.18-.16c6.57-6.57,34.23-8.5,42.75-6.34-2.82.72-3.53,4.85-1.82,7.21S296,87,298.93,87.29c4.34.44,9.46-.53,11.51-4.38,2.76,4.33,5.54,8.67,8.29,13A2.26,2.26,0,0,0,320,97.09c.7.17,1.37-.36,2-.82a19.41,19.41,0,0,1,20.41-2.1c-2.53-.35-4.12,3.17-3.06,5.5s3.58,3.56,5.91,4.61c3.63,1.68,8.48,3.24,10.12,6.52l1.36,1a35,35,0,0,0-3.17,8.67,1,1,0,0,1-1.44.71,17,17,0,0,0-4.27-1.45c-5.58-1.31-11.36-2.64-17-1.67,20.54,20.31,46.58,35.5,64.05,58.5,7.06,9.29,12.45,19.82,20.24,28.48A150.79,150.79,0,0,1,394.88,199.1Zm1.66,152c3-12,3.32-24.93-.47-36.75s-11.91-22.44-23-28a24,24,0,0,0-10-2.89c-8.86-.33-17.24,7.3-17.76,16.15-.63,10.86,8.6,19.39,13.36,29.16a37.62,37.62,0,0,1,2.65,25.37c-1.81,7.24-6,13-10.46,18.82-2.38,3.12-8.52,8.91-8.41,13.2.28,11.21,27.62-4.06,31.62-6.57,6.08-3.79,12.17-7.95,16.27-13.81A43.88,43.88,0,0,0,396.54,351.14ZM348.47,248c.41-8-6.91-14.73-14.71-16.49s-15.94.17-23.71,2.11c-1.22-4.67,7-7.33,6.57-12.12-6.39-2.43-13.76-1.23-19.71,2.13s-10.57,8.67-14.2,14.45c-4.33,6.88-11.1,30.34,5.85,24,3.71-1.38,6.66-4.19,10.06-6.22,6.78-4,15-4.78,22.92-4.59s15.83,1.19,23.66.2a4.27,4.27,0,0,0,2.2-.72A3.78,3.78,0,0,0,348.47,248Zm-13.78,33.46c2.35-3,4-8.9,3.78-12.71a60,60,0,0,0-13.22-7.49,25.72,25.72,0,0,0-14.95-1.33,21.65,21.65,0,0,0-13.71,11,25.45,25.45,0,0,0-1.89,17.65c6,4.43,14.48,6.58,21.72,4.91A33.17,33.17,0,0,0,334.69,281.44ZM211.8,262.26c16.94,6.31,10.18-17.16,5.86-24-3.64-5.78-8.27-11.1-14.22-14.45s-13.31-4.57-19.7-2.14c-.41,4.8,7.78,7.46,6.57,12.12-7.77-1.94-15.89-3.88-23.69-2.1s-15.14,8.49-14.73,16.48a3.77,3.77,0,0,0,1.07,2.79,4.22,4.22,0,0,0,2.2.73c7.83,1,15.76,0,23.66-.2S195,252,201.75,256C205.13,258.08,208.11,260.88,211.8,262.26Zm-6.14,26.5a25.4,25.4,0,0,0-1.89-17.65,21.63,21.63,0,0,0-13.71-11,25.64,25.64,0,0,0-14.95,1.33,59.55,59.55,0,0,0-13.22,7.49c-.23,3.8,1.43,9.68,3.77,12.7a33.23,33.23,0,0,0,18.28,12.07C191.18,295.35,199.68,293.19,205.66,288.76Zm-47.79,97.56c.11-4.28-6-10.08-8.41-13.2-4.45-5.81-8.65-11.58-10.46-18.82a37.65,37.65,0,0,1,2.64-25.36c4.77-9.77,14-18.31,13.37-29.16-.51-8.85-8.9-16.49-17.77-16.16a24.21,24.21,0,0,0-10,2.89c-11.08,5.6-19.2,16.22-23,28.05s-3.48,24.7-.47,36.74A43.91,43.91,0,0,0,110,366c4.11,5.86,10.2,10,16.27,13.82C130.25,382.27,157.59,397.53,157.87,386.32Z" transform="translate(-19.21 -67)"/><path class="cls-2" d="M480.14,244.73a45.9,45.9,0,0,1-45-11.46,152.59,152.59,0,0,0,28.93,65.1.28.28,0,0,1-.28.46c-2.69-.46-11.13-1-12.59-1.4a28.38,28.38,0,0,1-3.81-1.36,40.13,40.13,0,0,1-7.33-4.32,91.78,91.78,0,0,1-20.44-20.21,37.24,37.24,0,0,0,17.42,5.06C431,269.44,424.7,262,421.71,253.12c-2.58-7.7-2.74-16.47-7.67-22.92a14.27,14.27,0,0,1,11.71,8.32c-1.94-15.56-16.62-32.82-31-39.06l.13-.36A150.79,150.79,0,0,0,415.09,205c-7.79-8.66-13.18-19.19-20.24-28.48-17.47-23-43.51-38.19-64.05-58.5,5.67-1,11.45.36,17,1.67a17,17,0,0,1,4.27,1.45,1,1,0,0,0,1.44-.71,35,35,0,0,1,3.17-8.67c2.48-5,6.17-10.67,10.16-13.71C388,81.9,414.82,75.49,440.74,69.44a18.4,18.4,0,0,1,6.67-.7c4.33.59,7.75,4.23,9.32,8.3a31.48,31.48,0,0,1,1.68,10.76q.29,12,.19,24.07c-.18,19.34.59,39.63-6.09,58-2.58,7.11-6.24,13.79-9.93,20.41a3.44,3.44,0,0,0-.23,2.84c1.49,4.14,4.83,7.37,8.67,9.7,4.33,2.61,9.23,4.12,13.94,5.95.77.29,1.66.75,1.72,1.57.08,1-1.08,1.58-2.05,1.81a23.85,23.85,0,0,1-12.1-.18A53.91,53.91,0,0,0,480.14,244.73ZM437.59,96c1.46-3.76,2.41-8.55-.46-11.36-4.4,3.71-8.87,7.46-14,10-3.74,1.91-7.78,3.14-11.66,4.77a65,65,0,0,0-16.73,10.24c-5.58,4.73-10.55,10.66-12.67,17.8-3.47,11.69.51,18.85,6.91,28.14,8.26,12,18.36,22.36,28.7,32.59a44.47,44.47,0,0,0,3.91,3.6,2.86,2.86,0,0,0,1.65.78c1.76,0,2.14-2.44,1.94-4.18-.42-3.58-.74-7.18-.93-10.79a12.15,12.15,0,0,1,.54-5.5c.75-1.81,2.26-3.17,3.45-4.73a14.34,14.34,0,0,0,1.59-14.2,5.71,5.71,0,0,1-3.3,4.88,4.88,4.88,0,0,1-5.62-1.33c-1.24-1.56-1.29-3.75-1-5.72a22.45,22.45,0,0,1,16.74-18.34c-1.28-3.62-5.5-5.63-9.34-5.33s-7.31,2.49-10.2,5c-.42-4.72,1.78-9.34,4.63-13.15s6.39-7,9.25-10.85A51.44,51.44,0,0,0,437.59,96Z" transform="translate(-19.21 -67)"/><path class="cls-3" d="M437.13,84.66c2.87,2.81,1.92,7.6.46,11.36a51.44,51.44,0,0,1-6.6,12.4c-2.86,3.81-6.39,7.06-9.25,10.85s-5.05,8.43-4.63,13.15c2.89-2.56,6.36-4.74,10.2-5s8.06,1.71,9.34,5.33A22.45,22.45,0,0,0,419.91,151c-.28,2-.23,4.16,1,5.72a4.88,4.88,0,0,0,5.62,1.33,5.71,5.71,0,0,0,3.3-4.88,14.34,14.34,0,0,1-1.59,14.2c-1.19,1.56-2.7,2.92-3.45,4.73a12.15,12.15,0,0,0-.54,5.5c.19,3.61.51,7.21.93,10.79.2,1.74-.18,4.22-1.94,4.18a2.86,2.86,0,0,1-1.65-.78,44.47,44.47,0,0,1-3.91-3.6C407.35,178,397.25,167.66,389,155.64c-6.4-9.29-10.38-16.45-6.91-28.14,2.12-7.14,7.09-13.07,12.67-17.8a65,65,0,0,1,16.73-10.24c3.88-1.63,7.92-2.86,11.66-4.77C428.26,92.12,432.73,88.37,437.13,84.66Z" transform="translate(-19.21 -67)"/><path class="cls-4" d="M396.07,314.39c3.79,11.82,3.48,24.71.47,36.75a43.88,43.88,0,0,1-6.16,14.64c-4.1,5.86-10.19,10-16.27,13.81-4,2.51-31.34,17.78-31.62,6.57-.11-4.29,6-10.08,8.41-13.2,4.45-5.82,8.65-11.58,10.46-18.82a37.62,37.62,0,0,0-2.65-25.37c-4.76-9.77-14-18.3-13.36-29.16.52-8.85,8.9-16.48,17.76-16.15a24,24,0,0,1,10,2.89C384.16,292,392.27,302.57,396.07,314.39Z" transform="translate(-19.21 -67)"/><path class="cls-4" d="M333.76,231.49c7.8,1.76,15.12,8.49,14.71,16.49a3.78,3.78,0,0,1-1.07,2.79,4.27,4.27,0,0,1-2.2.72c-7.83,1-15.76,0-23.66-.2s-16.14.55-22.92,4.59c-3.4,2-6.35,4.84-10.06,6.22-16.95,6.3-10.18-17.16-5.85-24,3.63-5.78,8.26-11.1,14.2-14.45s13.32-4.56,19.71-2.13c.42,4.79-7.79,7.45-6.57,12.12C317.82,231.66,325.94,229.72,333.76,231.49Z" transform="translate(-19.21 -67)"/><path d="M338.47,268.73c.23,3.81-1.43,9.69-3.78,12.71a33.17,33.17,0,0,1-18.27,12.07c-7.24,1.67-15.75-.48-21.72-4.91A25.45,25.45,0,0,1,296.59,271a21.65,21.65,0,0,1,13.71-11,25.72,25.72,0,0,1,14.95,1.33A60,60,0,0,1,338.47,268.73ZM321.67,273a8.07,8.07,0,0,0-6.22-7.59,9.93,9.93,0,0,0-9.21,3.06h0l-.28.3a6.28,6.28,0,0,0-1.67,2.62,6.81,6.81,0,0,0,1.41,6.65,8.64,8.64,0,0,0,4.09,2.4,10.36,10.36,0,0,0,7.85-.84A8.06,8.06,0,0,0,321.67,273Z" transform="translate(-19.21 -67)"/><path class="cls-5" d="M306.24,268.44a9.93,9.93,0,0,1,9.21-3.06,7.6,7.6,0,0,1,2.17,14.2,10.36,10.36,0,0,1-7.85.84,8.64,8.64,0,0,1-4.09-2.4,6.81,6.81,0,0,1-1.41-6.65,6.28,6.28,0,0,1,1.67-2.62l.28-.3Z" transform="translate(-19.21 -67)"/><path class="cls-4" d="M295.34,400.37c-13.93,10.79-34.63,17.94-46.62,18-12.2.08-31.52-7.47-44.61-18.61a49.1,49.1,0,0,1-9.75-10.88l.28-1.2a27.4,27.4,0,0,0,14.24.08c5.47-1.47,10.87-4.41,16.18-7.72l.36.64c5.08,7,15.7,11.51,23.3,11.47S267,387.78,272,380.7l.25-.44c5.73,3.56,11.48,6.69,17.38,8.28a28.06,28.06,0,0,0,16.25-.68l.29,1A45.16,45.16,0,0,1,295.34,400.37Z" transform="translate(-19.21 -67)"/><path class="cls-4" d="M248.63,366.93c-8,3-16.36,9-25,14.14-5.61,3.31-11.33,6.25-17.11,7.73a30.55,30.55,0,0,1-15-.08,34.07,34.07,0,0,1-17.06-10.17c-7.9-8.78-10.94-21.45-8.77-33.06s9.29-22.05,18.77-29.1c7.19-5.33,15.65-8.81,22.64-14.4,4.91-3.9,8-10.49,10.43-16.27,1.34-3.23,2.34-6.58,3.79-9.76a21.51,21.51,0,0,1,6.12-8.38c4.71-3.61,14.68-5.73,21.25-5.73s17.68,2.89,22.39,6.5a21.34,21.34,0,0,1,6.13,8.38c1.44,3.18,2.46,6.53,3.79,9.77,2.4,5.78,5.53,12.36,10.42,16.27,7,5.58,15.45,9.06,22.65,14.4,9.49,7,16.6,17.48,18.76,29.09s-.87,24.27-8.77,33.05a33.92,33.92,0,0,1-14.94,9.57,31.16,31.16,0,0,1-17.17.67c-6.24-1.59-12.31-4.72-18.37-8.29C265.31,376.39,257.13,370.71,248.63,366.93Zm0-11.49c2.26.05,11.51,1.93,16.42-1.64a12.93,12.93,0,0,0,3.28-3.76c.82-1.2,1.54-2.48,2.27-3.75a133.25,133.25,0,0,0,6.84-13.08c1.13-2.6,2.09-5.68.72-8.18a6.78,6.78,0,0,0-4.31-3c-1.74-.44-18.66-1-25.22-1v0c-6.24,0-19.61.06-24.47,1.31a6.67,6.67,0,0,0-4.31,3c-1.37,2.48-.41,5.56.72,8.17a134.55,134.55,0,0,0,6.84,13.09c.73,1.26,1.45,2.53,2.27,3.73s2.45,2.26,4.17,3.53C238.76,357.37,246.36,355.49,248.63,355.44Z" transform="translate(-19.21 -67)"/><path d="M248.63,321c6.56,0,23.48.59,25.22,1a6.78,6.78,0,0,1,4.31,3c1.37,2.5.41,5.58-.72,8.18a133.25,133.25,0,0,1-6.84,13.08c-.73,1.27-1.45,2.55-2.27,3.75a12.93,12.93,0,0,1-3.28,3.76c-4.91,3.57-14.16,1.69-16.42,1.64s-9.87,1.93-14.78-1.64c-1.72-1.27-3.25-2.2-4.17-3.53s-1.54-2.47-2.27-3.73a134.55,134.55,0,0,1-6.84-13.09c-1.13-2.61-2.09-5.69-.72-8.17a6.67,6.67,0,0,1,4.31-3c4.86-1.25,18.23-1.35,24.47-1.31Z" transform="translate(-19.21 -67)"/><path class="cls-2" d="M217.66,238.23c4.32,6.87,11.08,30.34-5.86,24-3.69-1.38-6.67-4.18-10.05-6.22-6.79-4-15-4.78-22.93-4.58s-15.83,1.18-23.66.2a4.22,4.22,0,0,1-2.2-.73,3.77,3.77,0,0,1-1.07-2.79c-.41-8,6.91-14.73,14.73-16.48s15.92.16,23.69,2.1c1.21-4.66-7-7.32-6.57-12.12,6.39-2.43,13.78-1.23,19.7,2.14S214,232.45,217.66,238.23Z" transform="translate(-19.21 -67)"/><path d="M203.77,271.11a25.4,25.4,0,0,1,1.89,17.65c-6,4.43-14.48,6.59-21.72,4.91a33.23,33.23,0,0,1-18.28-12.07c-2.34-3-4-8.9-3.77-12.7a59.55,59.55,0,0,1,13.22-7.49,25.64,25.64,0,0,1,14.95-1.33A21.63,21.63,0,0,1,203.77,271.11Zm-9.09,7.09a6.87,6.87,0,0,0,1.41-6.66,6.23,6.23,0,0,0-1.68-2.63,1.3,1.3,0,0,0-.28-.29s0,0,0,0a9.91,9.91,0,0,0-9.21-3.05,7.6,7.6,0,0,0-2.17,14.2,10.4,10.4,0,0,0,7.85.84A8.87,8.87,0,0,0,194.68,278.2Z" transform="translate(-19.21 -67)"/><path class="cls-6" d="M194.12,268.6s0,0,0,0a1.3,1.3,0,0,1,.28.29,6.23,6.23,0,0,1,1.68,2.63,6.87,6.87,0,0,1-1.41,6.66,8.87,8.87,0,0,1-4.09,2.39,10.4,10.4,0,0,1-7.85-.84,7.6,7.6,0,0,1,2.17-14.2A9.91,9.91,0,0,1,194.12,268.6Z" transform="translate(-19.21 -67)"/><path class="cls-4" d="M149.46,373.12c2.38,3.12,8.52,8.92,8.41,13.2-.28,11.21-27.62-4.05-31.63-6.55-6.07-3.81-12.16-8-16.27-13.82a43.91,43.91,0,0,1-6.15-14.65c-3-12-3.32-24.92.47-36.74s11.91-22.45,23-28.05a24.21,24.21,0,0,1,10-2.89c8.87-.33,17.26,7.31,17.77,16.16.62,10.85-8.6,19.39-13.37,29.16A37.65,37.65,0,0,0,139,354.3C140.81,361.54,145,367.31,149.46,373.12Z" transform="translate(-19.21 -67)"/><path class="cls-5" d="M118.28,127.66c3.48,11.69-.51,18.85-6.91,28.14-8.26,12-18.36,22.37-28.68,32.6A49.47,49.47,0,0,1,78.76,192a2.93,2.93,0,0,1-1.66.79c-1.75,0-2.13-2.45-1.92-4.19q.61-5.37.94-10.78a12.43,12.43,0,0,0-.56-5.5c-.74-1.81-2.27-3.16-3.45-4.73a14.36,14.36,0,0,1-1.59-14.21,5.68,5.68,0,0,0,3.3,4.88,4.86,4.86,0,0,0,5.61-1.33c1.25-1.56,1.3-3.74,1-5.71a22.5,22.5,0,0,0-16.76-18.34c1.28-3.63,5.5-5.63,9.34-5.34s7.3,2.5,10.19,5.06c.45-4.73-1.77-9.34-4.63-13.15s-6.38-7-9.22-10.86a50.75,50.75,0,0,1-6.62-12.39c-1.46-3.76-2.41-8.56.48-11.36,4.4,3.71,8.85,7.45,14,10C81,96.76,85,98,88.88,99.62a64.49,64.49,0,0,1,16.73,10.25C111.2,114.59,116.18,120.52,118.28,127.66Z" transform="translate(-19.21 -67)"/><path class="cls-5" d="M49.14,297.59c-1.46.42-9.9.94-12.59,1.4a.28.28,0,0,1-.28-.46,152.48,152.48,0,0,0,28.93-65.1,45.89,45.89,0,0,1-45,11.46,53.84,53.84,0,0,0,27.62-32.74,23.74,23.74,0,0,1-12.1.18c-1-.23-2.14-.82-2-1.8.06-.82,1-1.28,1.72-1.58,4.73-1.82,9.61-3.33,13.94-5.94,3.84-2.33,7.17-5.57,8.67-9.71a3.45,3.45,0,0,0-.23-2.84c-3.7-6.61-7.36-13.29-9.93-20.4-6.69-18.39-5.92-38.69-6.1-58Q41.66,100,42,88a31.27,31.27,0,0,1,1.68-10.73c1.57-4.09,5-7.74,9.32-8.33a18.45,18.45,0,0,1,6.67.71c25.92,6,52.72,12.46,73.88,28.6,3.78,2.87,7.27,8.06,9.77,12.9a36.66,36.66,0,0,1,3.55,9.48,1,1,0,0,0,1.44.7,16.76,16.76,0,0,1,4.27-1.44c5.6-1.32,11.36-2.65,17-1.68-20.54,20.31-46.58,35.5-64,58.5-7.06,9.3-12.45,19.84-20.25,28.49a148.53,148.53,0,0,0,20.21-5.9l.14.37c-14.39,6.23-29.06,23.49-31,39.06a14.28,14.28,0,0,1,11.7-8.33c-4.92,6.45-5.09,15.22-7.66,22.92-3,8.92-9.25,16.32-15.35,23.48a37.19,37.19,0,0,0,17.42-5.06,91,91,0,0,1-20.45,20.21A39.18,39.18,0,0,1,53,296.23,25.14,25.14,0,0,1,49.14,297.59ZM111.37,155.8c6.4-9.29,10.39-16.45,6.91-28.14-2.1-7.14-7.08-13.07-12.67-17.79A64.49,64.49,0,0,0,88.88,99.62C85,98,81,96.76,77.22,94.86c-5.12-2.58-9.57-6.32-14-10-2.89,2.8-1.94,7.6-.48,11.36a50.75,50.75,0,0,0,6.62,12.39c2.84,3.81,6.37,7.06,9.22,10.86s5.08,8.42,4.63,13.15c-2.89-2.56-6.35-4.75-10.19-5.06s-8.06,1.71-9.34,5.34a22.5,22.5,0,0,1,16.76,18.34c.26,2,.21,4.15-1,5.71a4.86,4.86,0,0,1-5.61,1.33,5.68,5.68,0,0,1-3.3-4.88,14.36,14.36,0,0,0,1.59,14.21c1.18,1.57,2.71,2.92,3.45,4.73a12.43,12.43,0,0,1,.56,5.5q-.33,5.41-.94,10.78c-.21,1.74.17,4.22,1.92,4.19a2.93,2.93,0,0,0,1.66-.79,49.47,49.47,0,0,0,3.93-3.59C93,178.17,103.11,167.82,111.37,155.8Z" transform="translate(-19.21 -67)"/><path d="M248.63,366.93c8.5,3.78,16.68,9.46,24.89,14.33l-.26.45c-5.32,7.09-16.6,11.46-24.63,11.49s-19.26-4.45-24.63-11.49l-.38-.64C232.27,375.94,240.66,369.92,248.63,366.93Z" transform="translate(-19.21 -67)"/><path class="cls-1" d="M145,112.61a1.58,1.58,0,0,1-.73-.18,1.64,1.64,0,0,1-.74-2.2c1.64-3.27,5.57-5,9-6.45.64-.27,1.27-.54,1.86-.81,2.32-1.06,4.31-2.08,5.1-3.82a2.82,2.82,0,0,0-.35-2.65,1,1,0,0,0-1-.52,1.64,1.64,0,0,1-1-3.09,21.14,21.14,0,0,1,22.18,2.26c.14.11.4.32.58.43l.23-.36q4.18-6.54,8.31-13a1.66,1.66,0,0,1,1.45-.76,1.62,1.62,0,0,1,1.38.87c1.69,3.16,6.23,3.89,9.92,3.54,3.2-.33,5.4-1.3,6.55-2.88a3.78,3.78,0,0,0,.39-3.32,2,2,0,0,0-1.29-1.33,1.65,1.65,0,0,1-1.24-1.59,1.63,1.63,0,0,1,1.24-1.59c9.17-2.33,37.31-.24,44.32,6.76a1.64,1.64,0,1,1-2.32,2.33c-5.43-5.43-27.46-7.53-38-6.44a7.18,7.18,0,0,1,.33.74,7.09,7.09,0,0,1-.82,6.37c-1.72,2.37-4.7,3.79-8.88,4.21-4.93.49-9.06-.68-11.58-3.16q-3.5,5.5-7,11a3.8,3.8,0,0,1-2.31,1.9,4,4,0,0,1-3.34-1.14,17.85,17.85,0,0,0-15.49-3.11,6.05,6.05,0,0,1,.66,5.91c-1.37,3-4.46,4.4-6.72,5.44-.62.28-1.27.56-1.93.84-2.95,1.27-6.3,2.7-7.4,4.9A1.64,1.64,0,0,1,145,112.61Z" transform="translate(-19.21 -67)"/><path class="cls-1" d="M349.42,422.83a1.51,1.51,0,0,1-.59-.11,114.72,114.72,0,0,1-12.32-5.94c-2.74-1.46-5.57-3-8.41-4.27l-1.8-.83c-7-3.26-25.32-11.65-31.7-10.27-1,.21,1.64-.62,1.64-1.64,0-.84.64.1,1.45,0,6.91-1.41,19.1,3.86,30,8.92l1.79.82c2.93,1.35,5.8,2.88,8.58,4.36,3.16,1.68,6.4,3.42,9.72,4.86a28.14,28.14,0,0,0-2.32-10,1.65,1.65,0,0,1,.14-1.57,1.71,1.71,0,0,1,1.39-.73,90.89,90.89,0,0,1,25.66,4.1,8.28,8.28,0,0,0-2.26-3.63c-.5-.48-.95-1-1.39-1.42a13.34,13.34,0,0,0-3.77-3.12,1.64,1.64,0,0,1-.87-1.13,1.6,1.6,0,0,1,.34-1.38c2.59-3.13,7.1-4.48,13-3.89,11.09,1.07,21.09,6.38,30.76,11.51q2.64,1.41,5.3,2.78c1.4.72,3,1.17,3.52.56a3.2,3.2,0,0,0,.34-1.67c.43-13.51-3.14-26.1-9.78-34.53a1.65,1.65,0,0,1-.25-1.6,1.68,1.68,0,0,1,1.25-1c3.92-.71,7.38,1.69,9.95,3.86a67.81,67.81,0,0,1,22.61,39.28c6.17-6.88,12.59-14.61,15.42-23.72,2.05-6.6,2.15-13.61,1.94-20.2-.29-9.11-1.71-22-10.5-28.6a1.64,1.64,0,0,1,1.78-2.75,72.32,72.32,0,0,0,20.42,7.53c1.45.29,3.17.33,3.59-.45s-.67-2.22-3-3.8c-7.76-5.37-12.75-13.69-17.15-21-4.27-7.11-8.69-17.64-8.31-25.87a1.64,1.64,0,1,1,3.28.15c-.34,7.51,4,17.64,7.85,24,4.23,7.06,9,15.06,16.19,20,5,3.46,4.95,6.3,4,8.07-.64,1.18-2.43,3.06-7.14,2.1a76.06,76.06,0,0,1-13.72-4.2c4.76,7.54,5.72,17.29,6,24.7.21,6.87.1,14.21-2.1,21.28-3.4,10.95-11.39,19.74-18.44,27.51a1.65,1.65,0,0,1-2.85-.9,64.31,64.31,0,0,0-22-40.64,16.46,16.46,0,0,0-4-2.68c7.68,11.82,8.51,25.88,8.26,33.59a5.69,5.69,0,0,1-1.08,3.63c-1.51,1.88-4.27,2-7.56.29-1.78-.91-3.56-1.86-5.34-2.8-9.39-5-19.09-10.13-29.53-11.14-2.76-.27-6.28-.18-8.75,1.43a23.77,23.77,0,0,1,2.71,2.56c.41.43.84.88,1.3,1.33a10.28,10.28,0,0,1,3.4,8.51,1.62,1.62,0,0,1-.76,1.18,1.64,1.64,0,0,1-1.4.16,88.24,88.24,0,0,0-24.53-4.62,31.41,31.41,0,0,1,1.68,11.44,1.65,1.65,0,0,1-.74,1.31A1.68,1.68,0,0,1,349.42,422.83Z" transform="translate(-19.21 -67)"/><path class="cls-1" d="M150.94,423a1.67,1.67,0,0,1-.91-.27,1.64,1.64,0,0,1-.73-1.31A31.6,31.6,0,0,1,151,410a88,88,0,0,0-24.54,4.61,1.64,1.64,0,0,1-2.15-1.34,10.31,10.31,0,0,1,3.41-8.52c.46-.44.88-.89,1.29-1.32a23.77,23.77,0,0,1,2.71-2.56c-2.47-1.61-6-1.7-8.74-1.43-10.45,1-20.16,6.16-29.54,11.14q-2.67,1.43-5.34,2.81c-4.52,2.32-6.69.81-7.58-.3a5.78,5.78,0,0,1-1.06-3.62c-.25-7.71.58-21.77,8.27-33.58a16.62,16.62,0,0,0-4,2.66,64.38,64.38,0,0,0-22,40.66,1.64,1.64,0,0,1-2.84.9c-7-7.77-15-16.58-18.43-27.53-2.23-7.12-2.31-14.75-2.09-21.28.23-7.4,1.18-17.15,5.94-24.7a75.17,75.17,0,0,1-13.71,4.2c-4.71,1-6.49-.9-7.14-2.09-1-1.78-1.06-4.62,4-8.08,7.16-5,12-13,16.18-20,3.84-6.38,8.19-16.5,7.85-24a1.64,1.64,0,1,1,3.28-.15c.38,8.27-4.24,19.11-8.31,25.88C42,329.63,37,338,29.26,343.32c-2.31,1.58-3.41,3-3,3.81s2.13.74,3.6.44A72.18,72.18,0,0,0,50.3,340a1.64,1.64,0,0,1,1.78,2.75c-8.81,6.63-10.21,19.5-10.49,28.61-.21,6.25-.14,13.54,1.94,20.19,2.84,9.11,9.24,16.85,15.41,23.73A67.82,67.82,0,0,1,81.54,376c2.37-2,6-4.59,10-3.86a1.63,1.63,0,0,1,1.24,1,1.65,1.65,0,0,1-.25,1.6c-9.11,11.54-10,26.59-9.79,34.54a3.27,3.27,0,0,0,.33,1.66c.5.62,2.13.17,3.53-.55,1.77-.91,3.53-1.85,5.3-2.79,9.67-5.13,19.66-10.44,30.76-11.51,5.93-.59,10.44.76,13,3.89a1.64,1.64,0,0,1-.54,2.52,13.41,13.41,0,0,0-3.76,3.11c-.44.46-.89.94-1.39,1.42a8.37,8.37,0,0,0-2.27,3.64,91.32,91.32,0,0,1,25.66-4.11,1.77,1.77,0,0,1,1.4.73,1.63,1.63,0,0,1,.13,1.57,28.58,28.58,0,0,0-2.31,10c3.32-1.44,6.56-3.17,9.71-4.85,2.78-1.49,5.66-3,8.59-4.36l.41-.19c7.45-3.4,21.31-9.73,29.71-9.73.91,0,3.29-.91,3.29,0s.9,1.64,0,1.64c-7.7,0-24.93,8-31.63,11.07l-.41.19c-2.84,1.3-5.67,2.82-8.41,4.27a112.91,112.91,0,0,1-12.32,5.95A1.71,1.71,0,0,1,150.94,423Z" transform="translate(-19.21 -67)"/><path class="cls-4" d="M283.52,264.81a6.76,6.76,0,0,1-5.54-2.45c-4.88-6,.48-20.63,3.34-25.17h0c4.3-6.85,9.28-11.9,14.79-15,6.79-3.84,14.67-4.68,21.09-2.24a1.64,1.64,0,0,1,1.05,1.39c.28,3.09-1.94,5.3-3.89,7.25a14.64,14.64,0,0,0-2.43,2.86c6.95-1.7,14.63-3.26,22.19-1.55,8.22,1.85,16.45,9.16,16,18.17a5.23,5.23,0,0,1-1.66,4,5.72,5.72,0,0,1-3,1.09,94.93,94.93,0,0,1-17,.11c-2.3-.12-4.59-.24-6.88-.29-6.09-.15-15,.13-22.05,4.35-1.15.68-2.24,1.47-3.4,2.29a30.54,30.54,0,0,1-6.93,4.06A16.46,16.46,0,0,1,283.52,264.81Zm25.9-43a24,24,0,0,0-11.7,3.19c-5,2.84-9.61,7.51-13.62,13.89h0c-3.13,5-6.79,17.39-3.57,21.35,1.26,1.55,3.77,1.64,7.46.27a27.43,27.43,0,0,0,6.16-3.65c1.16-.83,2.36-1.68,3.63-2.44,7.81-4.65,17.32-5,23.8-4.82,2.32.06,4.65.18,7,.3a93,93,0,0,0,16.44-.09,3.12,3.12,0,0,0,1.37-.37c.14-.11.41-.49.46-1.59.37-7.29-6.54-13.25-13.43-14.8-7.63-1.74-15.77.3-22.95,2.09a1.65,1.65,0,0,1-2-1.18c-.86-3.31,1.5-5.67,3.58-7.75a10.6,10.6,0,0,0,2.82-3.64A18.88,18.88,0,0,0,309.42,221.85Zm-26.71,16.21h0Z" transform="translate(-19.21 -67)"/><path d="M311.31,295.71a30.25,30.25,0,0,1-17.59-5.79,1.65,1.65,0,0,1-.62-.93,27.28,27.28,0,0,1,2-18.8,23.29,23.29,0,0,1,14.77-11.87,27.2,27.2,0,0,1,15.93,1.39,62.34,62.34,0,0,1,13.59,7.68,1.66,1.66,0,0,1,.69,1.24c.26,4.36-1.58,10.55-4.12,13.82a34.75,34.75,0,0,1-19.2,12.66A24.68,24.68,0,0,1,311.31,295.71Zm-15.15-8.08c5.78,4.07,13.53,5.75,19.89,4.28a31.41,31.41,0,0,0,17.35-11.48c1.9-2.45,3.42-7.31,3.45-10.83a56.9,56.9,0,0,0-12.17-6.82,24,24,0,0,0-14-1.27A20,20,0,0,0,298,271.71,23.9,23.9,0,0,0,296.16,287.63Z" transform="translate(-19.21 -67)"/><path class="cls-4" d="M306.24,268.44h0l-.28.3a6.28,6.28,0,0,0-1.67,2.62,6.81,6.81,0,0,0,1.41,6.65,8.64,8.64,0,0,0,4.09,2.4,10.36,10.36,0,0,0,7.85-.84,7.6,7.6,0,0,0-2.17-14.2,9.93,9.93,0,0,0-9.21,3.06" transform="translate(-19.21 -67)"/><path d="M312.75,282.47a12.54,12.54,0,0,1-3.42-.47,10.25,10.25,0,0,1-4.87-2.88,8.43,8.43,0,0,1-1.75-8.27,7.85,7.85,0,0,1,2.05-3.24l.29-.31a11.6,11.6,0,0,1,10.77-3.52A9.24,9.24,0,0,1,318.44,281,11.46,11.46,0,0,1,312.75,282.47Zm-5.33-12.89,0,0-.17.18-.14.15a4.52,4.52,0,0,0-1.24,1.93,5.22,5.22,0,0,0,1.06,5,7.06,7.06,0,0,0,3.33,1.92,8.64,8.64,0,0,0,6.58-.68A6,6,0,0,0,315.08,267a8.24,8.24,0,0,0-7.64,2.58Z" transform="translate(-19.21 -67)"/><path class="cls-4" d="M347.38,391.84a7.92,7.92,0,0,1-3.79-.8,5.24,5.24,0,0,1-2.74-4.84c-.11-4,3.69-8.33,6.74-11.85.78-.9,1.48-1.71,2-2.39,4.57-6,8.49-11.45,10.17-18.22a36.1,36.1,0,0,0-2.52-24.25h0a81.56,81.56,0,0,0-5.32-8.84c-4.26-6.48-8.67-13.17-8.21-21.13.58-9.8,9.69-18.08,19.47-17.7a25.38,25.38,0,0,1,10.64,3.06c11,5.56,19.68,16.13,23.81,29,3.64,11.36,3.82,24.37.5,37.64-1.6,6.42-3.64,11.24-6.4,15.19C387.36,373,380.79,377.35,375,381,374.78,381.11,357.18,391.84,347.38,391.84Zm12.81-63.79A39.49,39.49,0,0,1,363,354.54c-1.84,7.37-6,13.15-10.75,19.41-.55.73-1.3,1.6-2.13,2.55-2.39,2.76-6,6.93-5.94,9.61,0,1.35.56,1.8,1,2,4.69,2.52,21.77-6,28.1-9.95,5.54-3.46,11.78-7.63,15.8-13.36,2.52-3.61,4.4-8.09,5.91-14.1,3.16-12.68,3-25.07-.45-35.85-3.86-12-11.94-21.91-22.16-27.08a22.2,22.2,0,0,0-9.28-2.71c-8-.25-15.6,6.67-16.07,14.61-.4,6.87,3.53,12.82,7.68,19.13a85,85,0,0,1,5.52,9.21Z" transform="translate(-19.21 -67)"/><path class="cls-3" d="M423.29,194.26h-.07a4.55,4.55,0,0,1-2.65-1.15,44.56,44.56,0,0,1-4-3.72c-10-9.89-20.48-20.58-28.89-32.82-6.51-9.44-10.83-17.08-7.14-29.54,1.95-6.57,6.39-12.82,13.19-18.58h0a66.16,66.16,0,0,1,17.16-10.51c1.44-.6,2.91-1.15,4.37-1.71a70.18,70.18,0,0,0,7.18-3c5-2.52,9.42-6.23,13.67-9.82a1.64,1.64,0,0,1,2.21.08c2.82,2.75,3.11,7.3.84,13.13a53.18,53.18,0,0,1-6.82,12.78c-1.48,2-3.14,3.81-4.74,5.59s-3.13,3.45-4.5,5.27a21.65,21.65,0,0,0-4.13,8.65,16.89,16.89,0,0,1,8.25-3.18c4.25-.31,9.38,1.78,11,6.43A1.64,1.64,0,0,1,437,134.3a20.92,20.92,0,0,0-15.49,17c-.29,2-.06,3.54.68,4.46a3.22,3.22,0,0,0,3.68.85,4.05,4.05,0,0,0,2.31-3.46,1.64,1.64,0,0,1,3.14-.58,15.88,15.88,0,0,1-1.78,15.86c-.39.51-.8,1-1.21,1.47a12,12,0,0,0-2,2.9,11,11,0,0,0-.42,4.77c.2,3.56.51,7.16.93,10.69.09.78.26,3.41-1.16,5A3.17,3.17,0,0,1,423.29,194.26ZM395.81,111c-6.3,5.35-10.39,11.07-12.16,17-3.28,11.08.52,17.78,6.69,26.74,8.25,12,18.6,22.56,28.5,32.35a43.84,43.84,0,0,0,3.77,3.48c.48.38.64.43.69.43a4.53,4.53,0,0,0,.26-2.36c-.43-3.59-.75-7.26-.94-10.88a13.56,13.56,0,0,1,.66-6.22,14.43,14.43,0,0,1,2.58-3.78c.37-.43.74-.86,1.08-1.31a12.71,12.71,0,0,0,2.42-8.32,6.91,6.91,0,0,1-2.18,1.5,6.48,6.48,0,0,1-7.55-1.83c-1.33-1.66-1.78-3.94-1.35-7a24,24,0,0,1,16-19.13,8.17,8.17,0,0,0-6.79-2.68c-2.91.24-6,1.81-9.24,4.65a1.64,1.64,0,0,1-2.72-1.08c-.41-4.55,1.25-9.35,4.95-14.28,1.47-2,3.11-3.76,4.69-5.51s3.16-3.49,4.56-5.34a50.15,50.15,0,0,0,6.38-12c1-2.64,1.88-6,.78-8.38a68.11,68.11,0,0,1-13,9.11,75.57,75.57,0,0,1-7.5,3.15c-1.43.53-2.86,1.07-4.26,1.66a63.16,63.16,0,0,0-16.31,10Z" transform="translate(-19.21 -67)"/><path class="cls-1" d="M355.35,112.44a1.65,1.65,0,0,1-1.47-.9c-1.09-2.19-4.42-3.63-7.35-4.89-.69-.3-1.35-.58-2-.88-2.69-1.21-5.43-2.63-6.72-5.41a6.07,6.07,0,0,1,.66-5.92A17.9,17.9,0,0,0,323,97.55a3.9,3.9,0,0,1-3.35,1.14,3.78,3.78,0,0,1-2.31-1.92l-7-11c-2.52,2.49-6.65,3.65-11.56,3.14-4.18-.4-7.18-1.81-8.9-4.2a7,7,0,0,1-.82-6.36,5,5,0,0,1,.33-.75c-10.48-1.09-32.52,1-37.95,6.44a1.64,1.64,0,0,1-2.32-2.32c7.39-7.39,36.16-8.84,44.32-6.77a1.64,1.64,0,0,1,0,3.18,2,2,0,0,0-1.29,1.34,3.78,3.78,0,0,0,.39,3.32c1.15,1.59,3.35,2.55,6.56,2.86,3.69.38,8.22-.36,9.9-3.53a1.66,1.66,0,0,1,1.39-.86,1.6,1.6,0,0,1,1.45.75l8.29,13c.11.19.2.3.25.38a6.05,6.05,0,0,0,.57-.42,20.91,20.91,0,0,1,22.18-2.28,1.64,1.64,0,0,1-1,3.09,1.05,1.05,0,0,0-1,.53,2.85,2.85,0,0,0-.35,2.66c.8,1.75,2.87,2.79,5.09,3.8l1.92.84c3.45,1.49,7.36,3.18,9,6.44a1.65,1.65,0,0,1-.74,2.2A1.57,1.57,0,0,1,355.35,112.44Z" transform="translate(-19.21 -67)"/><path class="cls-4" d="M49.14,297.59c-1.46.42-9.9.94-12.59,1.4a.28.28,0,0,1-.28-.46,152.48,152.48,0,0,0,28.93-65.1,45.89,45.89,0,0,1-45,11.46,53.84,53.84,0,0,0,27.62-32.74,23.74,23.74,0,0,1-12.1.18c-1-.23-2.14-.82-2-1.8.06-.82,1-1.28,1.72-1.58,4.73-1.82,9.61-3.33,13.94-5.94,3.84-2.33,7.17-5.57,8.67-9.71a3.45,3.45,0,0,0-.23-2.84c-3.7-6.61-7.36-13.29-9.93-20.4-6.69-18.39-5.92-38.69-6.1-58Q41.66,100,42,88a31.27,31.27,0,0,1,1.68-10.73c1.57-4.09,5-7.74,9.32-8.33a18.45,18.45,0,0,1,6.67.71c25.92,6,52.72,12.46,73.88,28.6,3.78,2.87,7.27,8.06,9.77,12.9a36.66,36.66,0,0,1,3.55,9.48,1,1,0,0,0,1.44.7,16.76,16.76,0,0,1,4.27-1.44c5.6-1.32,11.36-2.65,17-1.68-20.54,20.31-46.58,35.5-64,58.5-7.06,9.3-12.45,19.84-20.25,28.49a148.53,148.53,0,0,0,20.21-5.9l.14.37c-14.39,6.23-29.06,23.49-31,39.06a14.28,14.28,0,0,1,11.7-8.33c-4.92,6.45-5.09,15.22-7.66,22.92-3,8.92-9.25,16.32-15.35,23.48a37.19,37.19,0,0,0,17.42-5.06,91,91,0,0,1-20.45,20.21A39.18,39.18,0,0,1,53,296.23,25.14,25.14,0,0,1,49.14,297.59Z" transform="translate(-19.21 -67)"/><path class="cls-7" d="M105.61,199.63c-14.39,6.23-29.06,23.49-31,39.06a14.28,14.28,0,0,1,11.7-8.33c-4.92,6.45-5.09,15.22-7.66,22.92-3,8.92-9.25,16.32-15.35,23.48a37.19,37.19,0,0,0,17.42-5.06,91,91,0,0,1-20.45,20.21A39.18,39.18,0,0,1,53,296.23a25.14,25.14,0,0,1-3.81,1.36c-1.46.42-9.9.94-12.59,1.4a.28.28,0,0,1-.28-.46,152.48,152.48,0,0,0,28.93-65.1,45.89,45.89,0,0,1-45,11.46,53.84,53.84,0,0,0,27.62-32.74,23.74,23.74,0,0,1-12.1.18c-1-.23-2.14-.82-2-1.8.06-.82,1-1.28,1.72-1.58,4.73-1.82,9.61-3.33,13.94-5.94,3.84-2.33,7.17-5.57,8.67-9.71a3.45,3.45,0,0,0-.23-2.84c-3.7-6.61-7.36-13.29-9.93-20.4-6.69-18.39-5.92-38.69-6.1-58Q41.66,100,42,88a31.27,31.27,0,0,1,1.68-10.73c1.57-4.09,5-7.74,9.32-8.33a18.45,18.45,0,0,1,6.67.71c25.92,6,52.72,12.46,73.88,28.6,3.78,2.87,7.27,8.06,9.77,12.9a36.66,36.66,0,0,1,3.55,9.48,1,1,0,0,0,1.44.7,16.76,16.76,0,0,1,4.27-1.44c5.6-1.32,11.36-2.65,17-1.68-20.54,20.31-46.58,35.5-64,58.5-7.06,9.3-12.45,19.84-20.25,28.49a148.53,148.53,0,0,0,20.21-5.9,1.15,1.15,0,0,1,.17-.06" transform="translate(-19.21 -67)"/><path class="cls-4" d="M216.84,265a16.45,16.45,0,0,1-5.61-1.18,30.93,30.93,0,0,1-6.95-4.07c-1.15-.82-2.23-1.6-3.37-2.28-7.09-4.22-16-4.5-22-4.35-2.3.05-4.6.18-6.9.3a95.77,95.77,0,0,1-17-.12,5.73,5.73,0,0,1-3-1.07,5.28,5.28,0,0,1-1.67-4c-.46-9,7.77-16.31,16-18.16,7.53-1.72,15.21-.16,22.18,1.54a15.12,15.12,0,0,0-2.44-2.86c-1.95-1.94-4.16-4.15-3.89-7.24a1.62,1.62,0,0,1,1-1.39c6.43-2.45,14.31-1.61,21.09,2.24,5.5,3.09,10.48,8.14,14.8,15h0c2.86,4.55,8.2,19.18,3.32,25.18A6.74,6.74,0,0,1,216.84,265Zm-35.72-15.19c6.29,0,14.54.72,21.47,4.84,1.26.76,2.45,1.6,3.6,2.43a27.82,27.82,0,0,0,6.18,3.66c3.69,1.37,6.2,1.28,7.46-.26,3.21-3.95-.44-16.39-3.56-21.36-4-6.39-8.62-11.07-13.63-13.89-5.53-3.14-11.84-4-17.14-2.43a10.85,10.85,0,0,0,2.82,3.64c2.08,2.08,4.44,4.44,3.58,7.75a1.64,1.64,0,0,1-2,1.18c-7.18-1.79-15.32-3.82-22.93-2.09-6.91,1.55-13.82,7.51-13.45,14.8.05,1.1.32,1.48.48,1.61a3.44,3.44,0,0,0,1.36.36,93.77,93.77,0,0,0,16.42.09c2.33-.13,4.66-.25,7-.3Q179.89,249.79,181.12,249.79Z" transform="translate(-19.21 -67)"/><path d="M189.05,295.87a24.1,24.1,0,0,1-5.48-.6,34.7,34.7,0,0,1-19.2-12.65c-2.54-3.27-4.38-9.47-4.12-13.82a1.68,1.68,0,0,1,.69-1.25,62,62,0,0,1,13.59-7.68,27.17,27.17,0,0,1,15.92-1.39,23.34,23.34,0,0,1,14.78,11.87,27.22,27.22,0,0,1,2,18.81,1.66,1.66,0,0,1-.61.92A30.21,30.21,0,0,1,189.05,295.87Zm-25.54-26.1c0,3.52,1.55,8.38,3.45,10.83a31.45,31.45,0,0,0,17.35,11.47c6.37,1.48,14.11-.2,19.89-4.28a23.75,23.75,0,0,0-1.89-15.92,20,20,0,0,0-12.64-10.2,24,24,0,0,0-14,1.28A56,56,0,0,0,163.51,269.77Z" transform="translate(-19.21 -67)"/><path d="M187.61,282.64a11.43,11.43,0,0,1-5.69-1.47,9.76,9.76,0,0,1-4.88-8,9.65,9.65,0,0,1,7.49-9.21,11.57,11.57,0,0,1,10.74,3.47,3.24,3.24,0,0,1,.36.38,7.89,7.89,0,0,1,2,3.23,8.5,8.5,0,0,1-1.76,8.28,10.37,10.37,0,0,1-4.85,2.85A12.68,12.68,0,0,1,187.61,282.64Zm-.8-15.66a6.67,6.67,0,0,0-1.54.17,6,6,0,0,0-1.7,11.18,8.62,8.62,0,0,0,6.58.67,7.22,7.22,0,0,0,3.32-1.9,5.23,5.23,0,0,0,1.06-5,4.62,4.62,0,0,0-1.24-1.95,1.29,1.29,0,0,1-.19-.21l-.18-.18A8.52,8.52,0,0,0,186.81,267Z" transform="translate(-19.21 -67)"/><path class="cls-4" d="M153,392c-9.76,0-27.44-10.7-27.64-10.83-6.1-3.82-12.4-8.06-16.75-14.27-2.76-3.95-4.8-8.78-6.41-15.19-3.31-13.27-3.13-26.29.51-37.65,4.13-12.87,12.81-23.45,23.81-29A25.26,25.26,0,0,1,137.19,282c9.82-.38,18.89,7.91,19.46,17.7.46,8-4,14.66-8.22,21.13a82.56,82.56,0,0,0-5.31,8.85h0a36.16,36.16,0,0,0-2.53,24.25c1.69,6.76,5.61,12.25,10.17,18.21.53.68,1.23,1.5,2,2.4,3,3.51,6.84,7.89,6.74,11.84a5.27,5.27,0,0,1-2.73,4.84A7.92,7.92,0,0,1,153,392ZM137.79,285.25h-.48A22.19,22.19,0,0,0,128,288c-10.22,5.16-18.3,15-22.16,27.08-3.46,10.77-3.62,23.17-.45,35.84,1.51,6,3.38,10.5,5.91,14.1,4,5.71,10,9.74,15.8,13.38,6.35,3.95,23.46,12.43,28.1,9.93.45-.24,1-.69,1-2,.07-2.68-3.55-6.85-5.94-9.61-.83-1-1.58-1.83-2.14-2.56-4.79-6.25-8.9-12-10.74-19.41a39.47,39.47,0,0,1,2.76-26.48h0a83.39,83.39,0,0,1,5.52-9.21c4.15-6.31,8.07-12.27,7.68-19.14C152.92,292.09,145.57,285.25,137.79,285.25Zm3.85,43.69h0Z" transform="translate(-19.21 -67)"/><path class="cls-3" d="M105.61,109.87A64.49,64.49,0,0,0,88.88,99.62C85,98,81,96.76,77.22,94.86c-5.12-2.58-9.57-6.32-14-10-2.89,2.8-1.94,7.6-.48,11.36a50.75,50.75,0,0,0,6.62,12.39c2.84,3.81,6.37,7.06,9.22,10.86s5.08,8.42,4.63,13.15c-2.89-2.56-6.35-4.75-10.19-5.06s-8.06,1.71-9.34,5.34a22.5,22.5,0,0,1,16.76,18.34c.26,2,.21,4.15-1,5.71a4.86,4.86,0,0,1-5.61,1.33,5.68,5.68,0,0,1-3.3-4.88,14.36,14.36,0,0,0,1.59,14.21c1.18,1.57,2.71,2.92,3.45,4.73a12.43,12.43,0,0,1,.56,5.5q-.33,5.41-.94,10.78c-.21,1.74.17,4.22,1.92,4.19a2.93,2.93,0,0,0,1.66-.79,49.47,49.47,0,0,0,3.93-3.59c10.32-10.23,20.42-20.58,28.68-32.6,6.4-9.29,10.39-16.45,6.91-28.14C116.18,120.52,111.2,114.59,105.61,109.87Z" transform="translate(-19.21 -67)"/><path class="cls-3" d="M77.08,194.42a3.15,3.15,0,0,1-2.39-1.06c-1.43-1.58-1.23-4.2-1.14-5,.41-3.51.72-7.11.93-10.68a11,11,0,0,0-.43-4.77,11.47,11.47,0,0,0-2-2.85c-.43-.5-.86-1-1.25-1.53A15.88,15.88,0,0,1,69,152.7a1.64,1.64,0,0,1,3.14.58,4.06,4.06,0,0,0,2.3,3.46,3.23,3.23,0,0,0,3.69-.84c.74-.93,1-2.39.69-4.48a20.94,20.94,0,0,0-15.5-16.95,1.64,1.64,0,0,1-1.07-.81,1.61,1.61,0,0,1-.11-1.34c1.64-4.65,6.77-6.75,11-6.43a17,17,0,0,1,8.28,3.2,21.09,21.09,0,0,0-4.15-8.67c-1.36-1.81-2.93-3.55-4.46-5.23s-3.28-3.63-4.77-5.62a52.35,52.35,0,0,1-6.83-12.79c-2.27-5.84-2-10.38.86-13.13a1.64,1.64,0,0,1,2.2-.08C68.57,87.17,73,90.89,78,93.39a71.17,71.17,0,0,0,7.18,3c1.46.55,2.93,1.1,4.37,1.71a65.79,65.79,0,0,1,17.16,10.5h0c6.81,5.76,11.25,12,13.19,18.59,3.7,12.43-.63,20.08-7.14,29.54-8.39,12.2-18.45,22.49-28.88,32.82a48.43,48.43,0,0,1-4.06,3.72,4.42,4.42,0,0,1-2.63,1.14ZM71,158.26a12.73,12.73,0,0,0,2.42,8.33c.36.47.74.91,1.12,1.36a14,14,0,0,1,2.54,3.73,14.13,14.13,0,0,1,.68,6.21c-.22,3.64-.54,7.3-1,10.89a3.64,3.64,0,0,0,.33,2.39s.13-.09.6-.46a47.92,47.92,0,0,0,3.79-3.48C91.85,177,101.79,166.85,110,154.87c6.18-9,10-15.67,6.69-26.74-1.75-5.95-5.84-11.67-12.16-17h0a62.39,62.39,0,0,0-16.31-10c-1.41-.6-2.83-1.13-4.26-1.67a72,72,0,0,1-7.5-3.15,68,68,0,0,1-13-9.11c-1.11,2.34-.26,5.74.77,8.38a49.09,49.09,0,0,0,6.4,12c1.4,1.87,3,3.66,4.58,5.39s3.19,3.53,4.65,5.46c3.71,5,5.37,9.76,4.95,14.29a1.64,1.64,0,0,1-2.72,1.08c-3.22-2.85-6.33-4.41-9.25-4.65a8.15,8.15,0,0,0-6.78,2.68,24.06,24.06,0,0,1,16,19.13c.41,3,0,5.3-1.37,7a6.48,6.48,0,0,1-7.55,1.81A6.6,6.6,0,0,1,71,158.26Z" transform="translate(-19.21 -67)"/><path d="M256.18,357.62a54,54,0,0,1-5.91-.39c-.73-.08-1.31-.14-1.68-.15a1.64,1.64,0,0,1,.07-3.28,19.6,19.6,0,0,1,2,.17c3.23.34,9.94,1.06,13.46-1.5a9.73,9.73,0,0,0,2.53-2.82l.37-.54c.74-1.09,1.42-2.28,2.08-3.44l.11-.19a131.34,131.34,0,0,0,6.76-12.93c1.38-3.14,1.62-5.22.79-6.73a5.15,5.15,0,0,0-3.29-2.24c-1.56-.37-18-1-24.8-1a1.64,1.64,0,1,1,0-3.28c5.65,0,23.48.54,25.62,1.08a8.31,8.31,0,0,1,5.35,3.84c1.77,3.23.47,7-.65,9.62A133,133,0,0,1,272,347.11l-.11.18c-.69,1.22-1.41,2.48-2.23,3.67l-.34.52a12.89,12.89,0,0,1-3.32,3.64C263.28,357.11,259.56,357.62,256.18,357.62Z" transform="translate(-19.21 -67)"/><path d="M242,357.62a15.29,15.29,0,0,1-9.09-2.5l-.91-.66a14.18,14.18,0,0,1-3.64-3.26c-.86-1.25-1.6-2.56-2.33-3.82a137.91,137.91,0,0,1-6.94-13.27c-1.22-2.82-2.4-6.45-.65-9.62a8.23,8.23,0,0,1,5.35-3.84c5.15-1.33,19.09-1.4,24.88-1.37l3.29,0a1.64,1.64,0,0,1,0,3.28h0l-3.28,0c-4.39,0-19.12,0-24,1.26a5.11,5.11,0,0,0-3.29,2.24c-1.05,1.92-.13,4.6.79,6.73a134.38,134.38,0,0,0,6.77,12.92c.74,1.29,1.42,2.48,2.19,3.62a12,12,0,0,0,2.84,2.45l.95.68c3.46,2.52,8.69,1.89,11.82,1.51.82-.1,1.49-.17,2-.18a1.64,1.64,0,1,1,.07,3.28c-.39,0-.94.08-1.63.16A41.37,41.37,0,0,1,242,357.62Z" transform="translate(-19.21 -67)"/><path d="M248.55,396.48c-8.18,0-20.05-4.52-25.86-12.14a1.65,1.65,0,0,1,2.62-2c5.11,6.72,16,10.85,23.24,10.85h.07c7.49,0,18.26-4.09,23.32-10.84a1.64,1.64,0,0,1,2.63,2c-5.89,7.85-17.76,12.12-25.94,12.15Z" transform="translate(-19.21 -67)"/><path class="cls-4" d="M248.51,420c-13.17,0-32.63-8.13-45.37-19a50.18,50.18,0,0,1-10.07-11.24,1.69,1.69,0,0,1,.43-2.28,1.5,1.5,0,0,1,2.15.46,47.31,47.31,0,0,0,9.44,10.51c12.25,10.43,30.87,18.25,43.42,18.25h.2c11.09-.07,31.72-6.86,45.71-17.7A43.32,43.32,0,0,0,304.88,388a1.5,1.5,0,0,1,2.15-.47,1.68,1.68,0,0,1,.45,2.26,46.53,46.53,0,0,1-11.22,11.9C281.58,413.07,260.56,420,248.73,420Z" transform="translate(-19.21 -67)"/><path class="cls-4" d="M463.87,300.47a2.07,2.07,0,0,1-.35,0c-1.18-.2-3.68-.43-6.1-.65a56.44,56.44,0,0,1-6.65-.78,28.11,28.11,0,0,1-4-1.44,42.44,42.44,0,0,1-7.62-4.48,92.59,92.59,0,0,1-20.81-20.58,1.64,1.64,0,0,1,2.15-2.39,35.46,35.46,0,0,0,12.75,4.48c-5.14-6.12-10.39-13-13.07-21a78.87,78.87,0,0,1-2.09-8.13c-1.16-5.3-2.26-10.31-5.32-14.32a1.64,1.64,0,0,1-.14-1.78,1.61,1.61,0,0,1,1.57-.85,15.75,15.75,0,0,1,8.25,3.23C418,219.33,406.3,206.26,394.1,201a1.64,1.64,0,0,1,1-3.11l.13-.38a3.16,3.16,0,0,1,.31.11,149.17,149.17,0,0,0,15.11,4.68c-3.33-4.22-6.27-8.74-9.14-13.14-2.53-3.88-5.15-7.9-8-11.63-10.47-13.79-24.37-25-37.82-35.82-8.81-7.11-17.93-14.45-26.07-22.5a1.65,1.65,0,0,1,.87-2.79c6.06-1,12.24.41,17.68,1.7a20.12,20.12,0,0,1,3.89,1.2,41.5,41.5,0,0,1,3.15-8.26c1.45-3,5.4-10.31,10.64-14.29,21.75-16.61,49.77-23.13,74.49-28.9a19.81,19.81,0,0,1,7.26-.73c5.46.75,9.07,5.31,10.63,9.34a33,33,0,0,1,1.79,11.31c.19,8,.26,16.12.2,24.12,0,2.19,0,4.4,0,6.61-.07,17.4-.13,35.39-6.16,52-2.54,7-6.05,13.5-10,20.65a1.82,1.82,0,0,0-.11,1.5c1.53,4.24,5.18,7.15,8,8.84a61.17,61.17,0,0,0,10.46,4.61c1.07.4,2.15.79,3.22,1.21,1.73.66,2.66,1.66,2.77,3,.14,1.66-1.13,3-3.31,3.54a25.31,25.31,0,0,1-10,.43,52.35,52.35,0,0,0,25.89,29.05,1.65,1.65,0,0,1-.25,3.05,47.82,47.82,0,0,1-42.88-8.5,151.11,151.11,0,0,0,27.65,59.57,1.92,1.92,0,0,1-1.52,3.1Zm.2-3.27h0ZM425.25,276A90.13,90.13,0,0,0,441,290.42a38.81,38.81,0,0,0,7,4.14,25.44,25.44,0,0,0,3.59,1.29c.64.18,3.78.46,6.07.67l3.15.3a154.24,154.24,0,0,1-27.33-63.26,1.64,1.64,0,0,1,.86-1.75,1.66,1.66,0,0,1,1.93.3,44.45,44.45,0,0,0,39.31,12A55.79,55.79,0,0,1,451,212.45a1.63,1.63,0,0,1,2-2,22,22,0,0,0,11.26.17,3.27,3.27,0,0,0,.44-.14l-.3-.12c-1.06-.41-2.12-.8-3.18-1.19a64.48,64.48,0,0,1-11-4.88c-4.65-2.82-7.89-6.47-9.36-10.55a5.11,5.11,0,0,1,.34-4.21c3.91-7,7.36-13.37,9.82-20.16,5.83-16,5.89-33.74,5.95-50.85q0-3.33,0-6.63c.07-8,0-16-.2-24a29.73,29.73,0,0,0-1.56-10.2c-1.53-4-4.68-6.82-8-7.28a17.17,17.17,0,0,0-6.07.68c-24.39,5.69-52,12.13-73.24,28.31-3.25,2.47-6.87,7.38-9.69,13.13a34.33,34.33,0,0,0-3,8.2,2.6,2.6,0,0,1-1.4,1.94,2.63,2.63,0,0,1-2.44-.05,14.92,14.92,0,0,0-3.73-1.26c-4.37-1-8.74-2-13.07-2,7.36,7,15.43,13.49,23.26,19.8,13.6,11,27.66,22.29,38.38,36.4,2.9,3.82,5.55,7.89,8.12,11.82,3.68,5.66,7.49,11.5,12,16.56a1.64,1.64,0,0,1-1.56,2.7q-4.33-.94-8.63-2.14c11.06,8.68,19.79,22,21.26,33.86a1.64,1.64,0,0,1-3.13.86,12.65,12.65,0,0,0-6.72-6.47c1.92,3.79,2.84,8,3.74,12.1a75.34,75.34,0,0,0,2,7.79c2.93,8.73,9.36,16.27,15,22.93a1.65,1.65,0,0,1,.23,1.78,1.62,1.62,0,0,1-1.54.93A38.93,38.93,0,0,1,425.25,276Zm-73.33-155.8v0Z" transform="translate(-19.21 -67)"/><path class="cls-4" d="M299.16,392.1a31.31,31.31,0,0,1-7.68-1c-6.85-1.76-13.35-5.27-18.79-8.47-2.33-1.38-4.64-2.82-7-4.26a150.18,150.18,0,0,0-17.77-10,1.64,1.64,0,0,1,1.33-3,152.45,152.45,0,0,1,18.18,10.2c2.3,1.43,4.59,2.86,6.89,4.22,5.24,3.09,11.48,6.46,17.94,8.11a29.35,29.35,0,0,0,16.26-.64,32.2,32.2,0,0,0,14.22-9.11c7.31-8.13,10.52-20.25,8.38-31.65-2-10.78-8.62-21-18.13-28.08a109.19,109.19,0,0,0-10.47-6.56,95.36,95.36,0,0,1-12.22-7.87c-5.14-4.1-8.4-10.86-10.92-16.93-.57-1.38-1.08-2.78-1.59-4.18-.67-1.84-1.37-3.75-2.18-5.53a19.52,19.52,0,0,0-5.63-7.75c-4.45-3.42-15.34-6.17-21.39-6.17a1.64,1.64,0,0,1,0-3.28c6.83,0,18.28,2.93,23.39,6.84a22.57,22.57,0,0,1,6.62,9c.87,1.89,1.58,3.85,2.27,5.75.5,1.36,1,2.72,1.55,4.06,2.35,5.68,5.37,12,9.93,15.61a91.83,91.83,0,0,0,11.8,7.59A108.56,108.56,0,0,1,315,315.85c10.17,7.54,17.24,18.52,19.41,30.11,2.32,12.37-1.19,25.57-9.16,34.45a35.64,35.64,0,0,1-15.67,10A34.17,34.17,0,0,1,299.16,392.1Z" transform="translate(-19.21 -67)"/><path class="cls-4" d="M199.25,391.34a33.24,33.24,0,0,1-8.19-1,35.71,35.71,0,0,1-17.88-10.66c-8-8.86-11.48-22.06-9.16-34.46,2.18-11.59,9.25-22.57,19.4-30.11a106.22,106.22,0,0,1,10.8-6.78,92.92,92.92,0,0,0,11.8-7.59c4.54-3.62,7.57-9.92,9.93-15.61.57-1.39,1.09-2.79,1.6-4.2.67-1.85,1.37-3.76,2.21-5.62a22.91,22.91,0,0,1,6.62-9c5-3.8,15.2-6.07,22.25-6.07a1.64,1.64,0,0,1,0,3.28c-6.36,0-15.9,2.06-20.25,5.39a19.88,19.88,0,0,0-5.63,7.75c-.79,1.75-1.46,3.6-2.12,5.4-.53,1.45-1,2.9-1.65,4.32-2.52,6.08-5.79,12.85-10.92,16.93a95.25,95.25,0,0,1-12.21,7.87,106.06,106.06,0,0,0-10.47,6.56c-9.5,7.06-16.11,17.3-18.13,28.08-2.14,11.42,1.07,23.55,8.37,31.67a32.38,32.38,0,0,0,16.23,9.66,28.94,28.94,0,0,0,14.26.09c6.07-1.55,12.1-4.86,16.68-7.56,2.39-1.41,4.77-2.9,7.12-4.37,6.29-3.95,12.24-7.67,18.14-9.89a1.64,1.64,0,1,1,1.15,3.08c-5.59,2.1-11.4,5.74-17.55,9.59-2.37,1.49-4.77,3-7.19,4.42-4.77,2.81-11.06,6.25-17.54,7.91A31.17,31.17,0,0,1,199.25,391.34Z" transform="translate(-19.21 -67)"/><path d="M248.5,373.5h0c-.91,0-1.63-1.1-1.61-2.38l.25-14.4a2.08,2.08,0,0,1,1.68-2.27c.91,0,1.63,1.1,1.6,2.38l-.24,14.4C250.12,372.49,249.39,373.5,248.5,373.5Z" transform="translate(-19.21 -67)"/></g></svg>