<svg width="796" height="239" viewBox="0 0 796 239" fill="none" xmlns="http://www.w3.org/2000/svg">
<path d="M57.2436 205.488H55.4516V210H52.8756V198.8H55.4516V203.328H57.3076L60.2516 198.8H62.9876L59.3236 204.208L63.0996 210H60.1556L57.2436 205.488ZM72.6279 201.392V210H70.1319V203.44H67.4119L67.3319 204.96C67.2892 206.091 67.1825 207.029 67.0119 207.776C66.8412 208.523 66.5639 209.109 66.1799 209.536C65.7959 209.963 65.2625 210.176 64.5799 210.176C64.2172 210.176 63.7852 210.112 63.2839 209.984L63.4119 207.936C63.5825 207.957 63.7052 207.968 63.7799 207.968C64.1532 207.968 64.4305 207.835 64.6119 207.568C64.8039 207.291 64.9319 206.944 64.9959 206.528C65.0599 206.101 65.1079 205.541 65.1399 204.848L65.2679 201.392H72.6279ZM75.0281 201.392H77.5081V206.512L81.7001 201.392H83.9881V210H81.5081V204.88L77.3321 210H75.0281V201.392ZM94.7555 205.728C94.7555 205.76 94.7395 205.984 94.7075 206.4H88.1955C88.3128 206.933 88.5902 207.355 89.0275 207.664C89.4648 207.973 90.0088 208.128 90.6595 208.128C91.1075 208.128 91.5022 208.064 91.8435 207.936C92.1955 207.797 92.5208 207.584 92.8195 207.296L94.1475 208.736C93.3368 209.664 92.1528 210.128 90.5955 210.128C89.6248 210.128 88.7662 209.941 88.0195 209.568C87.2728 209.184 86.6968 208.656 86.2915 207.984C85.8862 207.312 85.6835 206.549 85.6835 205.696C85.6835 204.853 85.8808 204.096 86.2755 203.424C86.6808 202.741 87.2302 202.213 87.9235 201.84C88.6275 201.456 89.4115 201.264 90.2755 201.264C91.1182 201.264 91.8808 201.445 92.5635 201.808C93.2462 202.171 93.7795 202.693 94.1635 203.376C94.5582 204.048 94.7555 204.832 94.7555 205.728ZM90.2915 203.152C89.7262 203.152 89.2515 203.312 88.8675 203.632C88.4835 203.952 88.2488 204.389 88.1635 204.944H92.4035C92.3182 204.4 92.0835 203.968 91.6995 203.648C91.3155 203.317 90.8462 203.152 90.2915 203.152ZM96.6688 201.392H99.1488V204.752H102.893V201.392H105.389V210H102.893V206.784H99.1488V210H96.6688V201.392ZM115.01 203.44H112.098V210H109.618V203.44H106.706V201.392H115.01V203.44ZM130.52 207.952V211.856H128.2V210H122.152V211.856H119.832V207.952H120.184C120.717 207.941 121.085 207.627 121.288 207.008C121.491 206.389 121.619 205.509 121.672 204.368L121.784 201.392H129.288V207.952H130.52ZM123.928 204.544C123.896 205.419 123.827 206.133 123.72 206.688C123.624 207.243 123.437 207.664 123.16 207.952H126.792V203.44H123.976L123.928 204.544ZM140.459 205.728C140.459 205.76 140.443 205.984 140.411 206.4H133.899C134.016 206.933 134.293 207.355 134.731 207.664C135.168 207.973 135.712 208.128 136.363 208.128C136.811 208.128 137.205 208.064 137.547 207.936C137.899 207.797 138.224 207.584 138.523 207.296L139.851 208.736C139.04 209.664 137.856 210.128 136.299 210.128C135.328 210.128 134.469 209.941 133.723 209.568C132.976 209.184 132.4 208.656 131.995 207.984C131.589 207.312 131.387 206.549 131.387 205.696C131.387 204.853 131.584 204.096 131.979 203.424C132.384 202.741 132.933 202.213 133.627 201.84C134.331 201.456 135.115 201.264 135.979 201.264C136.821 201.264 137.584 201.445 138.267 201.808C138.949 202.171 139.483 202.693 139.867 203.376C140.261 204.048 140.459 204.832 140.459 205.728ZM135.995 203.152C135.429 203.152 134.955 203.312 134.571 203.632C134.187 203.952 133.952 204.389 133.867 204.944H138.107C138.021 204.4 137.787 203.968 137.403 203.648C137.019 203.317 136.549 203.152 135.995 203.152ZM150.55 201.392V210H148.054V203.44H145.334L145.254 204.96C145.211 206.091 145.104 207.029 144.934 207.776C144.763 208.523 144.486 209.109 144.102 209.536C143.718 209.963 143.184 210.176 142.502 210.176C142.139 210.176 141.707 210.112 141.206 209.984L141.334 207.936C141.504 207.957 141.627 207.968 141.702 207.968C142.075 207.968 142.352 207.835 142.534 207.568C142.726 207.291 142.854 206.944 142.918 206.528C142.982 206.101 143.03 205.541 143.062 204.848L143.19 201.392H150.55ZM156.294 201.264C157.627 201.264 158.651 201.584 159.366 202.224C160.081 202.853 160.438 203.808 160.438 205.088V210H158.102V208.928C157.633 209.728 156.758 210.128 155.478 210.128C154.817 210.128 154.241 210.016 153.75 209.792C153.27 209.568 152.902 209.259 152.646 208.864C152.39 208.469 152.262 208.021 152.262 207.52C152.262 206.72 152.561 206.091 153.158 205.632C153.766 205.173 154.699 204.944 155.958 204.944H157.942C157.942 204.4 157.777 203.984 157.446 203.696C157.115 203.397 156.619 203.248 155.958 203.248C155.499 203.248 155.046 203.323 154.598 203.472C154.161 203.611 153.787 203.803 153.478 204.048L152.582 202.304C153.051 201.973 153.611 201.717 154.262 201.536C154.923 201.355 155.601 201.264 156.294 201.264ZM156.102 208.448C156.529 208.448 156.907 208.352 157.238 208.16C157.569 207.957 157.803 207.664 157.942 207.28V206.4H156.23C155.206 206.4 154.694 206.736 154.694 207.408C154.694 207.728 154.817 207.984 155.062 208.176C155.318 208.357 155.665 208.448 156.102 208.448ZM170.974 205.728C170.974 205.76 170.958 205.984 170.926 206.4H164.414C164.532 206.933 164.809 207.355 165.246 207.664C165.684 207.973 166.228 208.128 166.878 208.128C167.326 208.128 167.721 208.064 168.062 207.936C168.414 207.797 168.74 207.584 169.038 207.296L170.366 208.736C169.556 209.664 168.372 210.128 166.814 210.128C165.844 210.128 164.985 209.941 164.238 209.568C163.492 209.184 162.916 208.656 162.51 207.984C162.105 207.312 161.902 206.549 161.902 205.696C161.902 204.853 162.1 204.096 162.494 203.424C162.9 202.741 163.449 202.213 164.142 201.84C164.846 201.456 165.63 201.264 166.494 201.264C167.337 201.264 168.1 201.445 168.782 201.808C169.465 202.171 169.998 202.693 170.382 203.376C170.777 204.048 170.974 204.832 170.974 205.728ZM166.51 203.152C165.945 203.152 165.47 203.312 165.086 203.632C164.702 203.952 164.468 204.389 164.382 204.944H168.622C168.537 204.4 168.302 203.968 167.918 203.648C167.534 203.317 167.065 203.152 166.51 203.152ZM179.823 203.44H176.911V210H174.431V203.44H171.519V201.392H179.823V203.44ZM101.097 224.52C101.609 224.68 102.003 224.925 102.281 225.256C102.569 225.587 102.713 225.981 102.713 226.44C102.713 226.984 102.526 227.464 102.153 227.88C101.779 228.285 101.267 228.6 100.617 228.824C99.9658 229.048 99.2298 229.16 98.4085 229.16C97.7365 229.16 97.0752 229.091 96.4245 228.952C95.7738 228.813 95.1712 228.605 94.6165 228.328L95.2885 226.584C96.1952 227.021 97.1978 227.24 98.2965 227.24C98.8832 227.24 99.3418 227.155 99.6725 226.984C100.014 226.803 100.185 226.552 100.185 226.232C100.185 225.955 100.067 225.747 99.8325 225.608C99.5978 225.459 99.2565 225.384 98.8085 225.384H97.0485V223.832H98.5845C99.0218 223.832 99.3578 223.763 99.5925 223.624C99.8272 223.485 99.9445 223.283 99.9445 223.016C99.9445 222.739 99.7952 222.525 99.4965 222.376C99.2085 222.227 98.7925 222.152 98.2485 222.152C97.4165 222.152 96.5098 222.349 95.5285 222.744L94.9205 221.016C96.1152 220.493 97.2778 220.232 98.4085 220.232C99.1872 220.232 99.8805 220.328 100.489 220.52C101.107 220.712 101.593 220.995 101.945 221.368C102.297 221.731 102.473 222.157 102.473 222.648C102.473 223.053 102.35 223.421 102.105 223.752C101.859 224.072 101.523 224.328 101.097 224.52ZM107.872 220.264C109.205 220.264 110.229 220.584 110.944 221.224C111.659 221.853 112.016 222.808 112.016 224.088V229H109.68V227.928C109.211 228.728 108.336 229.128 107.056 229.128C106.395 229.128 105.819 229.016 105.328 228.792C104.848 228.568 104.48 228.259 104.224 227.864C103.968 227.469 103.84 227.021 103.84 226.52C103.84 225.72 104.139 225.091 104.736 224.632C105.344 224.173 106.277 223.944 107.536 223.944H109.52C109.52 223.4 109.355 222.984 109.024 222.696C108.693 222.397 108.197 222.248 107.536 222.248C107.077 222.248 106.624 222.323 106.176 222.472C105.739 222.611 105.365 222.803 105.056 223.048L104.16 221.304C104.629 220.973 105.189 220.717 105.84 220.536C106.501 220.355 107.179 220.264 107.872 220.264ZM107.68 227.448C108.107 227.448 108.485 227.352 108.816 227.16C109.147 226.957 109.381 226.664 109.52 226.28V225.4H107.808C106.784 225.4 106.272 225.736 106.272 226.408C106.272 226.728 106.395 226.984 106.64 227.176C106.896 227.357 107.243 227.448 107.68 227.448ZM117.976 225.736H116.68V229H114.184V220.392H116.68V223.736H118.024L120.36 220.392H123.016L120.008 224.52L123.224 229H120.28L117.976 225.736ZM127.638 220.264C128.971 220.264 129.995 220.584 130.71 221.224C131.424 221.853 131.782 222.808 131.782 224.088V229H129.446V227.928C128.976 228.728 128.102 229.128 126.822 229.128C126.16 229.128 125.584 229.016 125.094 228.792C124.614 228.568 124.246 228.259 123.99 227.864C123.734 227.469 123.606 227.021 123.606 226.52C123.606 225.72 123.904 225.091 124.502 224.632C125.11 224.173 126.043 223.944 127.302 223.944H129.286C129.286 223.4 129.12 222.984 128.79 222.696C128.459 222.397 127.963 222.248 127.302 222.248C126.843 222.248 126.39 222.323 125.942 222.472C125.504 222.611 125.131 222.803 124.822 223.048L123.926 221.304C124.395 220.973 124.955 220.717 125.606 220.536C126.267 220.355 126.944 220.264 127.638 220.264ZM127.446 227.448C127.872 227.448 128.251 227.352 128.582 227.16C128.912 226.957 129.147 226.664 129.286 226.28V225.4H127.574C126.55 225.4 126.038 225.736 126.038 226.408C126.038 226.728 126.16 226.984 126.406 227.176C126.662 227.357 127.008 227.448 127.446 227.448ZM139.456 224.52C139.968 224.68 140.363 224.925 140.64 225.256C140.928 225.587 141.072 225.981 141.072 226.44C141.072 226.984 140.885 227.464 140.512 227.88C140.139 228.285 139.627 228.6 138.976 228.824C138.325 229.048 137.589 229.16 136.768 229.16C136.096 229.16 135.435 229.091 134.784 228.952C134.133 228.813 133.531 228.605 132.976 228.328L133.648 226.584C134.555 227.021 135.557 227.24 136.656 227.24C137.243 227.24 137.701 227.155 138.032 226.984C138.373 226.803 138.544 226.552 138.544 226.232C138.544 225.955 138.427 225.747 138.192 225.608C137.957 225.459 137.616 225.384 137.168 225.384H135.408V223.832H136.944C137.381 223.832 137.717 223.763 137.952 223.624C138.187 223.485 138.304 223.283 138.304 223.016C138.304 222.739 138.155 222.525 137.856 222.376C137.568 222.227 137.152 222.152 136.608 222.152C135.776 222.152 134.869 222.349 133.888 222.744L133.28 221.016C134.475 220.493 135.637 220.232 136.768 220.232C137.547 220.232 138.24 220.328 138.848 220.52C139.467 220.712 139.952 220.995 140.304 221.368C140.656 221.731 140.832 222.157 140.832 222.648C140.832 223.053 140.709 223.421 140.464 223.752C140.219 224.072 139.883 224.328 139.456 224.52Z" fill="#1F1F1F"/>
<path d="M325.219 210.192C324.078 210.192 323.043 209.947 322.115 209.456C321.198 208.955 320.473 208.267 319.939 207.392C319.417 206.507 319.155 205.509 319.155 204.4C319.155 203.291 319.417 202.299 319.939 201.424C320.473 200.539 321.198 199.851 322.115 199.36C323.043 198.859 324.083 198.608 325.235 198.608C326.206 198.608 327.081 198.779 327.859 199.12C328.649 199.461 329.31 199.952 329.843 200.592L328.179 202.128C327.422 201.253 326.483 200.816 325.363 200.816C324.67 200.816 324.051 200.971 323.507 201.28C322.963 201.579 322.537 202 322.227 202.544C321.929 203.088 321.779 203.707 321.779 204.4C321.779 205.093 321.929 205.712 322.227 206.256C322.537 206.8 322.963 207.227 323.507 207.536C324.051 207.835 324.67 207.984 325.363 207.984C326.483 207.984 327.422 207.541 328.179 206.656L329.843 208.192C329.31 208.843 328.649 209.339 327.859 209.68C327.07 210.021 326.19 210.192 325.219 210.192ZM331.341 201.392H333.821V206.512L338.013 201.392H340.301V210H337.821V204.88L333.645 210H331.341V201.392ZM346.796 210.128C345.879 210.128 345.052 209.941 344.316 209.568C343.591 209.184 343.02 208.656 342.604 207.984C342.199 207.312 341.996 206.549 341.996 205.696C341.996 204.843 342.199 204.08 342.604 203.408C343.02 202.736 343.591 202.213 344.316 201.84C345.052 201.456 345.879 201.264 346.796 201.264C347.703 201.264 348.492 201.456 349.164 201.84C349.847 202.213 350.343 202.752 350.652 203.456L348.716 204.496C348.268 203.707 347.623 203.312 346.78 203.312C346.129 203.312 345.591 203.525 345.164 203.952C344.737 204.379 344.524 204.96 344.524 205.696C344.524 206.432 344.737 207.013 345.164 207.44C345.591 207.867 346.129 208.08 346.78 208.08C347.633 208.08 348.279 207.685 348.716 206.896L350.652 207.952C350.343 208.635 349.847 209.168 349.164 209.552C348.492 209.936 347.703 210.128 346.796 210.128ZM359.37 203.44H356.458V210H353.978V203.44H351.066V201.392H359.37V203.44ZM368.709 205.728C368.709 205.76 368.693 205.984 368.661 206.4H362.149C362.266 206.933 362.543 207.355 362.981 207.664C363.418 207.973 363.962 208.128 364.613 208.128C365.061 208.128 365.455 208.064 365.797 207.936C366.149 207.797 366.474 207.584 366.773 207.296L368.101 208.736C367.29 209.664 366.106 210.128 364.549 210.128C363.578 210.128 362.719 209.941 361.973 209.568C361.226 209.184 360.65 208.656 360.245 207.984C359.839 207.312 359.637 206.549 359.637 205.696C359.637 204.853 359.834 204.096 360.229 203.424C360.634 202.741 361.183 202.213 361.877 201.84C362.581 201.456 363.365 201.264 364.229 201.264C365.071 201.264 365.834 201.445 366.517 201.808C367.199 202.171 367.733 202.693 368.117 203.376C368.511 204.048 368.709 204.832 368.709 205.728ZM364.245 203.152C363.679 203.152 363.205 203.312 362.821 203.632C362.437 203.952 362.202 204.389 362.117 204.944H366.357C366.271 204.4 366.037 203.968 365.653 203.648C365.269 203.317 364.799 203.152 364.245 203.152ZM379.022 210V204.848L376.446 209.168H375.39L372.878 204.832V210H370.622V201.392H373.23L375.982 206.368L378.91 201.392H381.246L381.278 210H379.022ZM387.013 201.264C388.346 201.264 389.37 201.584 390.085 202.224C390.799 202.853 391.157 203.808 391.157 205.088V210H388.821V208.928C388.351 209.728 387.477 210.128 386.197 210.128C385.535 210.128 384.959 210.016 384.469 209.792C383.989 209.568 383.621 209.259 383.365 208.864C383.109 208.469 382.981 208.021 382.981 207.52C382.981 206.72 383.279 206.091 383.877 205.632C384.485 205.173 385.418 204.944 386.677 204.944H388.661C388.661 204.4 388.495 203.984 388.165 203.696C387.834 203.397 387.338 203.248 386.677 203.248C386.218 203.248 385.765 203.323 385.317 203.472C384.879 203.611 384.506 203.803 384.197 204.048L383.301 202.304C383.77 201.973 384.33 201.717 384.981 201.536C385.642 201.355 386.319 201.264 387.013 201.264ZM386.821 208.448C387.247 208.448 387.626 208.352 387.957 208.16C388.287 207.957 388.522 207.664 388.661 207.28V206.4H386.949C385.925 206.4 385.413 206.736 385.413 207.408C385.413 207.728 385.535 207.984 385.781 208.176C386.037 208.357 386.383 208.448 386.821 208.448ZM397.856 201.392H400.336V204.752H404.08V201.392H406.576V210H404.08V206.784H400.336V210H397.856V201.392ZM412.31 201.264C413.643 201.264 414.667 201.584 415.382 202.224C416.096 202.853 416.454 203.808 416.454 205.088V210H414.118V208.928C413.648 209.728 412.774 210.128 411.494 210.128C410.832 210.128 410.256 210.016 409.766 209.792C409.286 209.568 408.918 209.259 408.662 208.864C408.406 208.469 408.278 208.021 408.278 207.52C408.278 206.72 408.576 206.091 409.174 205.632C409.782 205.173 410.715 204.944 411.974 204.944H413.958C413.958 204.4 413.792 203.984 413.462 203.696C413.131 203.397 412.635 203.248 411.974 203.248C411.515 203.248 411.062 203.323 410.614 203.472C410.176 203.611 409.803 203.803 409.494 204.048L408.598 202.304C409.067 201.973 409.627 201.717 410.278 201.536C410.939 201.355 411.616 201.264 412.31 201.264ZM412.118 208.448C412.544 208.448 412.923 208.352 413.254 208.16C413.584 207.957 413.819 207.664 413.958 207.28V206.4H412.246C411.222 206.4 410.71 206.736 410.71 207.408C410.71 207.728 410.832 207.984 411.078 208.176C411.334 208.357 411.68 208.448 412.118 208.448ZM424.128 205.52C424.64 205.68 425.034 205.925 425.312 206.256C425.6 206.587 425.744 206.981 425.744 207.44C425.744 207.984 425.557 208.464 425.184 208.88C424.81 209.285 424.298 209.6 423.648 209.824C422.997 210.048 422.261 210.16 421.44 210.16C420.768 210.16 420.106 210.091 419.456 209.952C418.805 209.813 418.202 209.605 417.648 209.328L418.32 207.584C419.226 208.021 420.229 208.24 421.328 208.24C421.914 208.24 422.373 208.155 422.704 207.984C423.045 207.803 423.216 207.552 423.216 207.232C423.216 206.955 423.098 206.747 422.864 206.608C422.629 206.459 422.288 206.384 421.84 206.384H420.08V204.832H421.616C422.053 204.832 422.389 204.763 422.624 204.624C422.858 204.485 422.976 204.283 422.976 204.016C422.976 203.739 422.826 203.525 422.528 203.376C422.24 203.227 421.824 203.152 421.28 203.152C420.448 203.152 419.541 203.349 418.56 203.744L417.952 202.016C419.146 201.493 420.309 201.232 421.44 201.232C422.218 201.232 422.912 201.328 423.52 201.52C424.138 201.712 424.624 201.995 424.976 202.368C425.328 202.731 425.504 203.157 425.504 203.648C425.504 204.053 425.381 204.421 425.136 204.752C424.89 205.072 424.554 205.328 424.128 205.52ZM427.559 201.392H430.039V204.752H433.783V201.392H436.279V210H433.783V206.784H430.039V210H427.559V201.392ZM442.013 201.264C443.346 201.264 444.37 201.584 445.085 202.224C445.799 202.853 446.157 203.808 446.157 205.088V210H443.821V208.928C443.351 209.728 442.477 210.128 441.197 210.128C440.535 210.128 439.959 210.016 439.469 209.792C438.989 209.568 438.621 209.259 438.365 208.864C438.109 208.469 437.981 208.021 437.981 207.52C437.981 206.72 438.279 206.091 438.877 205.632C439.485 205.173 440.418 204.944 441.677 204.944H443.661C443.661 204.4 443.495 203.984 443.165 203.696C442.834 203.397 442.338 203.248 441.677 203.248C441.218 203.248 440.765 203.323 440.317 203.472C439.879 203.611 439.506 203.803 439.197 204.048L438.301 202.304C438.77 201.973 439.33 201.717 439.981 201.536C440.642 201.355 441.319 201.264 442.013 201.264ZM441.821 208.448C442.247 208.448 442.626 208.352 442.957 208.16C443.287 207.957 443.522 207.664 443.661 207.28V206.4H441.949C440.925 206.4 440.413 206.736 440.413 207.408C440.413 207.728 440.535 207.984 440.781 208.176C441.037 208.357 441.383 208.448 441.821 208.448ZM456.069 201.392V210H453.573V206.8C452.848 207.163 452.048 207.344 451.173 207.344C450.01 207.344 449.13 207.083 448.533 206.56C447.946 206.027 447.653 205.205 447.653 204.096V201.392H450.149V203.936C450.149 204.459 450.282 204.837 450.549 205.072C450.826 205.307 451.221 205.424 451.733 205.424C452.384 205.424 452.997 205.285 453.573 205.008V201.392H456.069ZM461.81 201.264C463.143 201.264 464.167 201.584 464.882 202.224C465.596 202.853 465.954 203.808 465.954 205.088V210H463.618V208.928C463.148 209.728 462.274 210.128 460.994 210.128C460.332 210.128 459.756 210.016 459.266 209.792C458.786 209.568 458.418 209.259 458.162 208.864C457.906 208.469 457.778 208.021 457.778 207.52C457.778 206.72 458.076 206.091 458.674 205.632C459.282 205.173 460.215 204.944 461.474 204.944H463.458C463.458 204.4 463.292 203.984 462.962 203.696C462.631 203.397 462.135 203.248 461.474 203.248C461.015 203.248 460.562 203.323 460.114 203.472C459.676 203.611 459.303 203.803 458.994 204.048L458.098 202.304C458.567 201.973 459.127 201.717 459.778 201.536C460.439 201.355 461.116 201.264 461.81 201.264ZM461.618 208.448C462.044 208.448 462.423 208.352 462.754 208.16C463.084 207.957 463.319 207.664 463.458 207.28V206.4H461.746C460.722 206.4 460.21 206.736 460.21 207.408C460.21 207.728 460.332 207.984 460.578 208.176C460.834 208.357 461.18 208.448 461.618 208.448ZM476.49 205.728C476.49 205.76 476.474 205.984 476.442 206.4H469.93C470.047 206.933 470.325 207.355 470.762 207.664C471.199 207.973 471.743 208.128 472.394 208.128C472.842 208.128 473.237 208.064 473.578 207.936C473.93 207.797 474.255 207.584 474.554 207.296L475.882 208.736C475.071 209.664 473.887 210.128 472.33 210.128C471.359 210.128 470.501 209.941 469.754 209.568C469.007 209.184 468.431 208.656 468.026 207.984C467.621 207.312 467.418 206.549 467.418 205.696C467.418 204.853 467.615 204.096 468.01 203.424C468.415 202.741 468.965 202.213 469.658 201.84C470.362 201.456 471.146 201.264 472.01 201.264C472.853 201.264 473.615 201.445 474.298 201.808C474.981 202.171 475.514 202.693 475.898 203.376C476.293 204.048 476.49 204.832 476.49 205.728ZM472.026 203.152C471.461 203.152 470.986 203.312 470.602 203.632C470.218 203.952 469.983 204.389 469.898 204.944H474.138C474.053 204.4 473.818 203.968 473.434 203.648C473.05 203.317 472.581 203.152 472.026 203.152ZM485.338 203.44H482.426V210H479.946V203.44H477.034V201.392H485.338V203.44ZM371.336 225.736H370.04V229H367.544V220.392H370.04V223.736H371.384L373.72 220.392H376.376L373.368 224.52L376.584 229H373.64L371.336 225.736ZM385.949 220.392L382.061 229.528C381.666 230.52 381.176 231.219 380.589 231.624C380.013 232.029 379.314 232.232 378.493 232.232C378.045 232.232 377.602 232.163 377.165 232.024C376.728 231.885 376.37 231.693 376.093 231.448L377.005 229.672C377.197 229.843 377.416 229.976 377.661 230.072C377.917 230.168 378.168 230.216 378.413 230.216C378.754 230.216 379.032 230.131 379.245 229.96C379.458 229.8 379.65 229.528 379.821 229.144L379.853 229.064L376.125 220.392H378.701L381.117 226.232L383.549 220.392H385.949ZM392.225 220.264C393.025 220.264 393.75 220.451 394.401 220.824C395.062 221.187 395.58 221.704 395.953 222.376C396.326 223.037 396.513 223.811 396.513 224.696C396.513 225.581 396.326 226.36 395.953 227.032C395.58 227.693 395.062 228.211 394.401 228.584C393.75 228.947 393.025 229.128 392.225 229.128C391.126 229.128 390.262 228.781 389.633 228.088V232.104H387.137V220.392H389.521V221.384C390.14 220.637 391.041 220.264 392.225 220.264ZM391.793 227.08C392.433 227.08 392.956 226.867 393.361 226.44C393.777 226.003 393.985 225.421 393.985 224.696C393.985 223.971 393.777 223.395 393.361 222.968C392.956 222.531 392.433 222.312 391.793 222.312C391.153 222.312 390.625 222.531 390.209 222.968C389.804 223.395 389.601 223.971 389.601 224.696C389.601 225.421 389.804 226.003 390.209 226.44C390.625 226.867 391.153 227.08 391.793 227.08ZM402.919 223.144C404.039 223.155 404.897 223.411 405.495 223.912C406.092 224.403 406.391 225.101 406.391 226.008C406.391 226.957 406.055 227.699 405.383 228.232C404.721 228.755 403.788 229.016 402.583 229.016L398.263 229V220.392H400.743V223.144H402.919ZM402.359 227.24C402.839 227.251 403.207 227.149 403.463 226.936C403.719 226.723 403.847 226.403 403.847 225.976C403.847 225.56 403.719 225.256 403.463 225.064C403.217 224.872 402.849 224.771 402.359 224.76L400.743 224.744V227.24H402.359ZM416.318 224.728C416.318 224.76 416.302 224.984 416.27 225.4H409.758C409.875 225.933 410.153 226.355 410.59 226.664C411.027 226.973 411.571 227.128 412.222 227.128C412.67 227.128 413.065 227.064 413.406 226.936C413.758 226.797 414.083 226.584 414.382 226.296L415.71 227.736C414.899 228.664 413.715 229.128 412.158 229.128C411.187 229.128 410.329 228.941 409.582 228.568C408.835 228.184 408.259 227.656 407.854 226.984C407.449 226.312 407.246 225.549 407.246 224.696C407.246 223.853 407.443 223.096 407.838 222.424C408.243 221.741 408.793 221.213 409.486 220.84C410.19 220.456 410.974 220.264 411.838 220.264C412.681 220.264 413.443 220.445 414.126 220.808C414.809 221.171 415.342 221.693 415.726 222.376C416.121 223.048 416.318 223.832 416.318 224.728ZM411.854 222.152C411.289 222.152 410.814 222.312 410.43 222.632C410.046 222.952 409.811 223.389 409.726 223.944H413.966C413.881 223.4 413.646 222.968 413.262 222.648C412.878 222.317 412.409 222.152 411.854 222.152ZM423.303 220.264C424.103 220.264 424.829 220.451 425.479 220.824C426.141 221.187 426.658 221.704 427.031 222.376C427.405 223.037 427.591 223.811 427.591 224.696C427.591 225.581 427.405 226.36 427.031 227.032C426.658 227.693 426.141 228.211 425.479 228.584C424.829 228.947 424.103 229.128 423.303 229.128C422.205 229.128 421.341 228.781 420.711 228.088V232.104H418.215V220.392H420.599V221.384C421.218 220.637 422.119 220.264 423.303 220.264ZM422.871 227.08C423.511 227.08 424.034 226.867 424.439 226.44C424.855 226.003 425.063 225.421 425.063 224.696C425.063 223.971 424.855 223.395 424.439 222.968C424.034 222.531 423.511 222.312 422.871 222.312C422.231 222.312 421.703 222.531 421.287 222.968C420.882 223.395 420.679 223.971 420.679 224.696C420.679 225.421 420.882 226.003 421.287 226.44C421.703 226.867 422.231 227.08 422.871 227.08ZM432.544 220.264C433.877 220.264 434.901 220.584 435.616 221.224C436.331 221.853 436.688 222.808 436.688 224.088V229H434.352V227.928C433.883 228.728 433.008 229.128 431.728 229.128C431.067 229.128 430.491 229.016 430 228.792C429.52 228.568 429.152 228.259 428.896 227.864C428.64 227.469 428.512 227.021 428.512 226.52C428.512 225.72 428.811 225.091 429.408 224.632C430.016 224.173 430.949 223.944 432.208 223.944H434.192C434.192 223.4 434.027 222.984 433.696 222.696C433.365 222.397 432.869 222.248 432.208 222.248C431.749 222.248 431.296 222.323 430.848 222.472C430.411 222.611 430.037 222.803 429.728 223.048L428.832 221.304C429.301 220.973 429.861 220.717 430.512 220.536C431.173 220.355 431.851 220.264 432.544 220.264ZM432.352 227.448C432.779 227.448 433.157 227.352 433.488 227.16C433.819 226.957 434.053 226.664 434.192 226.28V225.4H432.48C431.456 225.4 430.944 225.736 430.944 226.408C430.944 226.728 431.067 226.984 431.312 227.176C431.568 227.357 431.915 227.448 432.352 227.448Z" fill="#1F1F1F"/>
<path d="M633.587 205.488H631.795V210H629.219V198.8H631.795V203.328H633.651L636.595 198.8H639.331L635.667 204.208L639.443 210H636.499L633.587 205.488ZM648.972 201.392V210H646.476V203.44H643.756L643.676 204.96C643.633 206.091 643.526 207.029 643.356 207.776C643.185 208.523 642.908 209.109 642.524 209.536C642.14 209.963 641.606 210.176 640.924 210.176C640.561 210.176 640.129 210.112 639.628 209.984L639.756 207.936C639.926 207.957 640.049 207.968 640.124 207.968C640.497 207.968 640.774 207.835 640.956 207.568C641.148 207.291 641.276 206.944 641.34 206.528C641.404 206.101 641.452 205.541 641.484 204.848L641.612 201.392H648.972ZM651.372 201.392H653.852V206.512L658.044 201.392H660.332V210H657.852V204.88L653.676 210H651.372V201.392ZM671.099 205.728C671.099 205.76 671.083 205.984 671.051 206.4H664.539C664.657 206.933 664.934 207.355 665.371 207.664C665.809 207.973 666.353 208.128 667.003 208.128C667.451 208.128 667.846 208.064 668.187 207.936C668.539 207.797 668.865 207.584 669.163 207.296L670.491 208.736C669.681 209.664 668.497 210.128 666.939 210.128C665.969 210.128 665.11 209.941 664.363 209.568C663.617 209.184 663.041 208.656 662.635 207.984C662.23 207.312 662.027 206.549 662.027 205.696C662.027 204.853 662.225 204.096 662.619 203.424C663.025 202.741 663.574 202.213 664.267 201.84C664.971 201.456 665.755 201.264 666.619 201.264C667.462 201.264 668.225 201.445 668.907 201.808C669.59 202.171 670.123 202.693 670.507 203.376C670.902 204.048 671.099 204.832 671.099 205.728ZM666.635 203.152C666.07 203.152 665.595 203.312 665.211 203.632C664.827 203.952 664.593 204.389 664.507 204.944H668.747C668.662 204.4 668.427 203.968 668.043 203.648C667.659 203.317 667.19 203.152 666.635 203.152ZM673.013 201.392H675.493V204.752H679.237V201.392H681.733V210H679.237V206.784H675.493V210H673.013V201.392ZM691.354 203.44H688.442V210H685.962V203.44H683.05V201.392H691.354V203.44ZM705.776 201.392V210H703.28V203.44H699.696V210H697.216V201.392H705.776ZM712.201 210.128C711.294 210.128 710.478 209.941 709.753 209.568C709.038 209.184 708.478 208.656 708.073 207.984C707.667 207.312 707.465 206.549 707.465 205.696C707.465 204.843 707.667 204.08 708.073 203.408C708.478 202.736 709.038 202.213 709.753 201.84C710.478 201.456 711.294 201.264 712.201 201.264C713.107 201.264 713.918 201.456 714.633 201.84C715.347 202.213 715.907 202.736 716.313 203.408C716.718 204.08 716.921 204.843 716.921 205.696C716.921 206.549 716.718 207.312 716.313 207.984C715.907 208.656 715.347 209.184 714.633 209.568C713.918 209.941 713.107 210.128 712.201 210.128ZM712.201 208.08C712.841 208.08 713.363 207.867 713.769 207.44C714.185 207.003 714.393 206.421 714.393 205.696C714.393 204.971 714.185 204.395 713.769 203.968C713.363 203.531 712.841 203.312 712.201 203.312C711.561 203.312 711.033 203.531 710.617 203.968C710.201 204.395 709.993 204.971 709.993 205.696C709.993 206.421 710.201 207.003 710.617 207.44C711.033 207.867 711.561 208.08 712.201 208.08ZM726.769 201.392V210H724.273V203.44H721.553L721.473 204.96C721.43 206.091 721.323 207.029 721.153 207.776C720.982 208.523 720.705 209.109 720.321 209.536C719.937 209.963 719.403 210.176 718.721 210.176C718.358 210.176 717.926 210.112 717.425 209.984L717.553 207.936C717.723 207.957 717.846 207.968 717.921 207.968C718.294 207.968 718.571 207.835 718.753 207.568C718.945 207.291 719.073 206.944 719.137 206.528C719.201 206.101 719.249 205.541 719.281 204.848L719.409 201.392H726.769ZM737.793 201.392L733.905 210.528C733.51 211.52 733.019 212.219 732.433 212.624C731.857 213.029 731.158 213.232 730.337 213.232C729.889 213.232 729.446 213.163 729.009 213.024C728.571 212.885 728.214 212.693 727.937 212.448L728.849 210.672C729.041 210.843 729.259 210.976 729.505 211.072C729.761 211.168 730.011 211.216 730.257 211.216C730.598 211.216 730.875 211.131 731.089 210.96C731.302 210.8 731.494 210.528 731.665 210.144L731.697 210.064L727.969 201.392H730.545L732.961 207.232L735.393 201.392H737.793ZM746.741 201.392V210H744.245V206.8C743.52 207.163 742.72 207.344 741.845 207.344C740.682 207.344 739.802 207.083 739.205 206.56C738.618 206.027 738.325 205.205 738.325 204.096V201.392H740.821V203.936C740.821 204.459 740.954 204.837 741.221 205.072C741.498 205.307 741.893 205.424 742.405 205.424C743.056 205.424 743.669 205.285 744.245 205.008V201.392H746.741ZM752.482 201.264C753.815 201.264 754.839 201.584 755.554 202.224C756.268 202.853 756.626 203.808 756.626 205.088V210H754.29V208.928C753.82 209.728 752.946 210.128 751.666 210.128C751.004 210.128 750.428 210.016 749.938 209.792C749.458 209.568 749.09 209.259 748.834 208.864C748.578 208.469 748.45 208.021 748.45 207.52C748.45 206.72 748.748 206.091 749.346 205.632C749.954 205.173 750.887 204.944 752.146 204.944H754.13C754.13 204.4 753.964 203.984 753.634 203.696C753.303 203.397 752.807 203.248 752.146 203.248C751.687 203.248 751.234 203.323 750.786 203.472C750.348 203.611 749.975 203.803 749.666 204.048L748.77 202.304C749.239 201.973 749.799 201.717 750.45 201.536C751.111 201.355 751.788 201.264 752.482 201.264ZM752.29 208.448C752.716 208.448 753.095 208.352 753.426 208.16C753.756 207.957 753.991 207.664 754.13 207.28V206.4H752.418C751.394 206.4 750.882 206.736 750.882 207.408C750.882 207.728 751.004 207.984 751.25 208.176C751.506 208.357 751.852 208.448 752.29 208.448ZM767.162 205.728C767.162 205.76 767.146 205.984 767.114 206.4H760.602C760.719 206.933 760.996 207.355 761.434 207.664C761.871 207.973 762.415 208.128 763.066 208.128C763.514 208.128 763.908 208.064 764.25 207.936C764.602 207.797 764.927 207.584 765.226 207.296L766.554 208.736C765.743 209.664 764.559 210.128 763.002 210.128C762.031 210.128 761.172 209.941 760.426 209.568C759.679 209.184 759.103 208.656 758.698 207.984C758.292 207.312 758.09 206.549 758.09 205.696C758.09 204.853 758.287 204.096 758.682 203.424C759.087 202.741 759.636 202.213 760.33 201.84C761.034 201.456 761.818 201.264 762.682 201.264C763.524 201.264 764.287 201.445 764.97 201.808C765.652 202.171 766.186 202.693 766.57 203.376C766.964 204.048 767.162 204.832 767.162 205.728ZM762.698 203.152C762.132 203.152 761.658 203.312 761.274 203.632C760.89 203.952 760.655 204.389 760.57 204.944H764.81C764.724 204.4 764.49 203.968 764.106 203.648C763.722 203.317 763.252 203.152 762.698 203.152ZM776.01 203.44H773.098V210H770.618V203.44H767.706V201.392H776.01V203.44ZM685.097 224.52C685.609 224.68 686.003 224.925 686.281 225.256C686.569 225.587 686.713 225.981 686.713 226.44C686.713 226.984 686.526 227.464 686.153 227.88C685.779 228.285 685.267 228.6 684.617 228.824C683.966 229.048 683.23 229.16 682.409 229.16C681.737 229.16 681.075 229.091 680.424 228.952C679.774 228.813 679.171 228.605 678.617 228.328L679.289 226.584C680.195 227.021 681.198 227.24 682.297 227.24C682.883 227.24 683.342 227.155 683.673 226.984C684.014 226.803 684.185 226.552 684.185 226.232C684.185 225.955 684.067 225.747 683.833 225.608C683.598 225.459 683.257 225.384 682.809 225.384H681.049V223.832H682.585C683.022 223.832 683.358 223.763 683.593 223.624C683.827 223.485 683.945 223.283 683.945 223.016C683.945 222.739 683.795 222.525 683.497 222.376C683.209 222.227 682.793 222.152 682.249 222.152C681.417 222.152 680.51 222.349 679.529 222.744L678.921 221.016C680.115 220.493 681.278 220.232 682.409 220.232C683.187 220.232 683.881 220.328 684.489 220.52C685.107 220.712 685.593 220.995 685.945 221.368C686.297 221.731 686.473 222.157 686.473 222.648C686.473 223.053 686.35 223.421 686.105 223.752C685.859 224.072 685.523 224.328 685.097 224.52ZM691.872 220.264C693.205 220.264 694.229 220.584 694.944 221.224C695.659 221.853 696.016 222.808 696.016 224.088V229H693.68V227.928C693.211 228.728 692.336 229.128 691.056 229.128C690.395 229.128 689.819 229.016 689.328 228.792C688.848 228.568 688.48 228.259 688.224 227.864C687.968 227.469 687.84 227.021 687.84 226.52C687.84 225.72 688.139 225.091 688.736 224.632C689.344 224.173 690.277 223.944 691.536 223.944H693.52C693.52 223.4 693.355 222.984 693.024 222.696C692.693 222.397 692.197 222.248 691.536 222.248C691.077 222.248 690.624 222.323 690.176 222.472C689.739 222.611 689.365 222.803 689.056 223.048L688.16 221.304C688.629 220.973 689.189 220.717 689.84 220.536C690.501 220.355 691.179 220.264 691.872 220.264ZM691.68 227.448C692.107 227.448 692.485 227.352 692.816 227.16C693.147 226.957 693.381 226.664 693.52 226.28V225.4H691.808C690.784 225.4 690.272 225.736 690.272 226.408C690.272 226.728 690.395 226.984 690.64 227.176C690.896 227.357 691.243 227.448 691.68 227.448ZM701.976 225.736H700.68V229H698.184V220.392H700.68V223.736H702.024L704.36 220.392H707.016L704.008 224.52L707.224 229H704.28L701.976 225.736ZM711.638 220.264C712.971 220.264 713.995 220.584 714.71 221.224C715.424 221.853 715.782 222.808 715.782 224.088V229H713.446V227.928C712.976 228.728 712.102 229.128 710.822 229.128C710.16 229.128 709.584 229.016 709.094 228.792C708.614 228.568 708.246 228.259 707.99 227.864C707.734 227.469 707.606 227.021 707.606 226.52C707.606 225.72 707.904 225.091 708.502 224.632C709.11 224.173 710.043 223.944 711.302 223.944H713.286C713.286 223.4 713.12 222.984 712.79 222.696C712.459 222.397 711.963 222.248 711.302 222.248C710.843 222.248 710.39 222.323 709.942 222.472C709.504 222.611 709.131 222.803 708.822 223.048L707.926 221.304C708.395 220.973 708.955 220.717 709.606 220.536C710.267 220.355 710.944 220.264 711.638 220.264ZM711.446 227.448C711.872 227.448 712.251 227.352 712.582 227.16C712.912 226.957 713.147 226.664 713.286 226.28V225.4H711.574C710.55 225.4 710.038 225.736 710.038 226.408C710.038 226.728 710.16 226.984 710.406 227.176C710.662 227.357 711.008 227.448 711.446 227.448ZM723.456 224.52C723.968 224.68 724.363 224.925 724.64 225.256C724.928 225.587 725.072 225.981 725.072 226.44C725.072 226.984 724.885 227.464 724.512 227.88C724.139 228.285 723.627 228.6 722.976 228.824C722.325 229.048 721.589 229.16 720.768 229.16C720.096 229.16 719.435 229.091 718.784 228.952C718.133 228.813 717.531 228.605 716.976 228.328L717.648 226.584C718.555 227.021 719.557 227.24 720.656 227.24C721.243 227.24 721.701 227.155 722.032 226.984C722.373 226.803 722.544 226.552 722.544 226.232C722.544 225.955 722.427 225.747 722.192 225.608C721.957 225.459 721.616 225.384 721.168 225.384H719.408V223.832H720.944C721.381 223.832 721.717 223.763 721.952 223.624C722.187 223.485 722.304 223.283 722.304 223.016C722.304 222.739 722.155 222.525 721.856 222.376C721.568 222.227 721.152 222.152 720.608 222.152C719.776 222.152 718.869 222.349 717.888 222.744L717.28 221.016C718.475 220.493 719.637 220.232 720.768 220.232C721.547 220.232 722.24 220.328 722.848 220.52C723.467 220.712 723.952 220.995 724.304 221.368C724.656 221.731 724.832 222.157 724.832 222.648C724.832 223.053 724.709 223.421 724.464 223.752C724.219 224.072 723.883 224.328 723.456 224.52Z" fill="#1F1F1F"/>
<path d="M166.803 3.8C167.795 3.8 168.653 3.96533 169.378 4.296C170.115 4.62667 170.68 5.096 171.075 5.704C171.469 6.312 171.667 7.032 171.667 7.864C171.667 8.68533 171.469 9.40533 171.075 10.024C170.68 10.632 170.115 11.1013 169.378 11.432C168.653 11.752 167.795 11.912 166.803 11.912H164.547V15H161.955V3.8H166.803ZM166.659 9.8C167.437 9.8 168.029 9.63467 168.435 9.304C168.84 8.96267 169.043 8.48267 169.043 7.864C169.043 7.23467 168.84 6.75467 168.435 6.424C168.029 6.08267 167.437 5.912 166.659 5.912H164.547V9.8H166.659ZM181.537 10.728C181.537 10.76 181.521 10.984 181.489 11.4H174.977C175.094 11.9333 175.371 12.3547 175.809 12.664C176.246 12.9733 176.79 13.128 177.441 13.128C177.889 13.128 178.283 13.064 178.625 12.936C178.977 12.7973 179.302 12.584 179.601 12.296L180.929 13.736C180.118 14.664 178.934 15.128 177.377 15.128C176.406 15.128 175.547 14.9413 174.801 14.568C174.054 14.184 173.478 13.656 173.073 12.984C172.667 12.312 172.465 11.5493 172.465 10.696C172.465 9.85333 172.662 9.096 173.057 8.424C173.462 7.74133 174.011 7.21333 174.705 6.84C175.409 6.456 176.193 6.264 177.057 6.264C177.899 6.264 178.662 6.44533 179.345 6.808C180.027 7.17067 180.561 7.69333 180.945 8.376C181.339 9.048 181.537 9.832 181.537 10.728ZM177.073 8.152C176.507 8.152 176.033 8.312 175.649 8.632C175.265 8.952 175.03 9.38933 174.945 9.944H179.185C179.099 9.4 178.865 8.968 178.481 8.648C178.097 8.31733 177.627 8.152 177.073 8.152ZM187.546 15.128C186.629 15.128 185.802 14.9413 185.066 14.568C184.341 14.184 183.77 13.656 183.354 12.984C182.949 12.312 182.746 11.5493 182.746 10.696C182.746 9.84267 182.949 9.08 183.354 8.408C183.77 7.736 184.341 7.21333 185.066 6.84C185.802 6.456 186.629 6.264 187.546 6.264C188.453 6.264 189.242 6.456 189.914 6.84C190.597 7.21333 191.093 7.752 191.402 8.456L189.466 9.496C189.018 8.70667 188.373 8.312 187.53 8.312C186.879 8.312 186.341 8.52533 185.914 8.952C185.487 9.37867 185.274 9.96 185.274 10.696C185.274 11.432 185.487 12.0133 185.914 12.44C186.341 12.8667 186.879 13.08 187.53 13.08C188.383 13.08 189.029 12.6853 189.466 11.896L191.402 12.952C191.093 13.6347 190.597 14.168 189.914 14.552C189.242 14.936 188.453 15.128 187.546 15.128ZM200.12 8.44H197.208V15H194.728V8.44H191.816V6.392H200.12V8.44ZM205.123 15.128C204.216 15.128 203.4 14.9413 202.675 14.568C201.96 14.184 201.4 13.656 200.995 12.984C200.589 12.312 200.387 11.5493 200.387 10.696C200.387 9.84267 200.589 9.08 200.995 8.408C201.4 7.736 201.96 7.21333 202.675 6.84C203.4 6.456 204.216 6.264 205.123 6.264C206.029 6.264 206.84 6.456 207.555 6.84C208.269 7.21333 208.829 7.736 209.235 8.408C209.64 9.08 209.843 9.84267 209.843 10.696C209.843 11.5493 209.64 12.312 209.235 12.984C208.829 13.656 208.269 14.184 207.555 14.568C206.84 14.9413 206.029 15.128 205.123 15.128ZM205.123 13.08C205.763 13.08 206.285 12.8667 206.691 12.44C207.107 12.0027 207.315 11.4213 207.315 10.696C207.315 9.97067 207.107 9.39467 206.691 8.968C206.285 8.53067 205.763 8.312 205.123 8.312C204.483 8.312 203.955 8.53067 203.539 8.968C203.123 9.39467 202.915 9.97067 202.915 10.696C202.915 11.4213 203.123 12.0027 203.539 12.44C203.955 12.8667 204.483 13.08 205.123 13.08ZM216.631 6.264C217.431 6.264 218.157 6.45067 218.807 6.824C219.469 7.18667 219.986 7.704 220.359 8.376C220.733 9.03733 220.919 9.81067 220.919 10.696C220.919 11.5813 220.733 12.36 220.359 13.032C219.986 13.6933 219.469 14.2107 218.807 14.584C218.157 14.9467 217.431 15.128 216.631 15.128C215.533 15.128 214.669 14.7813 214.039 14.088V18.104H211.543V6.392H213.927V7.384C214.546 6.63733 215.447 6.264 216.631 6.264ZM216.199 13.08C216.839 13.08 217.362 12.8667 217.767 12.44C218.183 12.0027 218.391 11.4213 218.391 10.696C218.391 9.97067 218.183 9.39467 217.767 8.968C217.362 8.53067 216.839 8.312 216.199 8.312C215.559 8.312 215.031 8.53067 214.615 8.968C214.21 9.39467 214.007 9.97067 214.007 10.696C214.007 11.4213 214.21 12.0027 214.615 12.44C215.031 12.8667 215.559 13.08 216.199 13.08ZM225.872 6.264C227.205 6.264 228.229 6.584 228.944 7.224C229.659 7.85333 230.016 8.808 230.016 10.088V15H227.68V13.928C227.211 14.728 226.336 15.128 225.056 15.128C224.395 15.128 223.819 15.016 223.328 14.792C222.848 14.568 222.48 14.2587 222.224 13.864C221.968 13.4693 221.84 13.0213 221.84 12.52C221.84 11.72 222.139 11.0907 222.736 10.632C223.344 10.1733 224.277 9.944 225.536 9.944H227.52C227.52 9.4 227.355 8.984 227.024 8.696C226.693 8.39733 226.197 8.248 225.536 8.248C225.077 8.248 224.624 8.32267 224.176 8.472C223.739 8.61067 223.365 8.80267 223.056 9.048L222.16 7.304C222.629 6.97333 223.189 6.71733 223.84 6.536C224.501 6.35467 225.179 6.264 225.872 6.264ZM225.68 13.448C226.107 13.448 226.485 13.352 226.816 13.16C227.147 12.9573 227.381 12.664 227.52 12.28V11.4H225.808C224.784 11.4 224.272 11.736 224.272 12.408C224.272 12.728 224.395 12.984 224.64 13.176C224.896 13.3573 225.243 13.448 225.68 13.448ZM232.184 6.392H234.664V9.752H238.408V6.392H240.904V15H238.408V11.784H234.664V15H232.184V6.392ZM256.385 6.392V15H253.889V8.44H250.305V15H247.825V6.392H256.385ZM262.81 15.128C261.903 15.128 261.087 14.9413 260.362 14.568C259.647 14.184 259.087 13.656 258.682 12.984C258.277 12.312 258.074 11.5493 258.074 10.696C258.074 9.84267 258.277 9.08 258.682 8.408C259.087 7.736 259.647 7.21333 260.362 6.84C261.087 6.456 261.903 6.264 262.81 6.264C263.717 6.264 264.527 6.456 265.242 6.84C265.957 7.21333 266.517 7.736 266.922 8.408C267.327 9.08 267.53 9.84267 267.53 10.696C267.53 11.5493 267.327 12.312 266.922 12.984C266.517 13.656 265.957 14.184 265.242 14.568C264.527 14.9413 263.717 15.128 262.81 15.128ZM262.81 13.08C263.45 13.08 263.973 12.8667 264.378 12.44C264.794 12.0027 265.002 11.4213 265.002 10.696C265.002 9.97067 264.794 9.39467 264.378 8.968C263.973 8.53067 263.45 8.312 262.81 8.312C262.17 8.312 261.642 8.53067 261.226 8.968C260.81 9.39467 260.602 9.97067 260.602 10.696C260.602 11.4213 260.81 12.0027 261.226 12.44C261.642 12.8667 262.17 13.08 262.81 13.08ZM278.77 12.952V16.856H276.45V15H270.402V16.856H268.082V12.952H268.434C268.967 12.9413 269.335 12.6267 269.538 12.008C269.741 11.3893 269.869 10.5093 269.922 9.368L270.034 6.392H277.538V12.952H278.77ZM272.178 9.544C272.146 10.4187 272.077 11.1333 271.97 11.688C271.874 12.2427 271.687 12.664 271.41 12.952H275.042V8.44H272.226L272.178 9.544ZM287.573 8.44H284.661V15H282.181V8.44H279.269V6.392H287.573V8.44ZM295.479 10.504C296.492 10.8453 296.999 11.528 296.999 12.552C296.999 13.3307 296.706 13.9333 296.119 14.36C295.532 14.7867 294.658 15 293.495 15H288.903V6.392H293.303C294.38 6.392 295.223 6.58933 295.831 6.984C296.439 7.368 296.743 7.912 296.743 8.616C296.743 9.04267 296.631 9.42133 296.407 9.752C296.194 10.072 295.884 10.3227 295.479 10.504ZM291.191 9.928H293.079C293.954 9.928 294.391 9.61867 294.391 9C294.391 8.392 293.954 8.088 293.079 8.088H291.191V9.928ZM293.287 13.304C294.204 13.304 294.663 12.9893 294.663 12.36C294.663 12.0293 294.556 11.7893 294.343 11.64C294.13 11.48 293.794 11.4 293.335 11.4H291.191V13.304H293.287ZM307.224 10.728C307.224 10.76 307.208 10.984 307.176 11.4H300.664C300.782 11.9333 301.059 12.3547 301.496 12.664C301.934 12.9733 302.478 13.128 303.128 13.128C303.576 13.128 303.971 13.064 304.312 12.936C304.664 12.7973 304.99 12.584 305.288 12.296L306.616 13.736C305.806 14.664 304.622 15.128 303.064 15.128C302.094 15.128 301.235 14.9413 300.488 14.568C299.742 14.184 299.166 13.656 298.76 12.984C298.355 12.312 298.152 11.5493 298.152 10.696C298.152 9.85333 298.35 9.096 298.744 8.424C299.15 7.74133 299.699 7.21333 300.392 6.84C301.096 6.456 301.88 6.264 302.744 6.264C303.587 6.264 304.35 6.44533 305.032 6.808C305.715 7.17067 306.248 7.69333 306.632 8.376C307.027 9.048 307.224 9.832 307.224 10.728ZM302.76 8.152C302.195 8.152 301.72 8.312 301.336 8.632C300.952 8.952 300.718 9.38933 300.632 9.944H304.872C304.787 9.4 304.552 8.968 304.168 8.648C303.784 8.31733 303.315 8.152 302.76 8.152ZM314.21 6.264C315.01 6.264 315.735 6.45067 316.385 6.824C317.047 7.18667 317.564 7.704 317.938 8.376C318.311 9.03733 318.498 9.81067 318.498 10.696C318.498 11.5813 318.311 12.36 317.938 13.032C317.564 13.6933 317.047 14.2107 316.385 14.584C315.735 14.9467 315.01 15.128 314.21 15.128C313.111 15.128 312.247 14.7813 311.618 14.088V18.104H309.122V6.392H311.506V7.384C312.124 6.63733 313.026 6.264 314.21 6.264ZM313.778 13.08C314.418 13.08 314.94 12.8667 315.346 12.44C315.762 12.0027 315.97 11.4213 315.97 10.696C315.97 9.97067 315.762 9.39467 315.346 8.968C314.94 8.53067 314.418 8.312 313.778 8.312C313.138 8.312 312.61 8.53067 312.194 8.968C311.788 9.39467 311.586 9.97067 311.586 10.696C311.586 11.4213 311.788 12.0027 312.194 12.44C312.61 12.8667 313.138 13.08 313.778 13.08ZM328.509 11.736H327.309V15H324.845V11.736H323.645L321.821 15H318.877L321.581 10.552L319.069 6.392H321.709L323.613 9.736H324.845V6.392H327.309V9.736H328.525L330.445 6.392H333.085L330.573 10.552L333.293 15H330.333L328.509 11.736ZM337.778 6.264C339.112 6.264 340.136 6.584 340.85 7.224C341.565 7.85333 341.922 8.808 341.922 10.088V15H339.586V13.928C339.117 14.728 338.242 15.128 336.962 15.128C336.301 15.128 335.725 15.016 335.234 14.792C334.754 14.568 334.386 14.2587 334.13 13.864C333.874 13.4693 333.746 13.0213 333.746 12.52C333.746 11.72 334.045 11.0907 334.642 10.632C335.25 10.1733 336.184 9.944 337.442 9.944H339.426C339.426 9.4 339.261 8.984 338.93 8.696C338.6 8.39733 338.104 8.248 337.442 8.248C336.984 8.248 336.53 8.32267 336.082 8.472C335.645 8.61067 335.272 8.80267 334.962 9.048L334.066 7.304C334.536 6.97333 335.096 6.71733 335.746 6.536C336.408 6.35467 337.085 6.264 337.778 6.264ZM337.586 13.448C338.013 13.448 338.392 13.352 338.722 13.16C339.053 12.9573 339.288 12.664 339.426 12.28V11.4H337.714C336.69 11.4 336.178 11.736 336.178 12.408C336.178 12.728 336.301 12.984 336.546 13.176C336.802 13.3573 337.149 13.448 337.586 13.448ZM352.459 10.728C352.459 10.76 352.443 10.984 352.411 11.4H345.899C346.016 11.9333 346.293 12.3547 346.731 12.664C347.168 12.9733 347.712 13.128 348.363 13.128C348.811 13.128 349.205 13.064 349.547 12.936C349.899 12.7973 350.224 12.584 350.523 12.296L351.851 13.736C351.04 14.664 349.856 15.128 348.299 15.128C347.328 15.128 346.469 14.9413 345.723 14.568C344.976 14.184 344.4 13.656 343.995 12.984C343.589 12.312 343.387 11.5493 343.387 10.696C343.387 9.85333 343.584 9.096 343.979 8.424C344.384 7.74133 344.933 7.21333 345.627 6.84C346.331 6.456 347.115 6.264 347.979 6.264C348.821 6.264 349.584 6.44533 350.267 6.808C350.949 7.17067 351.483 7.69333 351.867 8.376C352.261 9.048 352.459 9.832 352.459 10.728ZM347.995 8.152C347.429 8.152 346.955 8.312 346.571 8.632C346.187 8.952 345.952 9.38933 345.867 9.944H350.107C350.021 9.4 349.787 8.968 349.403 8.648C349.019 8.31733 348.549 8.152 347.995 8.152ZM361.307 8.44H358.395V15H355.915V8.44H353.003V6.392H361.307V8.44ZM223.239 25.392H225.719V30.512L229.911 25.392H232.199V34H229.719V28.88L225.543 34H223.239V25.392ZM246.026 27.44H241.61V34H239.13V25.392H246.026V27.44ZM251.021 34.128C250.114 34.128 249.298 33.9413 248.573 33.568C247.858 33.184 247.298 32.656 246.893 31.984C246.488 31.312 246.285 30.5493 246.285 29.696C246.285 28.8427 246.488 28.08 246.893 27.408C247.298 26.736 247.858 26.2133 248.573 25.84C249.298 25.456 250.114 25.264 251.021 25.264C251.928 25.264 252.738 25.456 253.453 25.84C254.168 26.2133 254.728 26.736 255.133 27.408C255.538 28.08 255.741 28.8427 255.741 29.696C255.741 30.5493 255.538 31.312 255.133 31.984C254.728 32.656 254.168 33.184 253.453 33.568C252.738 33.9413 251.928 34.128 251.021 34.128ZM251.021 32.08C251.661 32.08 252.184 31.8667 252.589 31.44C253.005 31.0027 253.213 30.4213 253.213 29.696C253.213 28.9707 253.005 28.3947 252.589 27.968C252.184 27.5307 251.661 27.312 251.021 27.312C250.381 27.312 249.853 27.5307 249.437 27.968C249.021 28.3947 248.813 28.9707 248.813 29.696C248.813 30.4213 249.021 31.0027 249.437 31.44C249.853 31.8667 250.381 32.08 251.021 32.08ZM264.377 27.44H261.465V34H258.985V27.44H256.073V25.392H264.377V27.44ZM269.38 34.128C268.474 34.128 267.658 33.9413 266.932 33.568C266.218 33.184 265.658 32.656 265.252 31.984C264.847 31.312 264.644 30.5493 264.644 29.696C264.644 28.8427 264.847 28.08 265.252 27.408C265.658 26.736 266.218 26.2133 266.932 25.84C267.658 25.456 268.474 25.264 269.38 25.264C270.287 25.264 271.098 25.456 271.812 25.84C272.527 26.2133 273.087 26.736 273.492 27.408C273.898 28.08 274.1 28.8427 274.1 29.696C274.1 30.5493 273.898 31.312 273.492 31.984C273.087 32.656 272.527 33.184 271.812 33.568C271.098 33.9413 270.287 34.128 269.38 34.128ZM269.38 32.08C270.02 32.08 270.543 31.8667 270.948 31.44C271.364 31.0027 271.572 30.4213 271.572 29.696C271.572 28.9707 271.364 28.3947 270.948 27.968C270.543 27.5307 270.02 27.312 269.38 27.312C268.74 27.312 268.212 27.5307 267.796 27.968C267.38 28.3947 267.172 28.9707 267.172 29.696C267.172 30.4213 267.38 31.0027 267.796 31.44C268.212 31.8667 268.74 32.08 269.38 32.08ZM282.393 29.504C283.407 29.8453 283.913 30.528 283.913 31.552C283.913 32.3307 283.62 32.9333 283.033 33.36C282.447 33.7867 281.572 34 280.409 34H275.817V25.392H280.217C281.295 25.392 282.137 25.5893 282.745 25.984C283.353 26.368 283.657 26.912 283.657 27.616C283.657 28.0427 283.545 28.4213 283.321 28.752C283.108 29.072 282.799 29.3227 282.393 29.504ZM278.105 28.928H279.993C280.868 28.928 281.305 28.6187 281.305 28C281.305 27.392 280.868 27.088 279.993 27.088H278.105V28.928ZM280.201 32.304C281.119 32.304 281.577 31.9893 281.577 31.36C281.577 31.0293 281.471 30.7893 281.257 30.64C281.044 30.48 280.708 30.4 280.249 30.4H278.105V32.304H280.201ZM285.77 25.392H288.25V30.512L292.442 25.392H294.73V34H292.25V28.88L288.074 34H285.77V25.392ZM304.362 27.44H301.45V34H298.97V27.44H296.058V25.392H304.362V27.44Z" fill="#1F1F1F"/>
<path d="M478.564 10.488H476.772V15H474.196V3.8H476.772V8.328H478.628L481.572 3.8H484.308L480.644 9.208L484.42 15H481.476L478.564 10.488ZM493.894 6.392L490.006 15.528C489.612 16.52 489.121 17.2187 488.534 17.624C487.958 18.0293 487.26 18.232 486.438 18.232C485.99 18.232 485.548 18.1627 485.11 18.024C484.673 17.8853 484.316 17.6933 484.038 17.448L484.95 15.672C485.142 15.8427 485.361 15.976 485.606 16.072C485.862 16.168 486.113 16.216 486.358 16.216C486.7 16.216 486.977 16.1307 487.19 15.96C487.404 15.8 487.596 15.528 487.766 15.144L487.798 15.064L484.07 6.392H486.646L489.062 12.232L491.494 6.392H493.894ZM500.17 6.264C500.97 6.264 501.696 6.45067 502.346 6.824C503.008 7.18667 503.525 7.704 503.898 8.376C504.272 9.03733 504.458 9.81067 504.458 10.696C504.458 11.5813 504.272 12.36 503.898 13.032C503.525 13.6933 503.008 14.2107 502.346 14.584C501.696 14.9467 500.97 15.128 500.17 15.128C499.072 15.128 498.208 14.7813 497.578 14.088V18.104H495.082V6.392H497.466V7.384C498.085 6.63733 498.986 6.264 500.17 6.264ZM499.738 13.08C500.378 13.08 500.901 12.8667 501.306 12.44C501.722 12.0027 501.93 11.4213 501.93 10.696C501.93 9.97067 501.722 9.39467 501.306 8.968C500.901 8.53067 500.378 8.312 499.738 8.312C499.098 8.312 498.57 8.53067 498.154 8.968C497.749 9.39467 497.546 9.97067 497.546 10.696C497.546 11.4213 497.749 12.0027 498.154 12.44C498.57 12.8667 499.098 13.08 499.738 13.08ZM510.864 9.144C511.984 9.15467 512.842 9.41067 513.44 9.912C514.037 10.4027 514.336 11.1013 514.336 12.008C514.336 12.9573 514 13.6987 513.328 14.232C512.666 14.7547 511.733 15.016 510.528 15.016L506.208 15V6.392H508.688V9.144H510.864ZM510.304 13.24C510.784 13.2507 511.152 13.1493 511.408 12.936C511.664 12.7227 511.792 12.4027 511.792 11.976C511.792 11.56 511.664 11.256 511.408 11.064C511.162 10.872 510.794 10.7707 510.304 10.76L508.688 10.744V13.24H510.304ZM524.263 10.728C524.263 10.76 524.247 10.984 524.215 11.4H517.703C517.821 11.9333 518.098 12.3547 518.535 12.664C518.973 12.9733 519.517 13.128 520.167 13.128C520.615 13.128 521.01 13.064 521.351 12.936C521.703 12.7973 522.029 12.584 522.327 12.296L523.655 13.736C522.845 14.664 521.661 15.128 520.103 15.128C519.133 15.128 518.274 14.9413 517.527 14.568C516.781 14.184 516.205 13.656 515.799 12.984C515.394 12.312 515.191 11.5493 515.191 10.696C515.191 9.85333 515.389 9.096 515.783 8.424C516.189 7.74133 516.738 7.21333 517.431 6.84C518.135 6.456 518.919 6.264 519.783 6.264C520.626 6.264 521.389 6.44533 522.071 6.808C522.754 7.17067 523.287 7.69333 523.671 8.376C524.066 9.048 524.263 9.832 524.263 10.728ZM519.799 8.152C519.234 8.152 518.759 8.312 518.375 8.632C517.991 8.952 517.757 9.38933 517.671 9.944H521.911C521.826 9.4 521.591 8.968 521.207 8.648C520.823 8.31733 520.354 8.152 519.799 8.152ZM531.249 6.264C532.049 6.264 532.774 6.45067 533.425 6.824C534.086 7.18667 534.603 7.704 534.977 8.376C535.35 9.03733 535.537 9.81067 535.537 10.696C535.537 11.5813 535.35 12.36 534.977 13.032C534.603 13.6933 534.086 14.2107 533.425 14.584C532.774 14.9467 532.049 15.128 531.249 15.128C530.15 15.128 529.286 14.7813 528.657 14.088V18.104H526.161V6.392H528.545V7.384C529.163 6.63733 530.065 6.264 531.249 6.264ZM530.817 13.08C531.457 13.08 531.979 12.8667 532.385 12.44C532.801 12.0027 533.009 11.4213 533.009 10.696C533.009 9.97067 532.801 9.39467 532.385 8.968C531.979 8.53067 531.457 8.312 530.817 8.312C530.177 8.312 529.649 8.53067 529.233 8.968C528.827 9.39467 528.625 9.97067 528.625 10.696C528.625 11.4213 528.827 12.0027 529.233 12.44C529.649 12.8667 530.177 13.08 530.817 13.08ZM551.465 12.952V16.856H549.145V15H543.097V16.856H540.777V12.952H541.129C541.663 12.9413 542.031 12.6267 542.233 12.008C542.436 11.3893 542.564 10.5093 542.617 9.368L542.729 6.392H550.233V12.952H551.465ZM544.873 9.544C544.841 10.4187 544.772 11.1333 544.665 11.688C544.569 12.2427 544.383 12.664 544.105 12.952H547.737V8.44H544.921L544.873 9.544ZM557.068 15.128C556.161 15.128 555.345 14.9413 554.62 14.568C553.905 14.184 553.345 13.656 552.94 12.984C552.535 12.312 552.332 11.5493 552.332 10.696C552.332 9.84267 552.535 9.08 552.94 8.408C553.345 7.736 553.905 7.21333 554.62 6.84C555.345 6.456 556.161 6.264 557.068 6.264C557.975 6.264 558.785 6.456 559.5 6.84C560.215 7.21333 560.775 7.736 561.18 8.408C561.585 9.08 561.788 9.84267 561.788 10.696C561.788 11.5493 561.585 12.312 561.18 12.984C560.775 13.656 560.215 14.184 559.5 14.568C558.785 14.9413 557.975 15.128 557.068 15.128ZM557.068 13.08C557.708 13.08 558.231 12.8667 558.636 12.44C559.052 12.0027 559.26 11.4213 559.26 10.696C559.26 9.97067 559.052 9.39467 558.636 8.968C558.231 8.53067 557.708 8.312 557.068 8.312C556.428 8.312 555.9 8.53067 555.484 8.968C555.068 9.39467 554.86 9.97067 554.86 10.696C554.86 11.4213 555.068 12.0027 555.484 12.44C555.9 12.8667 556.428 13.08 557.068 13.08ZM567.601 15.128C566.683 15.128 565.857 14.9413 565.121 14.568C564.395 14.184 563.825 13.656 563.409 12.984C563.003 12.312 562.801 11.5493 562.801 10.696C562.801 9.84267 563.003 9.08 563.409 8.408C563.825 7.736 564.395 7.21333 565.121 6.84C565.857 6.456 566.683 6.264 567.601 6.264C568.507 6.264 569.297 6.456 569.969 6.84C570.651 7.21333 571.147 7.752 571.457 8.456L569.521 9.496C569.073 8.70667 568.427 8.312 567.585 8.312C566.934 8.312 566.395 8.52533 565.969 8.952C565.542 9.37867 565.329 9.96 565.329 10.696C565.329 11.432 565.542 12.0133 565.969 12.44C566.395 12.8667 566.934 13.08 567.585 13.08C568.438 13.08 569.083 12.6853 569.521 11.896L571.457 12.952C571.147 13.6347 570.651 14.168 569.969 14.552C569.297 14.936 568.507 15.128 567.601 15.128ZM580.174 8.44H577.262V15H574.782V8.44H571.87V6.392H580.174V8.44ZM584.849 6.264C586.182 6.264 587.206 6.584 587.921 7.224C588.635 7.85333 588.993 8.808 588.993 10.088V15H586.657V13.928C586.187 14.728 585.313 15.128 584.033 15.128C583.371 15.128 582.795 15.016 582.305 14.792C581.825 14.568 581.457 14.2587 581.201 13.864C580.945 13.4693 580.817 13.0213 580.817 12.52C580.817 11.72 581.115 11.0907 581.713 10.632C582.321 10.1733 583.254 9.944 584.513 9.944H586.497C586.497 9.4 586.331 8.984 586.001 8.696C585.67 8.39733 585.174 8.248 584.513 8.248C584.054 8.248 583.601 8.32267 583.153 8.472C582.715 8.61067 582.342 8.80267 582.033 9.048L581.137 7.304C581.606 6.97333 582.166 6.71733 582.817 6.536C583.478 6.35467 584.155 6.264 584.849 6.264ZM584.657 13.448C585.083 13.448 585.462 13.352 585.793 13.16C586.123 12.9573 586.358 12.664 586.497 12.28V11.4H584.785C583.761 11.4 583.249 11.736 583.249 12.408C583.249 12.728 583.371 12.984 583.617 13.176C583.873 13.3573 584.219 13.448 584.657 13.448ZM597.737 10.504C598.75 10.8453 599.257 11.528 599.257 12.552C599.257 13.3307 598.964 13.9333 598.377 14.36C597.79 14.7867 596.916 15 595.753 15H591.161V6.392H595.561C596.638 6.392 597.481 6.58933 598.089 6.984C598.697 7.368 599.001 7.912 599.001 8.616C599.001 9.04267 598.889 9.42133 598.665 9.752C598.452 10.072 598.142 10.3227 597.737 10.504ZM593.449 9.928H595.337C596.212 9.928 596.649 9.61867 596.649 9C596.649 8.392 596.212 8.088 595.337 8.088H593.449V9.928ZM595.545 13.304C596.462 13.304 596.921 12.9893 596.921 12.36C596.921 12.0293 596.814 11.7893 596.601 11.64C596.388 11.48 596.052 11.4 595.593 11.4H593.449V13.304H595.545ZM609.37 6.392V15H606.874V8.44H604.154L604.074 9.96C604.031 11.0907 603.925 12.0293 603.754 12.776C603.583 13.5227 603.306 14.1093 602.922 14.536C602.538 14.9627 602.005 15.176 601.322 15.176C600.959 15.176 600.527 15.112 600.026 14.984L600.154 12.936C600.325 12.9573 600.447 12.968 600.522 12.968C600.895 12.968 601.173 12.8347 601.354 12.568C601.546 12.2907 601.674 11.944 601.738 11.528C601.802 11.1013 601.85 10.5413 601.882 9.848L602.01 6.392H609.37ZM619.418 6.392V15H617.194V12.536H615.354L613.722 15H611.066L613.034 12.184C612.437 11.9493 611.978 11.6133 611.658 11.176C611.349 10.728 611.194 10.1893 611.194 9.56C611.194 8.54667 611.557 7.768 612.282 7.224C613.018 6.66933 614.026 6.392 615.306 6.392H619.418ZM615.354 8.424C614.821 8.424 614.416 8.52 614.138 8.712C613.872 8.904 613.738 9.21333 613.738 9.64C613.738 10.0667 613.866 10.3813 614.122 10.584C614.389 10.776 614.789 10.872 615.322 10.872H617.194V8.424H615.354ZM630.185 10.728C630.185 10.76 630.169 10.984 630.137 11.4H623.625C623.743 11.9333 624.02 12.3547 624.457 12.664C624.895 12.9733 625.439 13.128 626.089 13.128C626.537 13.128 626.932 13.064 627.273 12.936C627.625 12.7973 627.951 12.584 628.249 12.296L629.577 13.736C628.767 14.664 627.583 15.128 626.025 15.128C625.055 15.128 624.196 14.9413 623.449 14.568C622.703 14.184 622.127 13.656 621.721 12.984C621.316 12.312 621.113 11.5493 621.113 10.696C621.113 9.85333 621.311 9.096 621.705 8.424C622.111 7.74133 622.66 7.21333 623.353 6.84C624.057 6.456 624.841 6.264 625.705 6.264C626.548 6.264 627.311 6.44533 627.993 6.808C628.676 7.17067 629.209 7.69333 629.593 8.376C629.988 9.048 630.185 9.832 630.185 10.728ZM625.721 8.152C625.156 8.152 624.681 8.312 624.297 8.632C623.913 8.952 623.679 9.38933 623.593 9.944H627.833C627.748 9.4 627.513 8.968 627.129 8.648C626.745 8.31733 626.276 8.152 625.721 8.152ZM639.034 8.44H636.122V15H633.642V8.44H630.73V6.392H639.034V8.44ZM539.097 29.52C539.609 29.68 540.003 29.9253 540.281 30.256C540.569 30.5867 540.713 30.9813 540.713 31.44C540.713 31.984 540.526 32.464 540.153 32.88C539.779 33.2853 539.267 33.6 538.617 33.824C537.966 34.048 537.23 34.16 536.409 34.16C535.737 34.16 535.075 34.0907 534.424 33.952C533.774 33.8133 533.171 33.6053 532.617 33.328L533.289 31.584C534.195 32.0213 535.198 32.24 536.297 32.24C536.883 32.24 537.342 32.1547 537.673 31.984C538.014 31.8027 538.185 31.552 538.185 31.232C538.185 30.9547 538.067 30.7467 537.833 30.608C537.598 30.4587 537.257 30.384 536.809 30.384H535.049V28.832H536.585C537.022 28.832 537.358 28.7627 537.593 28.624C537.827 28.4853 537.945 28.2827 537.945 28.016C537.945 27.7387 537.795 27.5253 537.497 27.376C537.209 27.2267 536.793 27.152 536.249 27.152C535.417 27.152 534.51 27.3493 533.529 27.744L532.921 26.016C534.115 25.4933 535.278 25.232 536.409 25.232C537.187 25.232 537.881 25.328 538.489 25.52C539.107 25.712 539.593 25.9947 539.945 26.368C540.297 26.7307 540.473 27.1573 540.473 27.648C540.473 28.0533 540.35 28.4213 540.105 28.752C539.859 29.072 539.523 29.328 539.097 29.52ZM545.872 25.264C547.205 25.264 548.229 25.584 548.944 26.224C549.659 26.8533 550.016 27.808 550.016 29.088V34H547.68V32.928C547.211 33.728 546.336 34.128 545.056 34.128C544.395 34.128 543.819 34.016 543.328 33.792C542.848 33.568 542.48 33.2587 542.224 32.864C541.968 32.4693 541.84 32.0213 541.84 31.52C541.84 30.72 542.139 30.0907 542.736 29.632C543.344 29.1733 544.277 28.944 545.536 28.944H547.52C547.52 28.4 547.355 27.984 547.024 27.696C546.693 27.3973 546.197 27.248 545.536 27.248C545.077 27.248 544.624 27.3227 544.176 27.472C543.739 27.6107 543.365 27.8027 543.056 28.048L542.16 26.304C542.629 25.9733 543.189 25.7173 543.84 25.536C544.501 25.3547 545.179 25.264 545.872 25.264ZM545.68 32.448C546.107 32.448 546.485 32.352 546.816 32.16C547.147 31.9573 547.381 31.664 547.52 31.28V30.4H545.808C544.784 30.4 544.272 30.736 544.272 31.408C544.272 31.728 544.395 31.984 544.64 32.176C544.896 32.3573 545.243 32.448 545.68 32.448ZM555.976 30.736H554.68V34H552.184V25.392H554.68V28.736H556.024L558.36 25.392H561.016L558.008 29.52L561.224 34H558.28L555.976 30.736ZM565.638 25.264C566.971 25.264 567.995 25.584 568.71 26.224C569.424 26.8533 569.782 27.808 569.782 29.088V34H567.446V32.928C566.976 33.728 566.102 34.128 564.822 34.128C564.16 34.128 563.584 34.016 563.094 33.792C562.614 33.568 562.246 33.2587 561.99 32.864C561.734 32.4693 561.606 32.0213 561.606 31.52C561.606 30.72 561.904 30.0907 562.502 29.632C563.11 29.1733 564.043 28.944 565.302 28.944H567.286C567.286 28.4 567.12 27.984 566.79 27.696C566.459 27.3973 565.963 27.248 565.302 27.248C564.843 27.248 564.39 27.3227 563.942 27.472C563.504 27.6107 563.131 27.8027 562.822 28.048L561.926 26.304C562.395 25.9733 562.955 25.7173 563.606 25.536C564.267 25.3547 564.944 25.264 565.638 25.264ZM565.446 32.448C565.872 32.448 566.251 32.352 566.582 32.16C566.912 31.9573 567.147 31.664 567.286 31.28V30.4H565.574C564.55 30.4 564.038 30.736 564.038 31.408C564.038 31.728 564.16 31.984 564.406 32.176C564.662 32.3573 565.008 32.448 565.446 32.448ZM577.456 29.52C577.968 29.68 578.363 29.9253 578.64 30.256C578.928 30.5867 579.072 30.9813 579.072 31.44C579.072 31.984 578.885 32.464 578.512 32.88C578.139 33.2853 577.627 33.6 576.976 33.824C576.325 34.048 575.589 34.16 574.768 34.16C574.096 34.16 573.435 34.0907 572.784 33.952C572.133 33.8133 571.531 33.6053 570.976 33.328L571.648 31.584C572.555 32.0213 573.557 32.24 574.656 32.24C575.243 32.24 575.701 32.1547 576.032 31.984C576.373 31.8027 576.544 31.552 576.544 31.232C576.544 30.9547 576.427 30.7467 576.192 30.608C575.957 30.4587 575.616 30.384 575.168 30.384H573.408V28.832H574.944C575.381 28.832 575.717 28.7627 575.952 28.624C576.187 28.4853 576.304 28.2827 576.304 28.016C576.304 27.7387 576.155 27.5253 575.856 27.376C575.568 27.2267 575.152 27.152 574.608 27.152C573.776 27.152 572.869 27.3493 571.888 27.744L571.28 26.016C572.475 25.4933 573.637 25.232 574.768 25.232C575.547 25.232 576.24 25.328 576.848 25.52C577.467 25.712 577.952 25.9947 578.304 26.368C578.656 26.7307 578.832 27.1573 578.832 27.648C578.832 28.0533 578.709 28.4213 578.464 28.752C578.219 29.072 577.883 29.328 577.456 29.52Z" fill="#1F1F1F"/>
<path d="M218.471 95.3785C218.68 94.0137 217.743 92.7379 216.379 92.5288L194.138 89.1219C192.773 88.9129 191.497 89.8498 191.288 91.2146C191.079 92.5794 192.016 93.8552 193.381 94.0643L213.15 97.0926L210.122 116.862C209.913 118.227 210.85 119.503 212.215 119.712C213.579 119.921 214.855 118.984 215.064 117.619L218.471 95.3785ZM154.162 143.511L217.48 97.0151L214.52 92.9849L151.203 139.481L154.162 143.511Z" fill="#1F1F1F"/>
<path d="M71.9819 142.956C73.3601 142.874 74.4106 141.69 74.3282 140.311L72.985 117.851C72.9026 116.473 71.7185 115.423 70.3402 115.505C68.962 115.588 67.9115 116.772 67.9939 118.15L69.1879 138.114L49.2235 139.308C47.8453 139.391 46.7948 140.575 46.8772 141.953C46.9597 143.331 48.1438 144.382 49.522 144.299L71.9819 142.956ZM11.0166 89.8501L70.1736 142.331L73.4917 138.59L14.3347 86.1098L11.0166 89.8501Z" fill="#1F1F1F"/>
<circle cx="113" cy="157" r="29" fill="#C43030"/>
<path d="M658.306 142.956C659.684 142.874 660.735 141.69 660.653 140.311L659.309 117.851C659.227 116.473 658.043 115.423 656.665 115.505C655.286 115.588 654.236 116.772 654.318 118.15L655.512 138.114L635.548 139.308C634.17 139.391 633.119 140.575 633.202 141.953C633.284 143.331 634.468 144.382 635.846 144.299L658.306 142.956ZM597.341 89.8501L656.498 142.331L659.816 138.59L600.659 86.1098L597.341 89.8501Z" fill="#1F1F1F"/>
<circle cx="699.324" cy="157" r="29" fill="#C43030"/>
<circle cx="263" cy="86" r="29" fill="#C43030"/>
<path d="M511.796 95.3785C512.005 94.0137 511.068 92.7379 509.703 92.5288L487.462 89.1219C486.098 88.9129 484.822 89.8498 484.613 91.2146C484.404 92.5794 485.34 93.8552 486.705 94.0643L506.475 97.0926L503.446 116.862C503.237 118.227 504.174 119.503 505.539 119.712C506.904 119.921 508.18 118.984 508.389 117.619L511.796 95.3785ZM447.487 143.511L510.804 97.0151L507.845 92.9849L444.527 139.481L447.487 143.511Z" fill="#1F1F1F"/>
<path d="M365.306 142.956C366.684 142.874 367.735 141.69 367.653 140.311L366.309 117.851C366.227 116.473 365.043 115.423 363.665 115.505C362.286 115.588 361.236 116.772 361.318 118.15L362.512 138.114L342.548 139.308C341.17 139.391 340.119 140.575 340.202 141.953C340.284 143.331 341.468 144.382 342.846 144.299L365.306 142.956ZM304.341 89.8501L363.498 142.331L366.816 138.59L307.659 86.1098L304.341 89.8501Z" fill="#1F1F1F"/>
<circle cx="406.324" cy="157" r="29" fill="#C43030"/>
<circle cx="556.324" cy="86" r="29" fill="#C43030"/>
<path d="M117.124 144.8V170H111.292V149.48H106.252V144.8H117.124Z" fill="white"/>
<path d="M273.232 92.248V97H254.188V93.22L263.908 84.04C264.94 83.056 265.636 82.216 265.996 81.52C266.356 80.8 266.536 80.092 266.536 79.396C266.536 78.388 266.188 77.62 265.492 77.092C264.82 76.54 263.824 76.264 262.504 76.264C261.4 76.264 260.404 76.48 259.516 76.912C258.628 77.32 257.884 77.944 257.284 78.784L253.036 76.048C254.02 74.584 255.376 73.444 257.104 72.628C258.832 71.788 260.812 71.368 263.044 71.368C264.916 71.368 266.548 71.68 267.94 72.304C269.356 72.904 270.448 73.768 271.216 74.896C272.008 76 272.404 77.308 272.404 78.82C272.404 80.188 272.116 81.472 271.54 82.672C270.964 83.872 269.848 85.24 268.192 86.776L262.396 92.248H273.232Z" fill="white"/>
<path d="M409.176 155.06C411.384 155.42 413.076 156.248 414.252 157.544C415.428 158.816 416.016 160.4 416.016 162.296C416.016 163.76 415.632 165.116 414.864 166.364C414.096 167.588 412.92 168.572 411.336 169.316C409.776 170.06 407.856 170.432 405.576 170.432C403.8 170.432 402.048 170.204 400.32 169.748C398.616 169.268 397.164 168.596 395.964 167.732L398.232 163.268C399.192 163.988 400.296 164.552 401.544 164.96C402.816 165.344 404.112 165.536 405.432 165.536C406.896 165.536 408.048 165.26 408.888 164.708C409.728 164.132 410.148 163.328 410.148 162.296C410.148 160.232 408.576 159.2 405.432 159.2H402.768V155.348L407.952 149.48H397.224V144.8H414.864V148.58L409.176 155.06Z" fill="white"/>
<path d="M566.48 92.708H562.376V98H556.688V92.708H543.116V88.784L554.996 72.8H561.116L550.1 87.956H556.868V83.24H562.376V87.956H566.48V92.708Z" fill="white"/>
<path d="M698.044 154.268C701.596 154.268 704.212 154.976 705.892 156.392C707.596 157.808 708.448 159.704 708.448 162.08C708.448 163.616 708.064 165.02 707.296 166.292C706.528 167.54 705.352 168.548 703.768 169.316C702.208 170.06 700.276 170.432 697.972 170.432C696.196 170.432 694.444 170.204 692.716 169.748C691.012 169.268 689.56 168.596 688.36 167.732L690.664 163.268C691.624 163.988 692.728 164.552 693.976 164.96C695.224 165.344 696.508 165.536 697.828 165.536C699.292 165.536 700.444 165.248 701.284 164.672C702.124 164.096 702.544 163.292 702.544 162.26C702.544 161.18 702.1 160.364 701.212 159.812C700.348 159.26 698.836 158.984 696.676 158.984H690.232L691.528 144.8H706.9V149.48H696.388L695.992 154.268H698.044Z" fill="white"/>
</svg>
